<?xml version="1.0" standalone="no"?>
<!DOCTYPE svg PUBLIC "-//W3C//DTD SVG 1.1//EN" "http://www.w3.org/Graphics/SVG/1.1/DTD/svg11.dtd" >
<svg>
<metadata>
Created by FontForge 20110222 at Mon Mar  7 13:29:47 2011
 By www-data
Copyright (c) 2010 by Kimberly Geswein. All rights reserved.
</metadata>
<defs>
<font id="IndieFlower" horiz-adv-x="650" >
  <font-face 
    font-family="Indie Flower"
    font-weight="400"
    font-stretch="normal"
    units-per-em="1000"
    panose-1="0 0 0 0 0 0 0 0 0 0"
    ascent="800"
    descent="-200"
    x-height="501"
    cap-height="737.5"
    bbox="-177.273 -651 1252 1295"
    underline-thickness="50"
    underline-position="-50"
    unicode-range="U+0020-20AC"
  />
    <missing-glyph />
    <glyph glyph-name="space" unicode=" " horiz-adv-x="500" 
 />
    <glyph glyph-name="space" unicode="&#xa0;" horiz-adv-x="500" 
 />
    <glyph glyph-name="exclam" unicode="!" horiz-adv-x="200" 
d="M21 63q0 40 29 57.5t69 17.5q14 0 24.5 -7.5t18 -18.5t11 -24t3.5 -25q0 -15 -10.5 -26.5t-25 -20t-31 -13t-28.5 -4.5q-32 0 -46 17t-14 47zM62 356q-5 34 -7.5 92t-3 128t0 145.5t1 145.5t0 128t-2.5 93l63 12q0 -1 1 -40.5t2 -100.5t2 -135t2 -142.5t2.5 -123
t2.5 -77.5v-9t0.5 -16.5t0.5 -19v-14.5q0 -11 1 -24.5t-1 -26t-9 -21t-22 -8.5q-9 0 -19.5 0.5t-13.5 13.5z" />
    <glyph glyph-name="quotedbl" unicode="&#x22;" horiz-adv-x="313" 
d="M201 713q-3 45 -5.5 81.5t-4 69.5t-2.5 65.5t-1 70.5v50q1 2 6 6.5t7 6.5h3q1 0 1.5 0.5t1.5 0.5q17 0 28.5 -24t19 -61t12 -80.5t6.5 -81.5t2.5 -65.5t0.5 -32.5v-44q-2 -4 -11.5 -13.5t-13.5 -11.5q-2 -1 -3 -1h-4q-8 0 -15.5 9.5t-13.5 21t-10 21.5t-4 12zM13 1013
q4 10 11 11.5t15 1.5q13 0 24 -19t20 -49t17 -67.5t16 -73.5t16.5 -67.5t18.5 -49.5q-8 -15 -16 -20.5t-22 -5.5q-18 0 -32 21t-25 54t-19 73t-13 77.5t-7.5 68t-3.5 45.5z" />
    <glyph glyph-name="numbersign" unicode="#" horiz-adv-x="1025" 
d="M513 200v-112q0 -2 -5 -6.5t-7 -6.5q-4 -3 -13.5 -7.5t-11.5 -4.5q-15 0 -22.5 9.5t-10 23.5t-3 30t-2 30t-7 23.5t-17.5 9.5q-2 0 -7 -0.5t-6 -0.5q-6 -1 -25.5 -4t-45 -7t-54.5 -8t-54.5 -8t-45 -7t-25.5 -4h-8q-14 0 -22.5 12t-8.5 26q0 2 0.5 6.5t0.5 5.5
q64 15 125.5 27t124.5 23q6 1 14.5 3t16.5 4t13.5 3.5t5.5 2.5v87l-12 13q-1 0 -5.5 0.5t-10.5 1t-12 0.5h-9q-42 0 -85 -12.5t-84.5 -27t-79.5 -27t-71 -12.5q-15 0 -23.5 5.5t-8.5 22.5q0 24 29 42t72 31t93.5 22t93.5 16t72 12.5t29 12.5v175q0 6 5 11.5t12.5 10t15.5 7
t14 2.5q0 -20 2.5 -43.5t6.5 -47.5t9 -47.5t10 -42.5q21 -8 35.5 -11t34.5 -3q6 0 15.5 3t18.5 8.5t15.5 12t6.5 14.5q0 13 -4 25.5t-9 25t-9 25t-4 25.5q0 17 9 34t28 17q2 0 6.5 -0.5t6.5 -0.5q1 -10 6.5 -36.5t13 -54.5t16 -49.5t14.5 -21.5h212q1 0 7.5 -5.5t14.5 -13.5
t15.5 -16.5t12.5 -14.5v-3q0 -2 0.5 -2.5t0.5 -1.5q0 -5 -4.5 -10.5t-10.5 -10t-12.5 -7.5t-10.5 -3q-1 0 -5 1.5t-8 4t-7.5 4.5t-4.5 3q-2 0 -10 2t-18 4t-20 3.5t-15 2.5h-6h-6q-13 -2 -32 -4t-37 -4q-21 -3 -44 -4v-88l13 -12q26 4 46 6.5t38.5 4t37 2t41.5 0.5
q22 0 44 0.5t40 -5t29.5 -19t11.5 -41.5q0 -23 -25 -23h-13q-5 0 -21.5 2t-35.5 4t-35.5 4t-20.5 2h-6q-9 0 -30 -4t-42.5 -8.5t-38.5 -8.5t-20 -4q0 -2 -0.5 -8.5t-0.5 -13.5t-0.5 -13t-0.5 -9q0 -31 7.5 -60.5t7.5 -59.5q0 -2 -0.5 -3.5t-0.5 -3.5v-4q-2 -2 -8 -9t-14 -15
t-16 -15.5t-12 -10.5q-2 -1 -3 -1h-3q-7 0 -12 15t-8.5 37.5t-6.5 49t-5.5 50.5t-5 41t-6.5 21l-12 12zM488 350q0 -4 1.5 -15t3.5 -23t4 -22.5t4 -14.5l112 25q0 6 1 10q2 10 2 15q0 3 -0.5 9l-1 12t-1 11t-0.5 6q-1 5 -5.5 15t-6.5 10h-88q-1 0 -5.5 -5t-6.5 -8
q-3 -4 -8 -13.5t-5 -11.5z" />
    <glyph glyph-name="dollar" unicode="$" horiz-adv-x="775" 
d="M381 143q-2 -6 -5.5 -27.5t-8.5 -44.5t-12 -41.5t-16 -18.5q-27 0 -36.5 20t-11 46.5t0 51.5t-3.5 34q-8 14 -32.5 31t-56.5 36t-66.5 39t-62.5 40.5t-45 40.5t-12 38q4 15 14.5 20.5t23.5 5.5q27 0 52 -23.5t50.5 -52t52.5 -52t57 -23.5q17 0 29.5 22.5t21 58t13.5 78.5
t7.5 84t3.5 74.5t1 50.5v9t-0.5 13t-0.5 13.5v8.5q-19 24 -43 42t-45.5 37.5t-36 43t-14.5 58.5q0 4 1 16t1 16q32 45 77 76.5t98 48.5q2 25 3 59t7.5 67t21 60t43.5 39q0 -20 4.5 -37.5t7.5 -37.5q0 -1 -2 -5l-4 -8t-4 -7.5t-2 -4.5t-0.5 -6.5t-0.5 -12.5t-0.5 -14
t-0.5 -11q0 -5 1 -22t1 -22q17 -9 28 -11.5t28 -2.5q2 0 9.5 1t9.5 1q0 18 -1 45t3.5 52t17.5 43t42 18v-196q4 -8 14 -13.5t20.5 -11t18.5 -11t8 -14.5q0 -5 -7.5 -12t-19 -13t-24 -10t-22.5 -2q-6 -51 -16.5 -97.5t-10.5 -96.5q0 -3 0.5 -11t0.5 -17t0.5 -17t0.5 -11
q27 -33 62 -62t65.5 -61t51.5 -70t21 -89q0 -137 -72 -210.5t-203 -82.5q2 -13 2 -28.5t-4.5 -29t-14.5 -22.5t-27 -9q-2 0 -9.5 0.5t-9.5 0.5q-4 37 -8 67q-4 26 -10 48.5t-14 27.5zM488 175q3 -2 12.5 -6.5t12.5 -5.5h6q41 0 71 18.5t49.5 48t28.5 65t9 70.5
q0 72 -34 120.5t-92 89.5q-17 -9 -28.5 -31.5t-18.5 -53.5t-10.5 -66.5t-5 -69.5t-1.5 -63v-47v-13.5t0.5 -21t0.5 -21v-13.5zM456 621q3 4 -1.5 6.5t-11.5 3t-12.5 -1t-4.5 -4.5q-5 -31 -15.5 -73.5t-21.5 -88t-19 -90t-9 -78.5t7.5 -53t32.5 -14q0 2 4.5 30t10.5 70t13 90
t13 90t10 70.5t4 30.5v12zM424 760q0 -10 -0.5 -24t2 -28.5t8 -26.5t17.5 -18q28 19 41.5 57.5t18 82.5t4 86t-0.5 66q-3 0 -12 -0.5t-19 -1.5t-19 -2t-13 -1q-3 0 -8 -5t-5 -7q-4 -28 -7 -50t-4.5 -42.5t-2 -40.5t-0.5 -45zM274 835q0 -22 5.5 -35.5t33.5 -24.5l3.5 -2.5
t8 -5.5t9 -5t6.5 0q10 6 14.5 19.5t6.5 29.5t2 31.5v26.5q0 5 -2.5 12.5t-6.5 14.5t-10 12t-12 5q-15 0 -26 -7.5t-18 -19t-10.5 -25.5t-3.5 -26z" />
    <glyph glyph-name="percent" unicode="%" horiz-adv-x="850" 
d="M188 38q0 25 20 71.5t53.5 105.5t76.5 126.5t89 134t91 127.5t83 107.5t64.5 74.5t35.5 28q6 0 9 -5t4 -12t0.5 -13t-0.5 -8q-31 -51 -66.5 -93t-70.5 -84.5t-67.5 -89.5t-58.5 -108q-8 -13 -25.5 -48t-41 -79.5t-49.5 -92.5t-50 -88.5t-43 -66.5t-29 -26
q-16 0 -20.5 12.5t-4.5 26.5zM474 131q0 35 16.5 81.5t44 88.5t64 71t77.5 29q28 0 53.5 -15.5t44 -40t29.5 -53.5t11 -56q0 -38 -18 -78t-47.5 -72.5t-66.5 -53.5t-75 -21q-28 0 -52.5 7t-42.5 22t-28 37.5t-10 53.5zM538 100q11 -11 23 -12.5t27 -1.5q28 0 55 11
t48.5 30.5t34.5 45.5t13 56q0 13 -3.5 29.5t-11 31.5t-19.5 25t-29 10q-30 0 -55.5 -21.5t-44 -52t-29.5 -64t-11 -56.5q0 -4 0.5 -15.5t1.5 -15.5zM12 538q0 33 12.5 66.5t34 60.5t51 44t64.5 17q31 0 62.5 -12.5t57 -34.5t42 -51.5t16.5 -63.5q0 -35 -14.5 -67t-39 -57
t-56.5 -39.5t-66 -14.5q-28 0 -57 12t-53 33t-39 48.5t-15 58.5zM87 544q0 -12 2.5 -26.5t8.5 -28.5t15.5 -24.5t24.5 -14.5q18 -5 44 2t49.5 21t40 34t16.5 43q0 20 -9.5 38t-24.5 32t-34 22t-38 8q-22 0 -39.5 -9.5t-30 -25t-19 -34.5t-6.5 -37z" />
    <glyph glyph-name="ampersand" unicode="&#x26;" horiz-adv-x="609" 
d="M13 100q0 44 11 83.5t28 76t37.5 71.5t40 70.5t35.5 72t23 76.5v14v24v23.5v13.5q0 9 1 27.5t2 42t2.5 49.5t3 49.5t2.5 42t2 27.5q0 5 3 14.5t8 19.5t11.5 18t14.5 10q31 5 53 -8t35.5 -35.5t19.5 -49.5t6 -49q0 -41 -5.5 -74t-16.5 -64t-28 -62.5t-39 -69.5
q0 -2 -0.5 -6.5t-0.5 -6.5q0 -20 6 -43t15 -46.5t20.5 -45.5t22.5 -40h25q20 10 30 38t14 60.5t4.5 61.5t1.5 40q7 8 18.5 11t24.5 4t24.5 0t17.5 -1q15 0 32.5 3.5t32 2.5t24 -10t9.5 -34q0 -13 -4.5 -18.5t-21.5 -6.5q-7 -1 -17 -2.5t-20.5 -2.5t-20.5 -2t-17 0
q-18 -38 -25 -68.5t-13 -57.5t-15 -52t-29 -53q-1 -2 -1 -5q-1 -3 -1 -8q0 -18 14.5 -45t34 -55.5t38.5 -53.5t27 -37q-5 -12 -16 -13.5t-22 0.5l-112 129h-3h-2q-1 0 -1 1q-22 0 -40.5 -24t-41.5 -53t-54 -53t-77 -24q-3 0 -11 0.5t-17 1t-17 1t-11 0.5q-10 8 -23 19.5
t-24.5 25t-19.5 27.5t-8 28zM87 125q0 -7 4 -18.5t11 -21.5t16.5 -17t19.5 -5q19 3 47 21.5t54 43.5t44.5 51.5t18.5 45.5t-9.5 41t-22 45l-25 46t-19.5 43q-16 -2 -32 -21.5t-31.5 -48t-29 -62t-24 -63t-16.5 -52t-6 -28.5z" />
    <glyph glyph-name="quotesingle" unicode="'" horiz-adv-x="138" 
d="M25 928q0 8 0.5 13t3 10t7.5 10.5t14 13.5q15 -8 25.5 -27.5t17.5 -46t11.5 -56.5t6.5 -59.5t2.5 -54.5t0.5 -40q0 -17 -3 -29.5t-23 -12.5q-17 0 -28 19.5t-18 49.5t-10.5 65t-5 66t-1.5 53v26z" />
    <glyph glyph-name="parenleft" unicode="(" horiz-adv-x="563" 
d="M25 256q0 42 20 97.5t53.5 113t78 113t93 99.5t98.5 70.5t95 26.5q11 0 24.5 -5.5t25 -14t19 -19.5t7.5 -23q0 -5 -0.5 -12t-3 -13t-6.5 -10.5t-10 -4.5q-9 0 -16 4t-14 9.5t-14 9.5t-17 4q-45 0 -89 -24t-84 -63t-74 -89t-59 -102.5t-39 -102.5t-14 -90q0 -63 21.5 -102
t58 -62.5t84 -35t100.5 -17.5q10 -4 11.5 -10.5t1.5 -14.5q0 -18 -13 -26.5t-31 -11.5t-35.5 -2t-26.5 1q-62 0 -108 27.5t-76.5 71t-45.5 98.5t-15 110z" />
    <glyph glyph-name="parenright" unicode=")" horiz-adv-x="388" 
d="M12 -25q0 9 20.5 30t51.5 51.5t66.5 68.5t66.5 82t51.5 93t20.5 100q0 49 -14.5 94t-38.5 86t-56 77t-67 68q-9 -5 -18 -3t-16.5 8t-12 15t-4.5 18q0 19 11.5 22.5t28.5 3.5q39 0 74 -19t64 -50.5t52 -71.5t39 -81.5t24.5 -82t8.5 -71.5t-14.5 -79.5t-38.5 -103t-56 -109
t-68 -98.5t-72.5 -71.5t-70.5 -27.5q-8 0 -14 5.5t-10 14t-6 17t-2 14.5z" />
    <glyph glyph-name="asterisk" unicode="*" horiz-adv-x="550" 
d="M238 525q-2 0 -11.5 -9.5t-13.5 -15.5q-5 -6 -16 -22t-23 -34t-22 -34t-14 -22q-4 -3 -18.5 -8t-19.5 -5q-6 0 -9 4t-4 9t-1 10.5v7.5q0 18 5 33.5t11.5 30t11.5 30t5 33.5q-13 0 -20.5 -1.5t-13.5 -3t-12.5 -3t-17.5 -1.5q-5 0 -11.5 0.5t-11 3t-7 7.5t-0.5 15
q3 12 14.5 21t26 16t29.5 10.5t25 3.5q11 0 15 -4t6 -9.5t4.5 -9.5t10.5 -4h4q1 0 3 1q2 2 7 6.5t5 6.5q0 16 -9 30t-22.5 27t-29 25.5t-28 23.5t-19.5 22t-4 22q1 2 10.5 11.5t14.5 13.5h3q1 0 1.5 0.5t1.5 0.5q0 -1 1 -1h2h3l125 -75q-2 7 -2 18.5t2.5 21.5t8.5 17.5
t17 7.5q2 0 7 -1t5 -2l37 -62q18 12 41 32t49 39.5t54 35t56 18.5q8 -11 11 -19t3 -19q0 -13 -20 -30t-46 -34t-51 -33.5t-34 -27.5q10 1 29 2t37.5 -1.5t32 -8t13.5 -17.5q0 -17 -12 -24.5t-26 -13t-26 -13t-12 -23.5q0 -20 9 -39t21.5 -38t25.5 -37.5t20 -36.5
q-2 -16 -14.5 -26.5t-29.5 -10.5h-6q-3 2 -10 7t-15 11t-15 11.5t-10 7.5q2 -29 -9.5 -57.5t-40.5 -42.5q-6 8 -11.5 29t-11 47t-11 54t-13 50t-17.5 35t-23 10z" />
    <glyph glyph-name="plus" unicode="+" horiz-adv-x="613" 
d="M238 250q-25 0 -50.5 -4t-50.5 -8.5t-50 -8.5t-49 -4q-20 0 -24 9t-4 22q0 17 4 22t24 10q10 2 37 7.5t57 11.5t56.5 11t37.5 7q7 1 9.5 7t3.5 13t0.5 13.5t-0.5 9.5q0 21 -4 41.5t-9 40.5t-9 41t-4 42v5q2 4 11.5 13.5t13.5 11.5h3q1 0 1.5 0.5t1.5 0.5t1.5 -0.5
t2.5 -0.5h3q5 -4 14 -13.5t11 -11.5l50 -175l12 -13l22 -3.5t52 -7.5t61.5 -8t52.5 -6q4 0 14.5 -1t21 -3t18.5 -7t8 -14q0 -4 -4.5 -12t-11 -16.5t-12.5 -15t-9 -6.5h-200v-225l-4.5 -3.5t-10.5 -7.5t-12.5 -8t-10.5 -6q-2 -1 -3 -1h-3q-15 0 -21.5 13t-8.5 30.5t-1 34
t0 23.5q-1 9 -4.5 30l-7.5 45t-7.5 45.5t-5.5 29.5h-13z" />
    <glyph glyph-name="hyphen" unicode="-" horiz-adv-x="500" 
d="M330 426q18 0 39.5 -1t39.5 -7t30 -18.5t12 -36.5q0 -27 -25 -27q-28 0 -52.5 7.5t-54.5 7.5q-38 0 -75 -4.5t-74.5 -10.5t-74.5 -10.5t-75 -4.5q0 31 14 49.5t37.5 29.5t53.5 15t61 5t60.5 1.5t53.5 3.5q1 0 13 0.5t17 0.5z" />
    <glyph glyph-name="period" unicode="." horiz-adv-x="272" 
d="M59 125q0 10 8.5 31t20 42t24 37t21.5 16q26 0 45.5 -13.5t32 -34.5t18.5 -45.5t6 -46.5q0 -15 -8.5 -34.5t-22 -36.5t-30.5 -28.5t-34 -11.5q-19 0 -34 14t-25.5 33.5t-16 41t-5.5 36.5z" />
    <glyph glyph-name="slash" unicode="/" horiz-adv-x="413" 
d="M13 44q0 17 8.5 44.5t20.5 56t25 54t21 39.5l213 587q4 18 7.5 45.5t10 54t17 48t27.5 27.5q12 -3 17.5 -9.5t7.5 -15t1.5 -18t-0.5 -17.5q0 -20 -12 -71t-32.5 -120.5t-47 -152.5t-55.5 -166t-58.5 -160.5t-55.5 -137.5t-46 -96t-31 -36q-17 0 -27.5 15t-10.5 29z" />
    <glyph glyph-name="zero" unicode="0" horiz-adv-x="575" 
d="M24 290q0 45 24 95t63 92t87 70t96 28q45 0 88.5 -29t78.5 -72.5t56.5 -93t21.5 -91.5q0 -48 -14 -99.5t-42.5 -94t-71.5 -69.5t-101 -27q-60 0 -112.5 23t-91 62.5t-60.5 92.5t-22 113zM88 300q-6 -45 8 -86t41.5 -72t67 -49.5t84.5 -18.5q16 0 29 2t25.5 6.5t25.5 12
t31 18.5q2 17 12.5 31t22 30t20.5 37.5t9 53.5q0 43 -14 83.5t-40 71.5t-63.5 49.5t-85.5 18.5q-35 0 -64.5 -17.5t-52.5 -45t-37.5 -61t-18.5 -64.5z" />
    <glyph glyph-name="one" unicode="1" horiz-adv-x="425" 
d="M238 25q0 5 -0.5 22t-0.5 22q0 13 1.5 37.5t4 55.5t5 64.5t5 64t4 55.5t1.5 38q0 16 -2 30.5t-24 21.5q-6 -6 -18.5 -21t-28.5 -34.5t-35 -41t-37 -39.5t-34.5 -29.5t-28.5 -11.5q-31 0 -31 33v7q1 3 5 8.5t7.5 11.5t7 10.5t5.5 6.5l238 250q16 17 23 50.5l14 67t17 58.5
t32 25q8 0 15 -1.5t11 -11.5v-9t0.5 -13t0.5 -13.5v-8.5q0 -5 -3.5 -39.5t-9.5 -87t-14 -117.5t-17 -132.5t-19 -131t-20 -113.5t-19 -80t-17 -30q-14 0 -22 5.5t-16 20.5z" />
    <glyph glyph-name="two" unicode="2" horiz-adv-x="663" 
d="M364 39q-47 0 -90 -7.5t-91 -7.5q-26 0 -54 6t-52.5 19.5t-42 35.5t-21.5 53q-3 19 5.5 31.5t22.5 19.5t30.5 9.5t29.5 2.5q31 0 59.5 -10t56.5 -21.5t56.5 -21.5t59.5 -10q28 0 51 18.5t42 48t33 66t23.5 71.5t14.5 65.5t5 48.5t-5 53t-16.5 69t-31 59.5t-48.5 25.5
q-27 0 -40.5 -19.5t-21.5 -43.5l-15.5 -46.5t-22.5 -28.5q-20 14 -23.5 34.5t-3.5 40.5q0 25 10.5 48t28.5 40t42.5 27t51.5 10q46 0 78.5 -27.5t53 -68t30 -85.5t9.5 -81q0 -33 -2 -59t-8 -50.5t-16 -52t-26 -63.5q-9 -6 -22 -21t-24.5 -32t-20 -33.5t-8.5 -26.5
q0 -14 13 -21t32.5 -10.5t42.5 -6t42.5 -7.5t32.5 -14.5t13 -27.5q0 -14 -12.5 -26t-26.5 -12q-29 0 -56.5 6t-55.5 13.5t-55.5 13.5t-56.5 6z" />
    <glyph glyph-name="three" unicode="3" horiz-adv-x="575" 
d="M25 163q-1 2 -1 4v7q0 23 12 37.5t35 14.5q6 0 16.5 -11.5t26 -28t36.5 -36.5t48.5 -36.5t60.5 -28t74 -11.5q24 0 47 3.5t42 13t30.5 25t11.5 39.5q0 55 -28 90.5t-70 57.5t-91 34.5t-91 22t-70 19.5t-28 27q0 2 1 4q0 1 1 3q2 4 11.5 13.5t13.5 11.5q14 3 40 8t56.5 12
t62 17.5t57.5 24.5t42.5 32.5t16.5 42.5q0 20 -15 32.5t-35.5 19.5t-42 9.5t-34.5 2.5t-38 -1t-49.5 -4t-42.5 -8t-18 -13v-28q-30 0 -47 14.5t-17 44.5q0 13 7.5 23t19 17.5t24.5 11.5t25 4h188q31 0 56.5 -13.5t43.5 -35t28 -49t10 -54.5t-18 -45t-39.5 -33t-39.5 -29.5
t-18 -34.5q0 -1 1 -3t1 -3q40 -15 76.5 -39t64 -56t44 -71t16.5 -84q0 -40 -17.5 -68.5t-45.5 -47t-62.5 -27t-68.5 -8.5q-32 2 -61.5 5.5t-64.5 19t-81.5 47.5t-112.5 92z" />
    <glyph glyph-name="four" unicode="4" horiz-adv-x="550" 
d="M395 289q-19 -10 -41.5 -25t-47.5 -28t-50.5 -20.5t-49.5 -2.5q-51 0 -85.5 28.5t-56 70t-31 89t-9.5 85.5q0 43 4 77.5t12 67t20 67t28 77.5q2 14 14.5 21t27 7.5t25.5 -5t9 -17.5q0 -34 -12 -69t-27 -71t-27 -73t-12 -75q0 -27 7.5 -59t22.5 -59.5t38.5 -46t55.5 -18.5
q44 0 80 21.5t65 53.5t50.5 70t36.5 70t23 53.5t10 21.5q31 0 40 -10.5t9 -28.5q0 -27 -6 -60t-13 -66.5t-13 -66.5t-6 -60q0 -32 4.5 -63t9.5 -62t9.5 -62t4.5 -61q0 -26 -16.5 -44.5t-42.5 -18.5q-17 0 -24.5 21.5t-10 54t-2.5 70.5t-1 70.5t-5.5 54t-16.5 21.5z" />
    <glyph glyph-name="five" unicode="5" horiz-adv-x="763" 
d="M24 188q-2 37 8.5 61t23 26t21 -23.5t4.5 -88.5q0 -13 17 -24t43 -19.5t57 -15t58.5 -10.5t48 -6t26.5 -2q43 0 87 8t79.5 27.5t58 53t22.5 83.5q0 55 -19.5 92.5t-52 62.5t-74.5 39t-87 23t-89 14t-81 11q-8 11 -11 19t-3 19q0 2 1 6.5t1 5.5q6 10 20.5 37t30.5 57
t30 56.5t19 37.5q1 1 2.5 6t3.5 11t4 11.5t2 8.5q0 2 -0.5 6.5t-0.5 6.5h-29q0 26 14 42.5t36.5 26t51 14t57 5.5t54 0.5t42.5 -0.5q26 0 57.5 1.5t62.5 -2t59 -14.5t46 -36q0 -1 0.5 -3t0.5 -3q0 -5 -4.5 -10.5t-10.5 -10t-12.5 -7.5t-10.5 -3q-3 0 -14 2t-24 4t-23.5 4
t-13.5 2t-20 0.5t-38 1l-42 1t-33 0.5q-8 0 -23 -0.5t-29.5 -1t-26 -1t-13.5 -0.5l-38 -12q-4 -22 -16 -49t-25.5 -54t-24 -52.5t-10.5 -44.5q0 -2 0.5 -7t0.5 -6q72 -12 139.5 -36t120 -64.5t84.5 -100.5t32 -143q6 -48 -17.5 -89t-62 -72t-86 -49t-90.5 -21
q-31 0 -70.5 1.5t-81 8t-80.5 18.5t-70 32.5t-50 52t-19 75.5z" />
    <glyph glyph-name="six" unicode="6" horiz-adv-x="588" 
d="M24 276q0 51 16.5 108.5t45.5 114t69 108.5t87.5 93.5t100 68t107.5 31.5q13 1 30 -2t33 -10.5t27 -20t11 -29.5q0 -7 -2 -16t-6 -17t-10 -13.5t-14 -5.5q-3 0 -12.5 5.5t-20 12.5t-20.5 13t-16 8h-6q-25 0 -57.5 -14.5t-66.5 -38t-67 -54.5t-58.5 -63.5t-41 -64.5
t-15.5 -59v-6q27 9 48 14.5t41 8t40.5 3t46.5 0.5q51 0 94.5 -17t75 -47.5t49.5 -73.5t18 -94q0 -60 -27.5 -102t-71 -68.5t-97.5 -38t-106 -11.5q-60 0 -102.5 24t-70 63t-40 88.5t-12.5 101.5zM88 250q16 -81 62.5 -120t118.5 -44q36 0 72.5 6.5t66.5 23t49 45.5t19 73
q0 24 -15 51.5t-37.5 50.5t-49.5 38.5t-50 15.5q-47 0 -91 -8.5t-78 -26t-53 -44t-14 -61.5z" />
    <glyph glyph-name="seven" unicode="7" horiz-adv-x="550" 
d="M238 38q19 71 33 135t14 136q-42 0 -89.5 3.5t-86.5 3.5q-14 26 -10 40t20 20.5t40 7t50 0t50.5 -0.5t40.5 5l2 4t4 10t4 12.5t3 10.5q7 26 11 49.5t4.5 48.5t-0.5 52.5t-3 62.5q-24 2 -58.5 1t-71 -2t-70.5 0.5t-56.5 9t-29.5 23t10 43.5q25 -3 67.5 -6.5t91.5 -5.5
t100 -3t92 2v-18.5t0.5 -28.5t0.5 -28.5v-18.5q0 -57 -6 -111t-6 -110q15 0 38.5 0.5t45.5 -4.5t37.5 -17.5t15.5 -37.5q0 -13 -4 -26.5t-21 -13.5q-14 0 -27 4.5t-25.5 10t-25.5 10t-28 4.5q-5 0 -12.5 -0.5t-7.5 -1.5l-62 -288q-4 -16 -15 -21t-23 -5q-16 0 -24 12.5
t-13 26.5z" />
    <glyph glyph-name="eight" unicode="8" horiz-adv-x="500" 
d="M63 288q14 27 36.5 53.5t50.5 58.5v3q0 1 0.5 1.5t0.5 1.5q0 2 -0.5 3.5t-0.5 3.5q-18 15 -40.5 31t-42 34t-32.5 38.5t-11 46.5q-8 15 -1.5 37t22 45.5t38 46t47.5 39.5t49.5 26.5t44.5 6.5q24 0 53 -8.5t53.5 -25t41.5 -39.5t17 -52q0 -34 -18 -62t-39 -53.5t-39 -51
t-18 -53.5q0 -15 14 -30.5t35 -33.5t45.5 -38.5t45.5 -45.5t35 -55t14 -66q0 -69 -40.5 -110t-109.5 -41q-52 0 -103.5 23.5t-90 63t-56 92t-1.5 110.5zM136 230q0 -33 14 -64t37.5 -54t54 -37t64.5 -14q14 0 30.5 4.5t30.5 13.5t23.5 22t9.5 30q0 38 -16 73t-41 64.5
t-56.5 53.5t-61.5 41q-1 0 -5.5 1t-6.5 1q-14 0 -27.5 -16.5t-24.5 -39t-18 -45t-7 -34.5zM88 575q-4 -18 9.5 -36t33.5 -33t40 -26.5t29 -16.5q6 5 20.5 18.5t29.5 29.5t27 32t12 26q13 12 18.5 30.5t0 36.5t-25.5 31.5t-58 15.5q-26 0 -47 -11t-38.5 -27t-30 -35
t-20.5 -35z" />
    <glyph glyph-name="nine" unicode="9" horiz-adv-x="401" 
d="M13 588q0 43 13.5 81.5t38 68t59.5 46.5t79 17q36 0 69.5 -13.5t59.5 -37.5t41.5 -56t15.5 -69q-11 -53 -19.5 -115t-13.5 -124.5t-7.5 -122t-2.5 -107t2 -80.5t6 -42q0 -15 -14.5 -19.5t-36.5 -4.5q-15 0 -20.5 27.5t-6.5 69t0.5 90t2 90.5t-2.5 70.5t-13 30.5
q-47 7 -91.5 15t-80 27.5t-57 56t-21.5 101.5zM87 598q0 -24 7.5 -48.5t21.5 -44t35 -32t48 -12.5q14 0 27.5 1.5t24.5 12.5q1 15 9 45.5t17.5 63t17 59t7.5 32.5q0 13 -10 24.5t-23.5 20.5t-29 14t-25.5 5q-65 0 -96 -39t-31 -102z" />
    <glyph glyph-name="colon" unicode=":" horiz-adv-x="113" 
d="M25 131q0 15 12 24t26 9q16 0 21 -9t5 -24q0 -19 -7.5 -25.5t-26.5 -6.5q-30 0 -30 32zM24 419q0 11 3 21t17 10q12 0 23 -7.5t19 -19t12 -24.5t2 -24q0 -2 -9.5 -11.5t-15.5 -13.5q-2 -1 -3 -1h-3q-11 0 -19.5 7.5t-14 18.5t-8.5 23t-3 21z" />
    <glyph glyph-name="semicolon" unicode=";" horiz-adv-x="173" 
d="M-20 -205q0 43 10.5 70.5t24 52.5t27.5 52t21 68q2 12 2.5 32.5t2.5 42.5t9 42.5t23 32.5q27 -17 33 -44t6 -55q0 -22 -4.5 -55.5t-12.5 -70.5t-20 -74t-27.5 -67t-34 -48.5t-40.5 -18.5q-9 0 -13 4t-5.5 10t-1.5 13v13zM25 500q-1 16 12.5 19t29 0t27 -9.5t6.5 -9.5
q10 -26 11.5 -43.5t-2.5 -28.5t-12 -17.5t-16 -10.5q-18 0 -30 9t-18.5 23.5t-8 32.5t0.5 35z" />
    <glyph glyph-name="less" unicode="&#x3c;" 
d="M101 238q1 1 20 14.5t48.5 34.5t66 46.5t73.5 51.5t71 49.5t58 40.5q29 20 67.5 40.5t70.5 34.5q3 -2 8.5 -6.5t11.5 -10.5t10.5 -11.5t6.5 -8.5q0 -1 -16 -12.5t-40.5 -28.5t-54 -36.5t-55.5 -37.5t-46 -31t-25 -17q-28 -19 -59.5 -38.5t-63.5 -40.5t-61.5 -45
t-53.5 -51q3 -6 19.5 -11.5t39.5 -11t50.5 -10.5t51.5 -8.5t41.5 -6t22.5 -2.5q11 -2 30.5 -4.5t42 -7.5t45.5 -11.5t42 -16.5t31 -23.5t12 -30.5q0 -31 -34 -31q-13 0 -26.5 4.5t-27 11l-27 13t-25.5 9.5q-13 3 -54 7t-93.5 10.5t-107.5 14.5t-96.5 19.5t-61 26.5t-0.5 34z
" />
    <glyph glyph-name="equal" unicode="=" horiz-adv-x="700" 
d="M25 225q0 3 5 8t8 5q55 4 98 6.5t82 4t78.5 2t88.5 0.5q22 0 58.5 2.5t73.5 0.5t67.5 -14t40.5 -40l-50 -25h-475q-17 0 -31 1t-23.5 5.5t-15 15t-5.5 28.5zM528 451q-29 0 -60.5 -4.5t-81 -8.5t-124.5 -6t-191 4q-15 0 -31 6t-16 27q10 16 37.5 25.5t66.5 14t87 5.5
t99 1t102 -1t97 0q19 0 45 -0.5t49 -7.5t39.5 -22.5t16.5 -45.5q0 -2 -10 -11.5t-15 -13.5q-2 -1 -3 -1q-2 -1 -4 -1q-14 0 -26 6t-24 13.5t-25 14t-28 6.5z" />
    <glyph glyph-name="greater" unicode="&#x3e;" horiz-adv-x="538" 
d="M37 45q3 12 25 31.5t56 43.5t74.5 52t80 56t73.5 55t54 50t22.5 40.5t-21.5 26.5q-24 1 -58 9t-72.5 21.5t-77.5 31t-71.5 36.5t-55 39t-28.5 38q0 1 -0.5 6t-0.5 7q0 16 12.5 21t26.5 5q21 0 35.5 -9t28 -21.5t27.5 -25.5t34 -20q34 -13 71 -26t75.5 -25t77 -21.5
t76.5 -15.5q20 -7 23 -19t3 -28q5 -23 -2.5 -42t-22 -35.5t-32 -32t-32.5 -30.5q-7 -6 -36.5 -28t-69 -51t-84.5 -62t-84 -60t-65.5 -45t-30.5 -18q-22 0 -26.5 14t-4.5 32z" />
    <glyph glyph-name="question" unicode="?" horiz-adv-x="363" 
d="M237 50q0 23 14 37t37 14q22 0 30.5 -19.5t8.5 -37.5q0 -15 -10 -29.5t-29 -14.5q-26 0 -38.5 13.5t-12.5 36.5zM101 500q0 39 12 75.5t30 72t39.5 70t39.5 70t30 73.5t12 80q0 67 -37 100.5t-103 33.5q-25 0 -54.5 -13.5t-43.5 -36.5q-8 1 -11 8t-4 14.5t0 14.5t1 9
q0 21 13 35.5t32.5 24.5t41.5 14.5t39 4.5q49 0 86.5 -20t63 -52.5t38.5 -74t13 -84.5q0 -50 -17 -103t-41.5 -104.5t-53 -99.5t-51.5 -87q2 -6 6.5 -11.5t17 -11t36.5 -11t65 -10.5q6 0 11 -5t8.5 -12t5 -14.5t1.5 -13.5q0 -12 -9 -17t-21.5 -7t-25.5 -1.5t-20 0.5
q-20 0 -46 3.5t-49 13t-39 27t-16 45.5z" />
    <glyph glyph-name="at" unicode="@" horiz-adv-x="1088" 
d="M500 0q-107 45 -194 110.5t-149 150t-96.5 188t-36.5 224.5q0 62 17.5 124.5t49.5 119.5t77 107t99 86.5t115.5 57.5t127.5 21q63 0 136.5 -27t143.5 -69t129 -93t94 -100q13 -18 20.5 -46t11.5 -58t5 -58.5t1 -49.5q0 -31 -4 -69t-14 -76.5t-26 -75.5t-40 -65.5t-56 -46
t-73 -17.5q-38 0 -70 23.5t-55 51.5q-19 -23 -44.5 -47.5t-54.5 -44.5t-61.5 -33t-64.5 -13q-47 0 -84 18t-63.5 48.5t-40.5 70t-14 81.5q0 67 23.5 129.5t66 110.5t101 77t129.5 29q14 0 37 -4.5t48.5 -13t51.5 -21t47.5 -28t34.5 -33.5t13 -39q0 -18 -11.5 -35.5
t-26.5 -26.5q-19 32 -39.5 57.5t-45.5 43.5t-56 27.5t-70 9.5q-59 0 -103.5 -25t-75 -65t-46 -90.5t-15.5 -102.5q0 -62 32 -102.5t100 -40.5q25 0 52.5 12t52.5 30t45.5 40t31.5 43q-1 4 -2.5 19.5t-2 36.5t1 44.5t7.5 43t17 32.5t29 13t29 -13t16.5 -32.5t7 -43t1 -44.5
t-2 -36.5t-1.5 -19.5q2 -3 12 -14.5t22.5 -23t27 -19.5t25.5 -5q36 10 62 44t43 76t25 84t8 69q3 72 -20 131t-63 105.5t-92.5 81.5t-107.5 59.5t-109 39.5t-96 22q-81 -6 -158 -46.5t-136.5 -102.5t-95.5 -139.5t-36 -157.5q0 -70 21 -143t58 -141.5t88.5 -129.5
t113 -106.5t130 -72t140.5 -26.5q48 0 94.5 10.5t92 22.5t91 22.5t91.5 10.5q13 -23 -2 -42.5t-50.5 -35t-87 -26.5t-110.5 -17.5t-122.5 -7.5t-121.5 3z" />
    <glyph glyph-name="A" unicode="A" horiz-adv-x="750" 
d="M611 30q0 22 4.5 45t9.5 45.5t9.5 45.5t4.5 47q0 36 -3 78t-14 80q-38 -7 -76 -5t-76.5 7t-77.5 10.5t-78 5.5q-11 0 -36.5 -0.5t-52 -2t-48.5 -4t-27 -7.5l-12 -12q0 -1 -0.5 -5.5t-0.5 -11t-0.5 -13t-0.5 -10.5q0 -38 6 -76t13.5 -75.5t13.5 -74t6 -72.5v-12
q-19 -18 -35 -12t-28.5 28.5t-21 58.5t-13.5 78t-5.5 86.5t3.5 85.5q-3 3 -10.5 11.5t-15.5 18.5t-15 19t-9 13q-1 2 -1 3v3q0 9 5 13t11.5 6.5t13 4.5t9.5 8v6.5v11.5v11.5v7.5q5 55 8.5 116t12.5 121t26 114.5t48 96.5t79.5 66.5t121.5 24.5q77 0 133.5 -47.5t96 -122.5
t64 -167t38 -181.5t18.5 -166t5 -120.5q0 -24 -0.5 -44t-2 -39.5t-4 -40t-7.5 -47.5q-11 -14 -27 -26.5t-35 -12.5q-17 0 -22 8.5t-5 22.5zM581 424q4 0 9.5 1t10 6.5t8 18t5.5 36.5q0 38 -7 87.5t-21.5 101t-37 101.5t-54 88.5t-72 62.5t-91.5 24q-54 0 -90.5 -28
t-59.5 -73t-35 -101.5t-17 -112t-5.5 -105t-0.5 -81.5z" />
    <glyph glyph-name="B" unicode="B" horiz-adv-x="988" 
d="M400 38q-3 1 -20 10t-36 22t-33 27.5t-11 27.5q5 15 16 21t22 11t19 13.5t6 29.5q-22 155 -40 274.5t-38 200.5t-45 122.5t-59 41.5q-1 0 -1.5 -0.5t-1.5 -0.5h-3q-10 -7 -28 -14t-38.5 -13.5t-39.5 -12.5t-31 -10q-2 0 -6.5 -1t-6.5 -1v39q0 12 23.5 24.5t59.5 23.5
t79.5 20.5t83 16.5t70.5 11t42 4q24 0 56.5 -5.5t68 -16t70 -26.5t62 -37t44.5 -47t17 -57q0 -34 -14 -62t-31.5 -50.5l-31.5 -40.5t-14 -33q0 -2 26 -15t65.5 -35.5t85 -54.5t85 -71.5t65.5 -86.5t26 -99q0 -54 -24 -90.5t-61.5 -58t-83.5 -31t-90 -9.5q-43 0 -76 2
t-66 6.5t-71 12t-91 18.5zM438 193q-17 -26 -10 -46t28.5 -33.5t53 -22.5t63 -13.5t58 -5t39.5 1.5q39 0 76 3.5t65.5 17t46 40t17.5 71.5q0 63 -33.5 106t-83.5 72.5t-108.5 49.5t-108.5 38t-83.5 37t-33.5 47q0 15 15 23t38 14.5t49.5 14t49.5 20.5t38 34.5t15 56.5
q0 28 -16 50.5t-40 38t-52 23.5t-52 8q-37 0 -76 -8.5t-68 -30.5q15 -66 35 -145.5t37 -161t29 -159.5t12 -141z" />
    <glyph glyph-name="C" unicode="C" horiz-adv-x="688" 
d="M24 360q0 51 17 108.5t47 113.5t71.5 107t90 89.5t103 61.5t110.5 23q32 0 47.5 -23.5t15.5 -51.5q0 -16 -7 -39t-19.5 -44t-29 -36t-35.5 -15q0 13 4.5 25t10 23.5t10 23.5t4.5 25q0 18 -15.5 21.5t-29.5 3.5q-2 0 -9.5 -0.5t-9.5 -0.5q-60 -23 -116.5 -61t-100.5 -88
t-70.5 -111t-26.5 -129q0 -45 8.5 -97.5t29.5 -97.5t56.5 -75t89.5 -30q45 0 88.5 8.5t86.5 18t86.5 18t88.5 8.5q11 0 21 -3t10 -17q0 -7 -8.5 -16t-19 -18t-21 -15t-14.5 -7l-300 -63q-2 0 -11 -0.5t-14 -0.5q-43 0 -78 17t-61.5 45.5t-45.5 66t-31 77.5t-17.5 80t-5.5 75
z" />
    <glyph glyph-name="D" unicode="D" horiz-adv-x="988" 
d="M324 80q0 11 3 22t17 11q6 0 32.5 -7t58.5 -16t61.5 -17t41.5 -10h6q57 0 116 22t107 60.5t78.5 90.5t30.5 112q0 47 -18 92t-49 86t-71.5 76.5t-86 64t-92.5 47.5t-90 27q1 -84 13.5 -157.5t25 -142t19.5 -133t-1 -130.5q0 -8 -0.5 -17t-3.5 -17t-9.5 -13.5t-18.5 -5.5
q-20 -10 -30 8t-15 55.5t-6.5 88.5t-4 105.5t-8 108.5t-17.5 97q-2 16 -6 41t-10.5 51.5t-15 49t-18.5 33.5q-93 0 -149.5 -5.5t-89 -13.5t-48 -16.5t-26.5 -14.5q-2 -1 -3 -1q-2 -1 -4 -1t-3 1q-1 0 -2 1q-2 2 -6.5 16t-6.5 21v6q0 17 19 30t47.5 22t62 15t63 9t49.5 4.5
t22 1.5q67 0 142 -15t149 -43.5t141 -70.5t118.5 -97t82 -122.5t30.5 -145.5q0 -72 -22.5 -129.5t-61.5 -100.5t-91 -72t-110.5 -43t-120 -14t-120.5 15q-11 4 -28.5 10.5t-33.5 16.5t-27.5 23t-11.5 30z" />
    <glyph glyph-name="E" unicode="E" horiz-adv-x="700" 
d="M122 741q-6 0 -9 1q6 -12 6 -17v-237q7 -10 38 -10t74 5t91.5 13t90 15t69.5 11.5t31 2.5q4 0 15 1t23.5 2t23.5 1.5t15 0.5q0 -24 -20 -40.5t-52.5 -27.5t-75 -18t-86.5 -11.5t-86.5 -7t-76.5 -5.5t-56 -7.5t-24 -12.5q-7 -21 -10 -46.5t-4 -52.5t-0.5 -53t0.5 -48
v-17.5t0.5 -26.5t0.5 -26.5v-16.5q5 -14 22.5 -20t38 -7.5t40 -0.5t28.5 1q44 0 88 4t88.5 9.5t88 9.5t87.5 4h7q3 -1 8.5 -2.5t11.5 -3.5t10.5 -4t6.5 -3q3 -1 8 -5.5t5 -6.5q0 -24 -27.5 -40.5t-69 -26.5t-91.5 -14.5t-94.5 -6t-78 -1.5h-42.5q-52 0 -91.5 8.5t-66 30.5
t-40 58.5t-13.5 92.5q0 51 7.5 100t7.5 101q0 21 -7 35t-7 31v7q2 2 9 12t10 13v287q0 21 5 31.5t22 14.5t49 3t87.5 -3.5t137 -4.5t196.5 0q13 -5 26.5 -11t24 -14.5t17.5 -20.5t7 -29q0 -4 -5 -9t-7 -4l-63 25z" />
    <glyph glyph-name="F" unicode="F" horiz-adv-x="687" 
d="M252 24q-12 53 -15 82t-3.5 53.5t-2 54t-10.5 82.5q-4 26 -18 35t-32.5 10t-39 -2.5t-38 -3t-28.5 9t-11 32.5q0 3 5 8t8 5q24 2 46.5 2.5t40 7.5t28 23t10.5 48q-10 63 -9 110t-3.5 76.5t-22 41t-65.5 4.5h-17.5t-26.5 -0.5t-26.5 -0.5h-17.5q-3 -2 -12.5 -6.5
t-12.5 -5.5q-2 -1 -3 -1q-2 -1 -4 -1t-3 1q-1 0 -2 1q-2 2 -6.5 11.5t-6.5 13.5v6q18 17 63.5 32t108 25.5t137 16t150 4t146.5 -10.5t127 -27t92 -46.5t41 -68.5q-41 0 -81 10.5t-80.5 23t-81.5 23t-85 10.5q-9 0 -30 1t-47 1.5t-53.5 -1.5t-50.5 -8t-37.5 -17t-14.5 -29
q0 -20 -2.5 -54t-1.5 -69.5t9 -67t28 -44.5h10t15 -0.5t15 -0.5h10q146 12 209.5 -2t54 -36t-88.5 -40.5t-218 -15.5q2 -59 5 -91.5t6 -51t6.5 -29.5t6.5 -26.5t5.5 -41.5t5.5 -74q-38 6 -61 4t-20 4z" />
    <glyph glyph-name="G" unicode="G" horiz-adv-x="763" 
d="M619 59q-4 0 -15.5 0.5t-15.5 0.5q-38 0 -75 -8t-75 -18t-77 -18t-79 -8q-54 0 -98.5 19t-75.5 52.5t-48 80t-17 100.5q0 57 25 111t66 101t95.5 87t112.5 69.5t117 47t110 21.5q27 2 50.5 -4t41 -19.5t27.5 -33.5t10 -46q-18 0 -35 4.5t-34 10t-35 10t-37 4.5
q-48 0 -99.5 -14.5t-101.5 -40.5t-95 -61.5t-79.5 -79t-54.5 -92.5t-20 -101q0 -37 18 -65t45.5 -47t60.5 -28.5t63 -9.5q58 0 118 2.5t109.5 19t81 51.5t31.5 100q0 8 -2.5 24.5t-12.5 27.5h-237q-10 0 -19.5 5.5t-16.5 13.5t-11.5 18t-4.5 18q0 11 3 22t17 11
q13 0 25.5 -4t25.5 -9.5t26 -9.5t27 -4q46 0 90.5 7.5t90.5 7.5q11 0 22.5 -5.5t21 -14t15.5 -20t6 -23.5v-325q3 -2 9.5 -7.5t13.5 -11.5t13 -11.5t8 -7.5q3 -8 -1.5 -17t-12 -16.5t-17.5 -12.5t-18 -5q-27 0 -42.5 17t-23 41t-9 50t-1.5 43z" />
    <glyph glyph-name="H" unicode="H" horiz-adv-x="700" 
d="M475 438q-11 -6 -34.5 -16.5t-53 -24.5t-62.5 -29t-62.5 -28.5t-53 -24t-34.5 -15.5l3 -261q0 -4 -9.5 -13.5t-15.5 -11.5q-20 -5 -28.5 16t-12 55t-5.5 73.5t-9.5 71.5t-24 50t-48.5 8q-1 2 -2.5 9t-1.5 9q0 16 8.5 22t19 10.5t19 11.5t8.5 26q0 52 -4 103.5t-9.5 102.5
t-9.5 102.5t-4 103.5v13t0.5 18.5t0.5 18.5v12q4 11 10.5 12.5t14.5 1.5q7 0 15.5 -1.5t9.5 -12.5l50 -437q0 -3 5 -13t8 -12h5h7q6 1 21 5t53.5 20.5t108.5 49.5t186 91l6 296q0 8 5 17t12.5 16.5t16 12.5t16.5 5q11 0 18 -4.5t7 -21.5q0 -4 -5 -13.5t-7 -11.5
q0 -5 -0.5 -18.5t-0.5 -28.5t-0.5 -28.5t-0.5 -18.5q0 -111 3 -222t11 -221q1 -12 4.5 -45.5t7.5 -71.5t7.5 -72t5.5 -49q0 -2 1.5 -7.5t4 -11.5t4.5 -11.5t3 -6.5v-8v-5q-3 -2 -8.5 -6t-11.5 -8t-11 -7.5t-7 -3.5q-18 -4 -29.5 15.5t-18.5 46t-10 52.5t-4 36q0 1 -0.5 19.5
t-2 47t-3.5 63.5t-4.5 70t-5.5 66.5t-6 52.5z" />
    <glyph glyph-name="I" unicode="I" horiz-adv-x="225" 
d="M125 50q-7 48 -12.5 100.5t-11 106t-11.5 106t-15 100.5q-4 20 -13 52.5t-18.5 69.5t-16.5 75t-7 69q16 21 31.5 8.5t31 -49t30 -91.5t27.5 -118t23.5 -128.5t18.5 -124t13 -104.5t6 -69v-16t-2 -15t-7.5 -13t-16.5 -9q-8 -2 -16.5 5t-15.5 16t-12 18t-6 11z" />
    <glyph glyph-name="J" unicode="J" horiz-adv-x="587" 
d="M423 -1q-54 11 -99.5 39.5t-86 67t-77.5 83t-73 86.5q-10 13 -20.5 26t-19 29t-14 35.5t-5.5 44.5q0 23 17.5 42.5t46.5 20.5q14 -8 10 -16.5t-10 -21.5v-6q0 -34 17.5 -74t45.5 -79.5t64 -76t74 -64.5t74 -44.5t64 -16.5q15 0 25.5 17.5t17 44.5t9.5 59t4 60.5t1 50.5
v28v20t-0.5 25.5t-0.5 22v11.5l-69 488q15 40 30 36t28.5 -37t26 -88t22.5 -118.5t18 -128t13 -116t6.5 -83t-0.5 -28.5q1 -21 0.5 -54t-4.5 -70.5t-12.5 -76t-24.5 -69t-40 -50t-58 -19.5z" />
    <glyph glyph-name="K" unicode="K" horiz-adv-x="625" 
d="M513 13q-21 17 -53 38.5t-69 46t-76 51t-74 52.5t-63 51t-42 47q-6 -23 -4 -54.5t6.5 -65t10 -66t6 -58.5t-6.5 -42t-26 -16q-18 0 -29.5 26.5t-18 66.5t-9 88t-3 91.5t0 76t0.5 42.5q-2 42 -8.5 88t-13 92.5t-12 91.5t-5.5 85q0 2 2.5 7.5t6.5 11.5t9.5 10.5t11.5 4.5
q11 0 17 -8t9 -19t4.5 -22t3.5 -17q6 -21 9 -49.5t5.5 -61t5.5 -67t8 -66.5q17 18 40 48t50.5 65t57.5 71t61.5 64.5t63 46.5t61.5 17q9 -9 5 -21.5t-16 -27.5t-29 -32.5t-35 -36.5q-27 -32 -59.5 -66.5t-64 -68.5t-58.5 -67t-44 -61q37 -51 83 -94t97 -81.5t105 -73.5
t107 -69q24 -7 38 -26.5t12.5 -35.5t-20 -21.5t-58.5 14.5z" />
    <glyph glyph-name="M" unicode="M" horiz-adv-x="713" 
d="M588 25q-2 13 -5 41.5t-7 64.5t-8 75.5t-7.5 75t-6.5 64t-4 42.5q-2 12 -2 32.5t-3 41t-10 38t-22 25.5q-48 -26 -93.5 -38.5t-99.5 -12.5q-77 0 -153 94q-6 0 -8 -7.5t-3 -18.5t-0.5 -22.5t0.5 -19.5l-1 -436q0 -8 -4.5 -13t-11.5 -8t-14 -4.5t-13 -1.5q-20 0 -27.5 17
t-10.5 35v186q0 86 7.5 169.5t7.5 169.5q0 26 -10 47.5t-22.5 41.5t-22.5 40.5t-10 44.5q0 26 27 26q32 0 54 -18.5t39.5 -47t33.5 -61t36.5 -61t48.5 -47t70 -18.5q52 -3 86.5 15.5t56.5 48t35.5 64t24.5 63.5t22 47t30 14q14 2 22 -7t11.5 -21.5t4 -26t0.5 -19.5
q0 -49 -7.5 -93.5t-7.5 -95.5q0 -66 10 -132t22 -131.5t22 -130.5t10 -131q0 -22 -11 -25t-26 -3q-17 0 -30.5 3.5t-19.5 24.5z" />
    <glyph glyph-name="N" unicode="N" horiz-adv-x="813" 
d="M38 79q0 61 4 122t9 121.5t9 121t4 120.5q0 34 -6.5 65.5t-6.5 64.5v6q3 1 10 3t15 4t15 3.5t10 2.5h12q11 -47 28 -111.5t42.5 -133t59 -135.5t77.5 -119.5t99 -84t123 -30.5q40 0 70 13.5t50 37.5t30 56.5t10 71.5q0 51 -20 94.5t-44 84t-44 81t-20 87.5q0 17 4 28
t23 11q21 0 42 -23t40.5 -60t36.5 -82t29.5 -89t20 -81.5t7.5 -59.5q0 -56 -18 -102.5t-51 -81t-79.5 -53.5t-102.5 -19q-61 0 -110 24t-87.5 60.5t-68 78.5t-50.5 78.5t-35.5 60.5t-23.5 24q-17 0 -25 -12t-11 -28t-3 -33v-27q0 -40 7.5 -76.5t7.5 -76.5q0 -9 -1.5 -23.5
t-6.5 -28.5t-13.5 -24.5t-23.5 -10.5q-13 0 -21.5 9t-13.5 22t-7 26.5t-2 22.5z" />
    <glyph glyph-name="O" unicode="O" horiz-adv-x="813" 
d="M24 363q-3 57 14.5 107t51 87.5t80 61t102.5 27.5q97 -15 186.5 -50t158.5 -89.5t111.5 -128t47.5 -163.5q-13 -68 -54 -107t-95.5 -60.5t-116 -31t-114.5 -17.5q-81 0 -149 26t-117.5 74t-77.5 115t-28 149zM86 369q-1 -60 25.5 -111.5t69.5 -91t96.5 -65t106.5 -33.5
q17 0 47.5 3t65.5 10.5t71 19.5t65.5 30t48 42t18.5 55q-8 64 -39 115t-75 90.5t-96 66.5t-103 43t-95.5 21t-72.5 0q-40 -15 -66 -37.5t-41 -49t-20.5 -54.5t-5.5 -54z" />
    <glyph glyph-name="P" unicode="P" horiz-adv-x="838" 
d="M400 0q-18 32 -30 84t-20 107.5t-13.5 105.5t-11.5 78v225q0 14 12 26.5t26 12.5q2 0 6.5 -0.5t5.5 -0.5q6 -35 8 -72t4.5 -73.5t8 -72.5t17.5 -70q21 -5 44.5 -7.5t55.5 -4.5q34 0 73.5 11t73.5 32t56.5 51.5t22.5 68.5q0 41 -27 73.5t-69.5 57.5t-95 42.5t-103 29
t-93 17t-66.5 5.5q-8 0 -29 1t-45.5 0t-48.5 -4t-37 -10q-12 -7 -21.5 -23.5t-19 -34t-19 -31t-21.5 -13.5q-2 0 -3 1q-1 0 -3 1t-4 4t-4 13.5t-3.5 30t-1.5 52.5q0 14 14.5 26.5t36.5 22t48.5 16.5t51 12t43 7.5t24.5 2.5q44 0 103.5 -5.5t122.5 -19t125 -36t110.5 -56.5
t78.5 -80.5t30 -108.5q7 -44 -15 -81t-60.5 -66.5t-87 -50.5t-94 -33.5t-81.5 -16t-50 3.5v-12q0 -45 7 -89.5t7 -89.5q0 -5 -1 -16.5t-5 -22t-12 -17t-21 -3.5z" />
    <glyph glyph-name="Q" unicode="Q" horiz-adv-x="857" 
d="M561 16q-5 0 -16 -0.5t-12 -0.5q-4 -1 -18.5 -3t-31.5 -4t-31.5 -4t-18.5 -2h-6q-78 -7 -149.5 19.5t-126 77t-86.5 119.5t-32 147v18q0 63 23 123t63.5 106.5t96 75t120.5 28.5q43 0 96 -21.5t107 -56.5t105 -81.5t90.5 -96.5t63.5 -100.5t24 -93.5q0 -35 -11 -64.5
t-30 -54t-44.5 -44.5t-53.5 -38v-13q0 -23 13.5 -41.5t34 -33.5t44.5 -27.5t45.5 -24.5t36 -23.5t15.5 -25.5q-28 -27 -53.5 -26.5t-50 16.5t-48.5 42.5t-49 51t-52 41.5t-58 15zM107 365q-5 -62 17.5 -113.5t63 -88t95 -57t113.5 -19.5h25.5t24.5 4t18 13t7 29
q-6 25 -22 50.5t-29.5 49.5t-17 44t14.5 34q20 0 42.5 -23.5t44 -54.5t42 -61.5t37.5 -44.5q2 0 9.5 -0.5t9.5 -0.5q17 0 43.5 11t51.5 28.5t43 38.5t18 42q0 28 -9 54.5t-23.5 51.5t-32.5 47t-35 41q-10 11 -26.5 28t-34 33t-31.5 27.5t-20 11.5q-2 -30 -11.5 -59
t-26.5 -54q-1 0 -3 -0.5t-3 -0.5h-3q-1 0 -3 1q-1 0 -6.5 3t-11.5 6.5t-11.5 6.5t-5.5 4q24 58 17 94t-31 57t-58.5 28.5t-66.5 8.5t-54.5 -2.5t-21.5 -5.5q-44 -15 -71.5 -43t-42.5 -63.5t-20 -75.5t-5 -80z" />
    <glyph glyph-name="R" unicode="R" horiz-adv-x="772" 
d="M258 289q9 -59 21 -107.5t19 -85t3 -58.5t-26 -28q-2 -8 -9.5 9.5t-18 52t-22 82.5t-22.5 102.5t-20.5 111t-15 108.5t-5.5 95.5t8 71.5q16 11 28 6t19 -18.5t9 -31t-1 -30.5q1 -6 4 -20t7 -30t8 -30t6 -20q19 2 54 6.5t77 13t85.5 20.5t79 28t58 36.5t22.5 45.5
q0 2 -0.5 6.5t-0.5 5.5q-37 42 -75 67t-79.5 38t-88.5 17t-101 4q-39 0 -81.5 -0.5t-78.5 -11.5t-59.5 -38t-23.5 -80q-11 0 -20.5 8t-16.5 19t-11 23.5t-4 21.5q0 19 8.5 35t21 29.5t28.5 24t31 18.5q42 8 74 13t61 8t58 4t65 1t77.5 -5.5t82 -17.5t78.5 -31t66.5 -45.5
t46 -61t17.5 -77.5q0 -39 -24 -67t-62.5 -49t-86 -35.5t-95 -25t-89.5 -19t-69 -17.5q65 -90 129.5 -153t120.5 -106t101.5 -70t74 -44.5t36.5 -29t-11 -23.5q-15 -18 -47 -8.5t-74.5 36t-91 66t-95.5 82.5t-89 84.5t-71 73.5z" />
    <glyph glyph-name="S" unicode="S" horiz-adv-x="838" 
d="M25 231q0 13 5.5 28.5t15 29t22 22.5t27.5 9q0 -84 30.5 -133t82.5 -75t121 -35t146 -14q27 1 68.5 2t80.5 9.5t66.5 28.5t25.5 60q0 19 -1 33t-6 25t-15.5 21t-30.5 21l-388 212q-21 12 -39.5 29.5t-32 38.5t-21.5 44.5t-8 47.5q0 49 27 81t66.5 51t85.5 26.5t85 7.5
q19 0 48 -3t61 -9.5t64 -17.5t57.5 -27t41.5 -38t16 -50q-28 -14 -56.5 -1.5t-60 33t-66.5 38t-75 13.5q-24 0 -63.5 -2.5t-77 -12t-64.5 -30t-27 -56.5q0 -35 25.5 -64.5t67 -56t94.5 -51t107.5 -49.5t106 -52.5t90 -59.5t59.5 -70.5t15 -84.5q-7 -47 -41 -80t-85.5 -52
t-115.5 -25t-132 0.5t-134 25t-121 48.5t-94 71.5t-53 92.5z" />
    <glyph glyph-name="T" unicode="T" horiz-adv-x="775" 
d="M411 724q-92 0 -188.5 12.5t-184.5 26.5q-11 -2 -18 4t-10.5 15t-4.5 18.5t-1 14.5q19 0 67 -0.5t114 -1.5t144 -4t156 -7.5t151 -12t129 -18t90 -24.5t34 -33q0 -14 -4 -27t-21 -13q-48 3 -94.5 15t-94 23t-96 15t-99.5 -10q0 -60 7 -131.5t17.5 -146.5t22.5 -149
t24 -140q3 -17 11.5 -33t17 -31.5t15.5 -30.5t7 -31q0 -11 -6.5 -16t-16 -7t-19.5 -2h-17q-26 0 -40.5 20.5t-22.5 49t-11 58.5t-6 48q-11 71 -18.5 138.5t-13 134.5t-10 135t-10.5 141z" />
    <glyph glyph-name="U" unicode="U" horiz-adv-x="763" 
d="M37 508q0 12 0.5 32.5t2.5 44.5t7.5 49t15 45.5t25 33.5t38.5 13q14 0 22 -8t9 -19.5t-6.5 -24.5t-24.5 -24q-11 0 -17 -17t-8 -38t-2 -40.5v-23.5q0 -33 2.5 -77.5t11 -92.5t23 -95t38 -85t58 -63.5t81.5 -29.5q25 -2 55 5t60.5 20.5t59.5 33.5t51 43.5t35.5 50
t13.5 53.5v6q-9 55 -18.5 91t-16.5 66.5t-11.5 61t-4.5 73.5q4 60 13.5 89t20.5 32.5t22.5 -15.5t20 -53.5t13 -81.5t2.5 -101q1 -40 14.5 -86.5t31 -93.5t35 -90.5t26.5 -77.5t5.5 -55t-28.5 -21t-38.5 16t-23 34.5t-18.5 34.5t-26 16q-19 0 -50.5 -22t-71 -48t-84 -48
t-90.5 -22q-56 0 -98 26.5t-72.5 70t-50.5 98.5t-31.5 111.5t-16.5 109.5t-5 93z" />
    <glyph glyph-name="V" unicode="V" horiz-adv-x="563" 
d="M24 670q0 14 10.5 17t20.5 3q16 0 31 -13.5t28 -35t24.5 -47.5t21.5 -52t18.5 -48t15.5 -35q4 -8 15.5 -33t26.5 -58.5t32 -71t31.5 -71t25.5 -59t15 -33.5q8 8 16.5 37t18 70.5t19 92t19 102t19.5 99t20 83.5t20.5 56.5t20.5 16.5q19 6 27 -18t7 -68.5t-10.5 -103.5
t-24 -123t-34 -127t-41 -115.5t-43.5 -89t-43 -46.5q-2 0 -9 0.5t-9 0.5q-4 9 -13.5 26.5t-20.5 39.5t-23.5 46.5t-23.5 46.5t-19.5 39.5t-12.5 26.5q-8 17 -24 51.5t-35.5 78.5t-40.5 92t-37.5 91.5t-27.5 78.5t-11 53z" />
    <glyph glyph-name="W" unicode="W" horiz-adv-x="938" 
d="M432 151q-1 0 -1.5 -0.5t-1.5 -0.5h-3q-57 -51 -92.5 -79.5t-56 -42t-30 -16t-13.5 -2.5q-50 0 -85.5 28t-60 73t-38.5 101t-22 112t-11 106t-4 83v28t4 51.5t15 49.5t32 22q8 0 13 -24.5t8.5 -64t6.5 -90.5t8 -103.5t13.5 -103.5t22 -90.5t34 -64t49.5 -24.5
q23 0 44.5 13t39.5 31t33.5 37.5t26.5 32.5q8 18 11 42t4 48.5t0 47t-2 37.5q7 19 15.5 25.5t17 4t16.5 -14t13 -28.5q7 -42 24 -92.5t45 -94t68.5 -73t93.5 -29.5q30 0 60 12t54.5 32.5t40 47.5t15.5 58q0 50 -16 97t-35 93.5t-35 92.5t-16 94q17 38 37.5 32t40.5 -39
t38.5 -84.5t32 -104.5t21 -99t6.5 -68q0 -49 -21 -94t-56.5 -79.5t-82 -55.5t-96.5 -21q-39 0 -75.5 23.5t-66.5 52t-51.5 52t-31.5 23.5z" />
    <glyph glyph-name="X" unicode="X" horiz-adv-x="713" 
d="M26 -40q0 48 25.5 102t62.5 107t78 102.5t72 88.5q0 32 -24 71.5t-52.5 81t-52.5 82t-24 74.5q0 15 5 23.5t22 8.5q7 -1 19 -17t27.5 -39.5t31.5 -51t30.5 -52.5t26 -44t16.5 -25q13 -24 26.5 -34t39.5 2t70.5 51t121.5 114q8 8 31.5 22.5t49.5 23.5t47.5 6t26.5 -29
q-41 -25 -87.5 -58.5t-92 -70.5t-86.5 -76t-72 -76q12 -33 40 -74t60 -82.5t61.5 -80t45 -66t10 -40t-43.5 -1.5q-34 26 -63.5 61t-57.5 72t-56 72.5t-59 63.5h-6q-8 0 -21 -12t-28.5 -31t-32 -42t-31 -45t-26.5 -41t-17 -29q-8 -9 -18.5 -32.5t-22.5 -49.5t-24.5 -47
t-22.5 -24q-16 0 -20.5 11.5t-4.5 29.5z" />
    <glyph glyph-name="Y" unicode="Y" horiz-adv-x="538" 
d="M264 5v13.5t-0.5 21t-0.5 21v13.5q0 56 6 100t16.5 85.5t24 85t29.5 98.5q0 2 0.5 9.5t0.5 9.5q1 1 -23 13t-61 34t-80.5 54t-79 75t-57.5 96.5t-16 118.5q1 0 7 0.5t13.5 1t13.5 1t7 0.5q9 -26 25 -58.5t38.5 -66t50 -65.5t58 -57t64 -40t68.5 -15q24 52 38 82t21.5 47
t10 26t4 18.5t3 23.5t6.5 42q0 6 10 11t21.5 6.5t21 -2t10.5 -15.5q0 -72 -16 -136.5t-39.5 -126t-49.5 -122t-45.5 -124t-28 -132.5t3.5 -147q-8 -15 -16 -20.5t-21 -5.5q-14 0 -22 5.5t-16 20.5z" />
    <glyph glyph-name="Z" unicode="Z" horiz-adv-x="763" 
d="M225 94q0 32 19.5 61t43 56t43 54t19.5 54v6q-1 3 -5.5 12.5t-6.5 12.5h-9t-13 0.5t-13.5 0.5h-8.5q-38 0 -75 -8t-76 -8q0 18 6 37.5t26 27.5q43 13 81 19t69.5 10.5t56.5 12.5t43.5 25t30.5 47t17 81q0 47 -23 79.5t-58 52t-77 28t-80 8.5q-32 0 -59 -8t-51 -17.5
t-46.5 -17.5t-43.5 -8q-2 0 -6.5 5t-6.5 8v6q0 34 22.5 53t53.5 28.5t64 11.5t53 2q61 0 118.5 -11t102.5 -38t72.5 -73.5t27.5 -118.5q0 -21 -3.5 -35.5t-8 -27t-8 -26.5t-3.5 -33q0 -7 13 -10t32.5 -5t42.5 -3.5t42.5 -5.5t32.5 -12t13 -21q0 -1 -0.5 -3t-0.5 -3
q-8 -5 -20 -11t-25 -12t-26 -10t-23 -4q-5 0 -8.5 2t-6.5 4l-6 4t-9 2q-50 0 -87 -25t-66 -62.5t-52 -81.5t-46 -81q0 -2 -1 -9.5t-1 -9.5q0 -21 8.5 -26.5t28.5 -5.5q47 0 93 10t91.5 22.5t90.5 22.5t90 10q17 0 21.5 -9.5t4.5 -24.5t-3.5 -24.5t-22.5 -17.5
q-82 -29 -166.5 -46.5t-171.5 -17.5h-17.5t-26.5 0.5t-26.5 0.5h-16.5q-32 10 -47.5 36t-15.5 58z" />
    <glyph glyph-name="grave" unicode="`" horiz-adv-x="231" 
d="M115 714q15 -13 23.5 -21t16 -14.5t16 -14.5t23.5 -20q3 -2 8 -11.5t5 -13.5q0 -26 -9.5 -32t-27.5 -6q-2 0 -7 1.5t-17.5 10.5t-34.5 28.5t-58 54.5q-11 15 -20 31.5t-6.5 25.5t22 6.5t66.5 -25.5z" />
    <glyph glyph-name="acute" unicode="&#xb4;" horiz-adv-x="241" 
d="M12 556q0 27 21 52t50 47t59.5 41t50.5 36q28 -14 24.5 -32t-27.5 -43t-63.5 -57.5t-82.5 -75.5q-19 0 -25.5 6.5t-6.5 25.5z" />
    <glyph glyph-name="bracketleft" unicode="[" horiz-adv-x="638" 
d="M25 750v6q0 13 7 25t18 19q57 22 125.5 46.5t141 44.5t144 33.5t134.5 13.5h5q2 -2 6.5 -11t6.5 -14v-7v-6l-6.5 -6.5t-6.5 -5.5q-55 -12 -116 -26.5t-122.5 -31.5t-122 -37t-114.5 -43h-11q0 -12 4.5 -36t11.5 -51t15.5 -51.5t17.5 -36.5q27 -171 40.5 -286.5t22.5 -185
t17 -99t25 -29.5q75 0 150 7t151 7h23t36 -0.5t36 -0.5h24q12 -9 25 -25t13 -33q0 -1 -0.5 -1.5t-0.5 -1.5v-2q-2 -2 -11.5 -6.5t-13.5 -5.5q-38 1 -92.5 1.5t-113 0t-113.5 -4t-93 -10.5q-3 0 -10 -2t-15 -4t-15 -3.5t-10 -2.5q-2 -1 -7.5 -3t-11.5 -4.5t-12 -4t-7 -1.5
t-5.5 5t-6.5 8q-3 5 -8 19t-5 18q-1 8 -2.5 39t-3.5 67t-3.5 67.5t-2.5 39.5q-1 6 -4.5 26.5t-8 48.5t-10 60.5t-10.5 64t-9.5 58t-7.5 42.5q-1 1 -3 6.5t-4 11.5t-4 11.5t-2 7.5v13z" />
    <glyph glyph-name="backslash" unicode="\" horiz-adv-x="575" 
d="M438 113q-13 15 -38.5 47.5t-57.5 73t-67.5 85t-67 85.5t-57 73t-37.5 48q-6 8 -22.5 29.5t-33.5 48.5t-30.5 55t-13.5 48q0 11 8.5 15.5t16.5 4.5q2 0 25 -23.5t59.5 -63.5t82.5 -92t93.5 -109t93 -114.5t81.5 -108.5t57.5 -91.5t21.5 -62.5q0 -8 -4 -19.5t-11 -21.5
t-16.5 -16t-19.5 -4q-24 5 -32.5 17.5t-11.5 29t-5.5 34t-13.5 32.5z" />
    <glyph glyph-name="underscore" unicode="_" horiz-adv-x="875" 
d="M37 113q0 11 4.5 16.5t11.5 7.5t16 2h18q46 0 94 -10.5t95 -15.5h12q6 -1 25.5 -2t45 -2t54.5 -2.5t54.5 -3t45 -2.5t25.5 -1h24.5h42.5h52h52h42.5h24.5q29 -1 52.5 -15.5t23.5 -46.5q0 -14 -8.5 -26t-22.5 -12q-33 0 -84.5 2t-113 6.5t-128.5 10.5t-132.5 13.5
t-124.5 16.5t-103.5 19.5t-71 21.5t-26.5 23z" />
    <glyph glyph-name="a" unicode="a" horiz-adv-x="675" 
d="M24 220q1 23 13 51.5t37 55.5t62.5 48.5t89 30.5t117.5 1.5t147 -39.5q0 1 -1 13t-1 13q0 34 -19.5 68.5t-49.5 62.5t-66 46t-68 18q-14 0 -23.5 -4.5t-18 -9.5t-17.5 -9.5t-20 -4.5q-2 0 -3 1q-1 0 -3 1q-3 2 -7.5 6.5t-4.5 5.5q0 47 32 68.5t75 21.5q52 -5 99.5 -31.5
t86.5 -67.5t69.5 -93t50.5 -108.5t27.5 -114.5t0.5 -111q-1 0 -7.5 0.5t-14 1t-14 1.5l-6.5 1q-27 62 -61 99.5t-67 59t-61.5 30t-46.5 12.5q-19 0 -46 -2.5t-56.5 -9.5t-58 -17.5t-51.5 -26.5t-37 -38t-14 -50q0 -21 12 -37.5t31 -29t42.5 -21t47.5 -14t46 -8t37 -2.5
q36 0 70.5 4t69 9t69 9t68.5 4h9t13 -0.5t13.5 -0.5h8.5q11 -4 12.5 -11.5t1.5 -15.5t-16.5 -17t-42.5 -18.5t-57.5 -18.5t-61.5 -16t-55 -11.5t-37 -4.5q-54 0 -115 9t-112 33.5t-84.5 67t-33.5 110.5z" />
    <glyph glyph-name="b" unicode="b" horiz-adv-x="663" 
d="M38 625q-7 58 -15.5 98t-8 66t16 40.5t57.5 20.5q2 -14 6 -50t9 -82.5t11 -97t11.5 -92t11.5 -68t11 -24.5q24 0 47 7.5t48 7.5q39 0 83.5 -7t88.5 -22t84.5 -37.5t71.5 -52.5t49.5 -68.5t18.5 -85.5q0 -61 -30 -96.5t-75 -54t-98.5 -23.5t-101.5 -5q-65 0 -108 16
t-70.5 44.5t-41.5 66.5t-21 82.5t-10 93.5t-8 98q-1 6 -3.5 23t-6.5 40.5t-8.5 49.5t-8.5 49t-7 40t-3 23zM163 283q-13 -56 6.5 -98t58 -68.5t89 -37t99.5 -3.5t89.5 31.5t58.5 67.5q0 35 -16 63.5t-42 50.5t-59 38.5t-68 27.5t-68.5 16t-59.5 5q-43 0 -65.5 -25t-22.5 -68
z" />
    <glyph glyph-name="c" unicode="c" horiz-adv-x="600" 
d="M24 290q0 58 22.5 112t61 95.5t89.5 66.5t108 25q25 0 55 -5.5t56 -19t43 -35t17 -53.5q0 -6 -3.5 -21.5t-9 -31.5t-12.5 -28t-13 -12q0 31 -8.5 57t-25 45t-41 30t-57.5 11q-50 0 -88.5 -20.5t-64.5 -54.5t-40 -76.5t-14 -86.5q0 -59 20 -98.5t53.5 -64t78 -36t93 -15.5
t98.5 -2.5t96 3.5q4 0 13.5 -5t11.5 -7v-3q0 -2 0.5 -2.5t0.5 -1.5q0 -23 -28.5 -34.5t-65.5 -16.5t-71 -5.5t-46 -0.5q-75 0 -136 17t-103.5 52t-66 90t-23.5 132z" />
    <glyph glyph-name="d" unicode="d" horiz-adv-x="700" 
d="M24 296q0 48 12.5 101.5t39 99t68 75t100.5 29.5q31 0 63 -9.5t65 -26.5t69 -39.5t76 -49.5q5 52 -4 107t-23.5 108t-29.5 101t-22 85.5t-1.5 62.5t32.5 32q35 -26 60.5 -74t43.5 -110t29.5 -133.5t19.5 -144.5t13 -142t9.5 -126.5t10 -99t13.5 -57.5q0 -20 -14.5 -25.5
t-31.5 -5.5q-20 0 -30 19.5t-16.5 42.5t-14.5 42.5t-23 19.5q-2 0 -7 -1t-6 -2q-24 -35 -57.5 -66.5t-72.5 -55.5t-82.5 -38.5t-87.5 -14.5q-50 0 -87.5 32t-62.5 78t-38 97t-13 89zM105 272q13 -47 23.5 -82t25 -57.5t36 -33.5t54.5 -11q42 0 89 24.5t87.5 62t67 82.5
t26.5 87q0 4 -0.5 15.5t-0.5 15.5q-70 67 -127.5 96.5t-103 31t-79.5 -20t-56 -55.5t-32.5 -75.5t-9.5 -79.5z" />
    <glyph glyph-name="e" unicode="e" horiz-adv-x="688" 
d="M24 349q0 67 20 129t58.5 108.5t94.5 74.5t128 28q86 -11 127 -67t38 -136q0 -47 -27.5 -84.5t-69 -63t-90 -39t-90.5 -13.5q-16 0 -32 0.5t-28.5 5.5t-20.5 16t-8 31q0 6 2 10.5t10.5 6.5t26.5 0.5t50 -6.5q18 0 53 12t70.5 31.5t62 44.5t26.5 50t-9 50.5t-25.5 45.5
t-39.5 31.5t-51 9.5q-45 -4 -82.5 -25t-63.5 -54t-40.5 -73.5t-14.5 -83.5q0 -34 1.5 -68.5t10 -67.5t27.5 -62t54.5 -52t90 -38t135.5 -19l232 16q-21 -28 -52.5 -47t-66.5 -30t-71 -16t-66 -5q-75 0 -142 24.5t-118 70t-80.5 110t-29.5 144.5z" />
    <glyph glyph-name="f" unicode="f" horiz-adv-x="503" 
d="M439 414q28 0 25 -26q11 -15 -1 -26.5t-41 -18t-71.5 -5.5t-93.5 12q0 -33 11 -63.5t27 -58t35 -53.5t35 -51t27 -49.5t11 -49.5q0 -17 -9.5 -21.5t-24.5 -4.5q-14 0 -28 10t-26.5 24t-22.5 29t-15 26q-5 9 -15 29.5t-22.5 46.5t-26 54.5t-26 54.5t-22 46.5t-13.5 30.5
l-13 13q-7 -2 -25 -5.5t-37.5 -7.5t-37.5 -7.5t-25 -4.5h-7q-11 0 -15 7.5t-4 17.5q0 23 16 35t38 17t45.5 6.5t39.5 3.5q-3 39 -3.5 92t5.5 110t21 113t43 100t71 71t106 27q35 0 76.5 -17.5t77 -46t59.5 -64.5t24 -72h-30q-26 0 -46.5 19.5t-42 43.5t-46 43.5t-57.5 19.5
q-44 0 -80.5 -19.5t-62 -51.5t-39.5 -72.5t-14 -82.5v-13l25 -187q3 -1 14.5 -3.5t37 -5.5t67 -7t106.5 -8z" />
    <glyph glyph-name="g" unicode="g" horiz-adv-x="488" 
d="M-175 -362q-5 18 1 32.5t16.5 23.5t23 11.5t21 -3.5t10.5 -21.5t-9 -42.5q0 -30 24.5 -56.5t62 -49t83.5 -40.5t88.5 -30.5t76.5 -19.5t48 -7q32 0 55.5 17t39 44.5t25 62t15 69t7 66.5t1.5 55q0 10 -2 38t-6 64.5t-9 76t-11.5 72.5t-14 54.5t-15.5 21.5q-14 0 -30.5 -8
t-35.5 -17.5t-38.5 -17.5t-38.5 -8q-38 0 -72 15.5t-60 41t-41.5 59.5t-15.5 70q0 57 23 117.5t62.5 109.5t93.5 80.5t116 31.5q47 -13 76 -59.5t45.5 -114t23 -150.5t9.5 -169t5.5 -169t9.5 -150q0 -30 -3 -71t-11 -84t-22 -85t-36 -75t-53.5 -53.5t-73.5 -20.5
q-34 0 -81.5 8.5t-99 25t-102 41t-91 56.5t-65.5 71.5t-25 86.5zM99 233q0 -23 7.5 -45t21 -38.5t33.5 -26.5t45 -10q45 0 74 12t47 32t26.5 46.5t11.5 55t1.5 57t-3.5 53.5q0 18 -2.5 36.5t-10 34t-21 25.5t-35.5 10q-43 0 -79 -24.5t-61.5 -60.5t-40 -78.5t-14.5 -78.5z
" />
    <glyph glyph-name="h" unicode="h" horiz-adv-x="571" 
d="M428 23q3 33 5.5 70t3.5 74t1.5 72t0.5 64q0 42 -11 79.5t-33.5 65t-55.5 44t-78 16.5q-19 0 -32.5 -2.5t-26 -8t-27.5 -15.5t-36 -25q0 -2 -1 -9.5t-1 -9.5q0 -29 6 -76.5t12.5 -98.5t12.5 -99t6 -78v-11t-0.5 -17t-0.5 -17v-11q-8 -18 -19 -22.5t-26 -4.5
q-16 -3 -23.5 21.5t-12 71.5t-7.5 113.5t-9 145.5t-17.5 168.5t-31.5 183.5q-10 37 -16.5 62t-11 45.5t-8.5 41.5t-10 51v6q0 6 6.5 10.5t15.5 7.5t17.5 5t13.5 2q25 -65 40 -110t24 -77t13 -54.5t6 -43t3.5 -43t5.5 -53.5q68 40 123.5 45.5t98.5 -15.5t74.5 -62.5
t52.5 -93.5t32.5 -111t14 -113.5t-2.5 -101t-17.5 -74t-31 -32.5t-42.5 24z" />
    <glyph glyph-name="i" unicode="i" horiz-adv-x="233" 
d="M82 450v20t0.5 30t0.5 30v20q-6 40 24 40q14 0 22.5 -6.5t16.5 -20.5q-4 -68 5.5 -131t22 -124.5t24 -124t11.5 -129.5q0 -18 -11.5 -36.5t-33.5 -18.5q-16 0 -28.5 29.5t-22 74.5t-15.5 99.5t-9.5 104.5t-5 89t-1.5 54zM16 777q0 16 8.5 21t23.5 5q9 1 24 -11
t25.5 -27.5t11 -30t-19.5 -17.5h-7q-19 0 -32 2t-20.5 8t-10.5 18t-3 32z" />
    <glyph glyph-name="j" unicode="j" horiz-adv-x="268" 
d="M190 -598q-63 17 -120 56t-102.5 93t-75.5 118t-38 132q0 8 -0.5 17t1 16.5t6.5 13.5t17 9q17 -8 32.5 -37.5t34 -68t40 -81t49 -78t62 -59t79.5 -23.5q15 0 24.5 8t15 19t7.5 24t2 24q5 115 -9.5 229t-35.5 227t-42.5 225.5t-31.5 223.5q2 9 2.5 15.5t3.5 11t10 6.5
t22 2q16 -10 36 -66t39.5 -139.5t37 -186.5t28.5 -208t13.5 -203t-7 -172t-33.5 -115.5t-67 -32.5zM38 752q0 5 10 14t15 11q18 4 31 -4t21 -22t11.5 -31t3.5 -30q-14 -14 -30.5 -15t-30 8t-22.5 27t-9 42z" />
    <glyph glyph-name="k" unicode="k" horiz-adv-x="538" 
d="M64 38q0 3 2 13.5t4 23.5t4 24t2 14v13.5t0.5 26.5t0.5 29.5v23.5v21.5t-0.5 26.5t-0.5 22.5v11.5q-4 60 -15 127t-23.5 133.5t-24 130t-16.5 117.5q9 24 19.5 23.5t21 -18.5t21 -50t21 -71t19.5 -81.5t17 -82.5t14 -73.5t9 -54.5q2 -2 9 -2.5t9 -0.5q26 0 46 16t37.5 40
t34 52t35 52t40.5 40t51 16q18 0 22.5 -11.5t2.5 -26.5q-26 -22 -66.5 -61t-79 -83t-66 -86.5t-27.5 -71.5t18.5 -52.5t48 -42.5t66 -33.5t73 -24t68.5 -14.5t53 -6q11 -3 12 -13t1 -19q0 -20 -12.5 -29t-29.5 -13t-36.5 -3.5t-32.5 0.5q-29 0 -65.5 18t-71 39.5t-61.5 39.5
t-36 18q-14 0 -21 -9.5t-11 -23.5t-5.5 -30.5t-5 -30.5t-10 -23.5t-19.5 -9.5q-16 0 -31 9.5t-15 29.5z" />
    <glyph glyph-name="l" unicode="l" horiz-adv-x="160" 
d="M54 10q-13 93 -17 185t-3 183.5t3 183t1 183.5q0 11 8 15t17 4q12 0 21.5 -9t16 -21t9.5 -25t3 -21q8 -187 10.5 -310.5t0 -200t-8.5 -113t-15 -49.5t-21 -10.5t-25 5.5z" />
    <glyph glyph-name="m" unicode="m" horiz-adv-x="1000" 
d="M874 46q0 4 0.5 10.5t0.5 13t0.5 12t0.5 6.5q0 4 2 22.5t4.5 39.5t4 39.5t1.5 23.5q-1 18 -5.5 44.5t-13 56t-21.5 59t-29.5 53t-38 38t-47.5 14.5q-35 0 -73.5 -17t-71.5 -45.5t-54.5 -65t-21.5 -75.5q0 -19 6 -37.5t13.5 -37t14 -37.5t6.5 -40q0 -15 -5.5 -31.5
t-27.5 -16.5q-23 0 -38.5 28t-28 69.5t-26 90.5t-33.5 90.5t-49.5 69.5t-74.5 28q-36 0 -63 -15.5t-45 -40t-27.5 -56t-9.5 -63.5q0 -51 7 -101.5t7 -101.5q0 -18 -4 -33.5t-26 -15.5q-15 0 -24.5 7.5t-16 18.5t-10 24.5t-6.5 25.5q2 54 0 98.5t-5 86l-6 83t-3 88.5v9
t0.5 13t0.5 13.5v8.5q1 2 6 6.5t7 6.5h6q22 0 33 -15t11 -35q22 22 37.5 35t30.5 19t31 7.5t39 1.5q38 0 68.5 -7.5t55.5 -23t46 -39.5t42 -56q1 0 3 -0.5t3 -0.5t13.5 12t32 30.5t45 39.5t54 39.5t58.5 30.5t59 12q65 0 111.5 -39t76 -96t43.5 -121t14 -114q0 -13 -1 -45
t-7 -65t-19 -58.5t-36 -25.5q-11 0 -17 4t-8 11t-2 15v17z" />
    <glyph glyph-name="n" unicode="n" horiz-adv-x="613" 
d="M38 508q0 11 8.5 14.5t17.5 3.5q8 0 11.5 -4t5 -9.5t4 -9.5t9.5 -4q18 0 44 14t57 31.5t65 31.5t68 14q45 0 82 -23t66 -60.5t50 -85t35 -96t21 -94.5t7 -80q0 -11 -2 -34.5t-7 -47t-15 -41t-26 -17.5q-3 0 -9.5 0.5t-12.5 2t-11 4.5t-5 7q11 101 0 189.5t-37 154.5
t-64 105t-81 40q-40 0 -75 -13.5t-61.5 -38.5t-41.5 -60t-15 -77q0 -41 8 -82t17.5 -82t17.5 -82.5t8 -83.5q-36 0 -60.5 30t-40 77t-23.5 105.5t-11.5 115.5t-3.5 106v79z" />
    <glyph glyph-name="o" unicode="o" 
d="M24 266q0 71 31.5 125t82 90t114 54t127.5 18q49 0 92 -27.5t74 -68.5t49 -89t18 -89q0 -66 -26.5 -118t-70 -88t-99.5 -55t-115 -19t-110 18.5t-88 53t-58 84t-21 111.5zM88 275q0 -40 15.5 -76.5t42 -64t62.5 -44t78 -16.5q23 -3 54.5 6.5t63.5 29t61.5 46.5t48.5 58.5
t24 66t-11.5 69t-59 67t-117.5 59.5q-43 0 -89.5 -12.5t-84.5 -37.5t-63 -63t-25 -88z" />
    <glyph glyph-name="p" unicode="p" horiz-adv-x="694" 
d="M24 171q0 82 28.5 137.5t76.5 90t111 49.5t132 15q56 0 109 -17.5t94.5 -50.5t66.5 -80t25 -106q0 -53 -20 -86t-53 -52.5t-74.5 -26.5t-84.5 -7q-42 0 -86 3.5t-80 18t-59 43.5t-23 80q27 0 52.5 -11t51 -23.5t51.5 -23.5t54 -11q22 0 55.5 4t64.5 15.5t53.5 30.5
t22.5 49q0 44 -19.5 77t-51 55t-71 33t-78.5 11q-6 0 -25.5 -2.5t-45.5 -8.5t-54.5 -15t-53 -21t-40 -28t-15.5 -35v-15q1 -14 2.5 -38.5t3.5 -48.5t4 -42t2 -21q3 -21 9.5 -64t15 -97.5t18 -114t18.5 -114t16 -97.5t11 -63q0 -2 0.5 -3.5t0.5 -3.5q0 -1 -0.5 -1.5
t-0.5 -1.5v-3q-2 -4 -11.5 -13.5t-13.5 -11.5h-7q-17 0 -37 42.5t-40.5 108t-39 144t-33 150.5t-23.5 127t-9 74z" />
    <glyph glyph-name="q" unicode="q" horiz-adv-x="550" 
d="M338 38q-3 -1 -14 -3t-24 -4.5t-23.5 -4t-13.5 -1.5q-63 0 -108.5 24.5t-74.5 65t-42.5 92.5t-13.5 106q0 66 20.5 129t59.5 112.5t94.5 79.5t124.5 30q26 0 57 -8.5t57.5 -26t44.5 -43.5t18 -61l-39 -450q0 -57 4.5 -113.5t9.5 -113t9.5 -113.5t4.5 -114q0 -19 -2 -33
t-24 -14q-29 0 -42 34.5t-17.5 86t-4 111.5t-2.5 111.5t-12.5 86t-33.5 34.5h-13zM86 311q0 -38 11.5 -74t33.5 -64t54.5 -45t74.5 -17q29 0 59 5t56 22q7 40 9 86t5.5 94.5t11 97t25.5 93.5q0 22 -12 39.5t-30.5 28.5t-41 17t-42.5 6q-49 0 -88.5 -30t-67.5 -74.5
t-43 -94.5t-15 -90z" />
    <glyph glyph-name="r" unicode="r" horiz-adv-x="463" 
d="M143 0q-28 52 -49 113.5t-35.5 124t-23 121.5t-11.5 107q0 9 -1 20t0 23t4 22.5t11 18.5h2q1 0 1.5 0.5t1.5 0.5t1.5 -0.5t2.5 -0.5h3q3 -1 12.5 -5.5t12.5 -6.5q24 8 48.5 19t50 20.5t51 16.5t51.5 7q18 0 31.5 -1.5t27.5 -4.5t29 -8l36 -12q10 -8 19.5 -15t16.5 -16
t11 -22t3 -34q-21 -3 -48.5 4t-58 15.5t-63 15t-63 4.5t-57.5 -16t-47 -48q-13 -57 -4 -110t26 -104l34 -102t20 -104q0 -7 -4 -14.5t-10.5 -14t-14.5 -10.5t-17 -4z" />
    <glyph glyph-name="s" unicode="s" horiz-adv-x="687" 
d="M22 157q11 8 19 10.5t20 2.5t22.5 -6t21 -14.5l21 -17t21.5 -13.5q34 -15 54 -23.5t37.5 -13.5t39 -6.5t57.5 -1.5q27 0 66 -0.5t74 6.5t60 26t25 58q1 38 -21 59.5t-57.5 32.5t-81.5 16t-94 10.5t-94.5 15.5t-83 31t-58.5 56.5t-23 93.5q7 41 40.5 69.5t80 43.5
t98.5 15.5t96 -13.5t73 -43t30 -74q3 -27 -4 -44t-17.5 -25.5t-22.5 -7.5t-18.5 9.5t-6 25.5t14.5 41q-5 24 -29 38.5t-57.5 20t-70.5 2.5t-67.5 -13t-49.5 -27t-16 -40q0 -39 22.5 -60.5t59.5 -33t84.5 -16.5t97 -10t97 -14t84.5 -28t59.5 -52t22.5 -87q0 -40 -21 -69
t-52.5 -48.5t-69 -29t-71.5 -9.5q-33 0 -72 0.5t-79 4t-79.5 12.5t-74.5 26.5t-63 45t-44 68.5z" />
    <glyph glyph-name="t" unicode="t" horiz-adv-x="438" 
d="M177 447q-10 0 -36.5 0.5t-54.5 5t-50 14.5t-23 30q0 6 1.5 15.5t12.5 9.5l135 11q6 48 8 79t1 57.5t-3.5 56t-3.5 76.5q0 8 3.5 13.5t9.5 8.5t13 4t12 1q17 0 31 -17.5t14 -33.5l11 -243l111 -5q23 2 42 -9t20 -41q-15 -17 -37.5 -20t-46.5 -2.5t-47.5 0t-41.5 -12.5
q0 -8 1 -43t2.5 -83t3.5 -102t3.5 -101t2 -79.5t0.5 -36.5q-30 -17 -49 3.5t-30 63t-15 99.5t-4.5 112.5t1 101.5t3.5 67z" />
    <glyph glyph-name="u" unicode="u" horiz-adv-x="670" 
d="M500 188q-30 -17 -51.5 -40.5t-44 -45.5t-49.5 -37.5t-67 -15.5q-47 0 -85 20.5t-67.5 54.5t-51 78t-35.5 90t-20.5 91t-6.5 82q-7 47 -2.5 80t15.5 53t25 27.5t25 2.5t16 -21.5t-1 -43.5q-2 -5 -4 -16t-3.5 -23t-3 -22t-1.5 -14q0 -27 5.5 -64.5t16.5 -77.5t28 -80
t40.5 -71t54 -50.5t67.5 -19.5q23 0 53 23t57 55t45.5 66t19.5 56q0 12 0.5 42.5t0.5 64.5t-0.5 64t-0.5 42q8 14 16.5 20.5t22.5 6.5q16 0 26 -21t16 -53t9 -70.5t4 -73.5t2 -61.5t4 -35.5q7 -26 19.5 -58.5t24.5 -63t20.5 -56t8.5 -38.5q0 -20 -11 -23.5t-28 -3.5
q-20 0 -30 10t-15 26.5t-7.5 36.5t-8 40t-16.5 38t-32 30z" />
    <glyph glyph-name="v" unicode="v" horiz-adv-x="520" 
d="M13 463q1 4 4 10.5t7 12.5t9 10.5t11 4.5q1 0 1.5 -0.5t2.5 -0.5h3q30 -15 49.5 -41.5t34.5 -60.5t27.5 -72t28.5 -75.5t38.5 -72.5t56.5 -62q11 39 23 76t27.5 75t35 78.5t46.5 86.5q31 14 50 16t26.5 -4.5t2.5 -21.5t-21 -34q-10 -9 -24 -41.5t-30 -76.5t-33.5 -92.5
t-35.5 -88.5t-36 -66t-35 -24q-17 0 -40 28t-49 71.5t-52.5 97t-50.5 105t-44 95t-33 67.5z" />
    <glyph glyph-name="w" unicode="w" horiz-adv-x="875" 
d="M450 125q-53 -70 -105 -98t-100 -24.5t-89.5 34t-72.5 77.5t-49.5 106.5t-20 120.5t16 119t58.5 103q20 -7 23 -20t3 -29q0 -23 -4.5 -43.5t-9.5 -41.5t-9.5 -42.5t-4.5 -45.5q0 -25 8.5 -68t26 -85t44.5 -72.5t63 -30.5q22 0 52.5 13t58.5 34t47 47t19 52l8 169
q0 4 5 8.5t11.5 8t12.5 6t8 2.5q19 0 26 -24t10.5 -60.5t8.5 -78.5t19 -78.5t41 -60.5t76 -24q48 1 76.5 20.5t41.5 50.5t12.5 69.5t-10.5 77t-26.5 73.5t-36.5 60q-4 19 7.5 22.5t22.5 3.5q22 -6 45.5 -35t41.5 -70t28 -90.5t5 -97.5t-28.5 -90t-71.5 -68q-57 -4 -93 -4.5
t-60 3t-38.5 11t-28 20t-28.5 30t-40 40.5z" />
    <glyph glyph-name="x" unicode="x" horiz-adv-x="598" 
d="M512 -68q-35 30 -65.5 64.5t-61.5 68t-63.5 64.5t-72.5 54q-17 0 -33 -13t-30 -33t-26.5 -44t-23.5 -45t-20 -36.5t-17 -18.5q-25 0 -25 25q0 37 19.5 70t43.5 62.5t43.5 54.5t19.5 46q0 1 -0.5 3t-0.5 3q-23 21 -51.5 48t-57 57t-53 61t-38.5 59q-2 10 1 15.5t8 8.5
t11 3.5t11 0.5q32 -12 61.5 -37.5t57 -54.5t54 -56t52.5 -42q26 4 58.5 26.5t67.5 51.5t69 58t62.5 45.5t48.5 15t27 -33.5q0 -7 -17 -22t-43.5 -35.5t-58.5 -43.5t-62.5 -46t-56 -43.5t-38.5 -35.5q27 -25 64 -59.5t73.5 -73t67 -78.5t45.5 -76q-5 -14 -13.5 -26.5
t-24.5 -12.5q-2 0 -6.5 0.5t-5.5 0.5z" />
    <glyph glyph-name="y" unicode="y" 
d="M61 -406q0 18 2.5 31.5t24.5 13.5q20 -23 51.5 -57.5t69.5 -67.5t81 -57t87 -25q37 1 63.5 19t44.5 46.5t29.5 65t18.5 73.5t10.5 72.5t7.5 62.5q2 13 5.5 43t7 67.5t5 78t-1 73.5t-10 54.5t-23.5 21.5q-22 0 -47 -13.5t-51.5 -29t-53.5 -29t-54 -13.5q-48 0 -89.5 20
t-75.5 53t-60 76.5t-43.5 90.5t-26.5 94t-9 88q0 9 -1 30.5t1 43.5t10.5 38.5t28.5 16.5q7 0 11.5 -35t13 -88t23 -114.5t41 -114.5t67 -88t100.5 -35q30 0 60.5 12t58 31.5t50.5 44t37 50.5q0 5 -1 24.5t-2 45.5t-2.5 56t-2.5 56t-1.5 45.5t-0.5 25.5q1 79 10.5 97
t22.5 -11t27.5 -96.5t26.5 -158t19.5 -197.5t6 -214.5t-13.5 -207.5t-39.5 -178t-71.5 -125.5t-110 -50.5q-27 0 -62 10t-72 27t-72.5 40.5t-63.5 50.5t-45 57t-17 60z" />
    <glyph glyph-name="z" unicode="z" horiz-adv-x="613" 
d="M111 88q0 22 14.5 49.5t34 54.5t40.5 50.5t35 39.5l-172 6q-6 0 -8.5 4t-4 9t-1.5 10.5v7.5q0 12 2 18t7 8.5t12 3t18 1.5q12 1 44 5t68 7.5t68 7t45 5.5q18 26 30 44.5t19.5 35t10.5 33.5t3 41q0 10 -2 24.5t-8 27.5t-16 22.5t-25 9.5h-162q-15 0 -26.5 -10t-22 -22
t-20 -22t-18.5 -10q-23 0 -37.5 11.5t-14.5 34.5q0 20 15.5 35t39.5 25.5t53.5 17t58 10t52.5 5t37 1.5q37 0 68 -10t54 -30t36 -49t13 -66q0 -23 -5.5 -43t-12 -39.5t-12 -39t-5.5 -41.5q1 0 16.5 2t33.5 2.5t33 -3t15 -14.5q0 -2 -0.5 -2.5t-0.5 -2.5v-3q-4 -7 -13.5 -19
t-11.5 -12l-138 -13q-10 -18 -30 -40t-40 -44.5t-35.5 -44.5t-18 -40.5t13.5 -32t60 -18.5q28 0 61.5 5t67 14t65 20.5t56.5 24.5q11 -7 18 -19t7 -25q0 -19 -18 -34.5t-46.5 -27t-64 -20t-69.5 -14t-63 -8t-46 -2.5q-18 0 -45 4.5t-52 15t-42.5 27.5t-17.5 41z" />
    <glyph glyph-name="braceleft" unicode="{" horiz-adv-x="525" 
d="M86 94q0 47 20.5 82t51.5 63t67 53t67 51.5t51.5 58t20.5 73.5q0 5 -0.5 19.5t-0.5 18.5q-3 2 -13 6.5t-12 5.5h-7q-25 0 -60 -12.5t-70 -29t-66 -33t-47 -25.5q-2 0 -6.5 -0.5t-6.5 -0.5q-16 0 -21 8.5t-5 23.5q0 2 0.5 9.5t0.5 9.5q19 9 48.5 22.5t58.5 31t52 39
t29 45.5q-51 9 -91 38t-67.5 69.5t-41.5 88.5t-14 95q0 39 15.5 75.5t42 68t61.5 57.5t73 45t77.5 29t75.5 10q19 0 40 -5t39 -16t29.5 -27.5t11.5 -40.5q0 -11 -3.5 -25t-16.5 -14q-8 0 -18 10t-22 22.5t-27 22.5t-32 10q-55 -5 -101.5 -25t-82.5 -53t-61.5 -77t-38.5 -96
q0 -40 16 -70t42 -52.5t59 -39.5t68 -31t68.5 -27.5t60.5 -29.5q-7 -24 0 -43.5t18.5 -38t22 -37.5t10.5 -42q0 -46 -22.5 -80t-55.5 -62.5t-72.5 -53.5t-72.5 -53t-55.5 -61.5t-22.5 -78.5v-12q31 -55 73 -90t108 -35h7q48 9 94.5 17t96.5 8q0 -22 -15 -37.5t-38.5 -25.5
t-52.5 -15t-56.5 -7.5t-50.5 -3t-35 -0.5q-47 -9 -83.5 10t-61 53t-37.5 76.5t-13 80.5z" />
    <glyph glyph-name="bar" unicode="|" horiz-adv-x="200" 
d="M100 13q-1 10 -2.5 36.5t-3.5 56.5t-4 56.5t-2 37.5q-2 60 -1.5 112t-1 101.5t-6 100.5t-16.5 111q-9 45 -24 93t-15 96q0 8 0.5 21.5t0.5 14.5q0 3 5 8t8 5q4 0 13.5 -5t11.5 -8q66 -185 86 -375.5t14 -386.5q1 -2 3 -7.5t4 -11.5t3.5 -11.5t1.5 -7.5q0 -28 -15 -39
t-41 -11h-6q-2 1 -7 6t-6 7z" />
    <glyph glyph-name="braceright" unicode="}" horiz-adv-x="588" 
d="M274 -301q-36 -4 -80 0.5t-84 22t-70.5 48.5t-39.5 80q0 4 3 10.5t7.5 13t10 11t10.5 4.5q13 0 20 -8t12 -19t10.5 -21.5t14.5 -15.5q12 -6 32.5 -16.5t40.5 -20.5l35 -17.5t17 -7.5q51 -11 100.5 1.5t88.5 42t62.5 73t23.5 96.5q0 34 -18 81.5t-43.5 96.5t-53.5 92
t-48 67q-23 29 -51.5 51t-53.5 45t-42 51.5t-17 70.5q0 12 2 22t5 18.5t5 16.5t2 18q0 13 -4 25t-9 24t-9 24.5t-4 26.5q0 24 3.5 43.5t22.5 38.5l213 212q6 6 8.5 16t3.5 21t1 21.5v16.5q0 40 -19.5 62.5t-49.5 34t-65.5 14.5t-67.5 3q-16 0 -31.5 -3t-30.5 -6t-30.5 -5
t-31.5 0q7 -17 19.5 -20t25 -4t22 -4.5t9.5 -21.5q0 -20 -11 -23t-27 -3q-48 0 -75 25.5t-27 70.5q0 30 28 42.5t65 15.5t72 0.5t49 -2.5h23t34 -0.5t34 -0.5h22q32 -12 59.5 -30t47.5 -42.5t31.5 -55t11.5 -66.5q0 -42 -19.5 -75.5t-49 -62t-63.5 -54t-63.5 -50.5
t-49 -51.5t-19.5 -56.5q0 -15 6 -23.5t16.5 -12.5t24.5 -5t29 -2q9 -1 30 -1.5t45 -0.5t45.5 0.5t29.5 1.5q19 -8 22.5 -18t3.5 -25q0 -8 -0.5 -19t-12.5 -13q-10 -1 -35 -2.5t-53 -3.5t-52.5 -4t-34.5 -3q-22 -3 -40 -14t-23 -36q-1 -4 10.5 -19t30 -36t41 -46t43.5 -48.5
t38 -43.5t25 -32q25 -40 50 -79.5t45 -81t32.5 -85.5t12.5 -93q0 -65 -21 -114t-58.5 -82t-88.5 -49.5t-111 -16.5z" />
    <glyph glyph-name="asciitilde" unicode="~" horiz-adv-x="537" 
d="M379 585q-34 -13 -60.5 -6.5t-50.5 22t-48 35t-51 31.5q-28 2 -44 -6.5t-24.5 -22.5t-11 -31t-3.5 -33t-1.5 -27.5t-4.5 -15t-14 4t-30 30.5q-11 31 -6 59t21 49t40 33.5t51 13.5q2 1 9 1t22.5 -5.5t41.5 -18.5t67 -38q24 -14 39 -15.5t36 5.5l12.5 5t7.5 5l80 63
q16 -1 24.5 -6.5t11.5 -12.5t2 -13.5t-5 -9.5q-35 -29 -54 -46.5t-28 -27.5t-11 -13t-3 -4t-3 -1.5t-12 -3.5z" />
    <glyph glyph-name="Euro" unicode="&#x20ac;" horiz-adv-x="988" 
d="M214 338q-51 0 -100 -8.5t-101 -8.5v54l7 2t17 4t21 4t18 3h12q12 1 32.5 2.5t40.5 3.5t35 4t17 2q8 1 22 6t16 7l62 175q1 2 -8.5 6.5t-16.5 5.5h-5.5t-12.5 0.5t-14.5 0.5h-11.5q-31 0 -61.5 -4.5t-61 -9.5t-61 -9.5t-61.5 -4.5q0 39 23 59.5t60 29t82.5 9.5t90 2.5
t83.5 6t63 20.5q44 30 86 69.5t87 74.5t95 59.5t110 24.5q33 0 59 -18.5t26 -56.5q0 -14 -1 -28t-12 -25q-9 7 -16 18t-14.5 21.5t-16 17.5t-21.5 7q-2 0 -21 -6t-46.5 -16.5t-58.5 -23.5t-57.5 -27t-44 -28t-17.5 -25v-13q11 -1 30 -4.5t41.5 -8.5t45.5 -12.5t41.5 -16.5
t30.5 -20.5t12 -24.5q0 -14 -9.5 -19.5t-22.5 -5.5h-6q-2 0 -9.5 2t-15.5 4t-15.5 4t-9.5 2h-7h-6q-2 0 -7.5 -2t-11.5 -4t-11.5 -4t-6.5 -2h-7q-12 0 -22.5 2t-21 4.5t-22 4.5t-27.5 2q-34 0 -63.5 -12t-52 -34t-35.5 -52.5t-13 -66.5q0 -15 8.5 -20t22.5 -5q32 0 64 4.5
t64 9.5t64.5 9.5t65.5 4.5q12 0 26 0.5t27.5 -1t25.5 -7.5t21 -18q-11 -18 -25.5 -25.5t-31 -10t-34 -1.5t-34.5 -1l-52.5 -7t-79.5 -11t-79 -11.5t-52 -7.5q-23 -3 -30 -19.5t-7 -35.5q0 -50 9.5 -92.5t31 -74t57.5 -49.5t89 -18t107 10t107.5 22t106.5 22t104 10
q26 0 33 -6.5t7 -23.5q0 -15 -27.5 -29t-70.5 -26t-95.5 -22t-102.5 -17t-92 -11t-64 -4q-78 0 -125 25t-74.5 63t-39 81.5t-17.5 81.5t-11.5 63t-19.5 25z" />
    <glyph glyph-name="sterling" unicode="&#xa3;" horiz-adv-x="1013" 
d="M13 113q0 24 11.5 36.5t29 18.5t38 7t37.5 1q25 0 46.5 -0.5t42.5 -2t43.5 -4t51.5 -6.5q24 15 46.5 52t40 81t28 88t10.5 74q0 12 -6.5 18.5t-15.5 9.5t-19.5 3h-18.5q-23 0 -46 -4t-46 -9t-46 -9t-47 -4h-5q-1 2 -5.5 11.5t-6.5 13.5v6v6q2 4 11.5 13.5t13.5 11.5
q9 2 31.5 7.5t48.5 11.5t49.5 11.5t32.5 7.5h13q46 8 72 40.5t44 77t35 94.5t46 92t76 69.5t125 27.5q38 0 74.5 -13t65 -36.5t45.5 -57.5t17 -76q0 -15 -4 -30.5t-21 -15.5q-14 0 -23.5 24t-25.5 53t-44.5 53t-80.5 24q-53 0 -89.5 -15.5t-62 -43.5t-43 -67.5t-31.5 -87.5
q-2 -6 -4.5 -16.5t-4.5 -20.5t-3 -17.5l-1 -7.5l13 -13h225q9 0 14.5 -4.5t8 -11t3 -13.5t0.5 -13q0 -18 -5 -32.5t-26 -14.5q-14 0 -24 1.5t-21 12.5h-13.5t-21 0.5t-21 0.5h-13.5q-52 0 -84.5 -15t-52.5 -40.5t-31 -60t-21 -73.5t-22 -80.5t-33 -81.5l25 -12
q36 -2 75.5 -1t77 -4t70 -20.5t52.5 -49.5q-29 -20 -63 -23.5t-67 -3.5q-47 0 -92 7.5t-92 7.5q-34 0 -62 -12.5t-55 -27t-55 -27t-63 -12.5q-25 0 -52 6.5t-49 20.5t-36 36t-14 53z" />
    <glyph glyph-name="comma" unicode="," horiz-adv-x="175" 
d="M12 -206q0 31 6 63t13.5 64t14 64t6.5 65v10t-0.5 15t-0.5 15v10q-18 -1 -22.5 6t-4.5 18q0 26 9.5 45.5t37.5 19.5q25 0 37 -18t16.5 -42.5t3.5 -50t-1 -40.5q0 -10 -2.5 -36t-8 -58t-13 -67t-17.5 -64t-22 -47.5t-26 -18.5q-9 0 -14 4.5t-8 11.5t-3.5 15.5t-0.5 15.5z
" />
    <glyph glyph-name="L" unicode="L" horiz-adv-x="463" 
d="M24 211q3 46 6.5 103t8.5 115.5t11.5 112.5t15.5 94.5t20 62.5t25 15q18 -2 24 -28.5t3.5 -69.5t-9.5 -97.5t-14.5 -112.5t-12.5 -114.5t-2 -103.5q0 -12 4 -27t12.5 -28t20 -22.5t26.5 -10.5l262 -25q11 -1 12.5 -12.5t1.5 -18.5q0 -23 -14 -31t-37 -13q-5 0 -18.5 -0.5
t-28.5 -1t-28.5 -1t-18.5 -0.5q-60 0 -110 9t-85.5 33t-55 65.5t-19.5 106.5z" />
    <glyph glyph-name="asciicircum" unicode="^" horiz-adv-x="500" 
d="M250 825q-24 -32 -52 -61.5t-53.5 -46t-47 -12.5t-32.5 40q37 34 62.5 55t43.5 41.5t30 47.5t24 74q3 10 10.5 11.5t15.5 1.5q18 0 27.5 -9t21.5 -29q8 -13 22 -29t29 -33t28.5 -33.5t21.5 -28.5q9 -15 14 -23.5t7.5 -15.5t3.5 -14.5t1 -20.5q0 -17 -3.5 -28.5
t-22.5 -11.5t-35.5 14t-34 34t-37 41t-44.5 36z" />
    <glyph glyph-name="bracketright" unicode="]" horiz-adv-x="575" 
d="M86 -62q0 5 0.5 14t1.5 11l25 12h338q10 0 11 8.5t1 14.5q0 64 1.5 146t1 172t-4 183t-13 180.5t-27 163.5t-45.5 132q-17 10 -51 17.5t-74 14.5t-82.5 13.5t-77.5 15t-57 19.5t-22 26q6 15 30.5 20.5t59.5 4.5t74.5 -6t75.5 -10.5t63 -10t36 -4.5q46 -9 72 -32t40.5 -55
t22 -71t15.5 -79q1 -25 3.5 -71.5t6 -107t7.5 -130t8 -141.5t7.5 -141.5t7 -130t6 -107t4.5 -71.5v-23q0 -9 -6.5 -16.5t-16.5 -13t-20.5 -8t-19.5 -2.5h-350q-17 0 -27.5 4.5t-16 13t-7 20t-1.5 25.5z" />
    <glyph glyph-name="cedilla" unicode="&#xb8;" horiz-adv-x="595" 
d="M200 -281q8 7 15 8.5t16 1.5q22 0 41.5 -12t37.5 -27t35.5 -27t37.5 -12q22 0 39.5 -0.5t30 5t19.5 20t7 45.5q0 40 -18.5 57.5t-47 25.5t-62 12.5t-62.5 19t-48.5 45.5t-20.5 92q1 34 8 48t15.5 14t18 -10.5t15.5 -24t7 -26.5t-5 -19q0 -30 11.5 -47.5t30.5 -26.5
t43.5 -13.5t49.5 -8.5t49.5 -11.5t43.5 -22.5t30.5 -41.5t11.5 -68.5q0 -32 -16.5 -55t-42 -38t-55 -22.5t-56.5 -7.5q-38 0 -63 10.5t-44 28.5t-35 41t-37 47z" />
    <glyph glyph-name="ellipsis" unicode="&#x2026;" horiz-adv-x="816" 
d="M59 125q0 10 8.5 31t20 42t24 37t21.5 16q26 0 45.5 -13.5t32 -34.5t18.5 -45.5t6 -46.5q0 -15 -8.5 -34.5t-22 -36.5t-30.5 -28.5t-34 -11.5q-19 0 -34 14t-25.5 33.5t-16 41t-5.5 36.5zM331 125q0 10 8.5 31t20 42t24 37t21.5 16q26 0 45.5 -13.5t32 -34.5t18.5 -45.5
t6 -46.5q0 -15 -8.5 -34.5t-22 -36.5t-30.5 -28.5t-34 -11.5q-19 0 -34 14t-25.5 33.5t-16 41t-5.5 36.5zM603 125q0 10 8.5 31t20 42t24 37t21.5 16q26 0 45.5 -13.5t32 -34.5t18.5 -45.5t6 -46.5q0 -15 -8.5 -34.5t-22 -36.5t-30.5 -28.5t-34 -11.5q-19 0 -34 14
t-25.5 33.5t-16 41t-5.5 36.5z" />
    <glyph glyph-name="dieresis" unicode="&#xa8;" horiz-adv-x="530" 
d="M90 635q0 6 6.5 16.5t15.5 21.5t18.5 19t15.5 8q20 0 35 -7t24.5 -17.5t14.5 -23.5t5 -24q0 -8 -6.5 -18t-17 -18.5t-23.5 -14.5t-26 -6q-15 0 -26.5 7t-19.5 17.5t-12 21t-4 18.5zM298 635q0 6 6.5 16.5t15.5 21.5t18.5 19t16.5 8q20 0 34.5 -7t24.5 -17.5t14.5 -23.5
t4.5 -24q0 -8 -6.5 -18t-17 -18.5t-23.5 -14.5t-26 -6q-15 0 -26.5 7t-19.5 17.5t-12 21t-4 18.5z" />
    <glyph glyph-name="circumflex" unicode="&#x2c6;" horiz-adv-x="500" 
d="M250 825q-24 -32 -52 -61.5t-53.5 -46t-47 -12.5t-32.5 40q37 34 62.5 55t43.5 41.5t30 47.5t24 74q3 10 10.5 11.5t15.5 1.5q18 0 27.5 -9t21.5 -29q8 -13 22 -29t29 -33t28.5 -33.5t21.5 -28.5q9 -15 14 -23.5t7.5 -15.5t3.5 -14.5t1 -20.5q0 -17 -3.5 -28.5
t-22.5 -11.5t-35.5 14t-34 34t-37 41t-44.5 36z" />
    <glyph glyph-name="quoteright" unicode="&#x2019;" horiz-adv-x="138" 
d="M25 928q0 8 0.5 13t3 10t7.5 10.5t14 13.5q15 -8 25.5 -27.5t17.5 -46t11.5 -56.5t6.5 -59.5t2.5 -54.5t0.5 -40q0 -17 -3 -29.5t-23 -12.5q-17 0 -28 19.5t-18 49.5t-10.5 65t-5 66t-1.5 53v26z" />
    <glyph glyph-name="quoteleft" unicode="&#x2018;" horiz-adv-x="138" 
d="M25 928q0 8 0.5 13t3 10t7.5 10.5t14 13.5q15 -8 25.5 -27.5t17.5 -46t11.5 -56.5t6.5 -59.5t2.5 -54.5t0.5 -40q0 -17 -3 -29.5t-23 -12.5q-17 0 -28 19.5t-18 49.5t-10.5 65t-5 66t-1.5 53v26z" />
    <glyph glyph-name="quotedblleft" unicode="&#x201c;" horiz-adv-x="313" 
d="M201 713q-3 45 -5.5 81.5t-4 69.5t-2.5 65.5t-1 70.5v50q1 2 6 6.5t7 6.5h3q1 0 1.5 0.5t1.5 0.5q17 0 28.5 -24t19 -61t12 -80.5t6.5 -81.5t2.5 -65.5t0.5 -32.5v-44q-2 -4 -11.5 -13.5t-13.5 -11.5q-2 -1 -3 -1h-4q-8 0 -15.5 9.5t-13.5 21t-10 21.5t-4 12zM13 1013
q4 10 11 11.5t15 1.5q13 0 24 -19t20 -49t17 -67.5t16 -73.5t16.5 -67.5t18.5 -49.5q-8 -15 -16 -20.5t-22 -5.5q-18 0 -32 21t-25 54t-19 73t-13 77.5t-7.5 68t-3.5 45.5z" />
    <glyph glyph-name="quotedblright" unicode="&#x201d;" horiz-adv-x="313" 
d="M201 713q-3 45 -5.5 81.5t-4 69.5t-2.5 65.5t-1 70.5v50q1 2 6 6.5t7 6.5h3q1 0 1.5 0.5t1.5 0.5q17 0 28.5 -24t19 -61t12 -80.5t6.5 -81.5t2.5 -65.5t0.5 -32.5v-44q-2 -4 -11.5 -13.5t-13.5 -11.5q-2 -1 -3 -1h-4q-8 0 -15.5 9.5t-13.5 21t-10 21.5t-4 12zM13 1013
q4 10 11 11.5t15 1.5q13 0 24 -19t20 -49t17 -67.5t16 -73.5t16.5 -67.5t18.5 -49.5q-8 -15 -16 -20.5t-22 -5.5q-18 0 -32 21t-25 54t-19 73t-13 77.5t-7.5 68t-3.5 45.5z" />
    <glyph glyph-name="Zcaron" unicode="&#x17d;" horiz-adv-x="763" 
d="M334 975q25 9 44.5 21t37 23.5t34 19.5t34.5 8q19 0 22.5 -6.5t3.5 -16.5q0 -8 -1 -12t-3.5 -8t-7.5 -8.5t-14 -13.5q-8 -7 -21.5 -16.5t-28.5 -19t-28.5 -19t-21.5 -16.5q-12 -11 -21.5 -16.5t-27.5 -5.5q-7 0 -14.5 1t-10.5 6q-12 27 -24 42.5t-30 27.5t-43 23.5
t-62 31.5q11 21 32 23t46.5 -7.5t53 -26.5t51.5 -35zM225 94q0 32 19.5 61t43 56t43 54t19.5 54v6q-1 3 -5.5 12.5t-6.5 12.5h-9t-13 0.5t-13.5 0.5h-8.5q-38 0 -75 -8t-76 -8q0 18 6 37.5t26 27.5q43 13 81 19t69.5 10.5t56.5 12.5t43.5 25t30.5 47t17 81q0 47 -23 79.5
t-58 52t-77 28t-80 8.5q-32 0 -59 -8t-51 -17.5t-46.5 -17.5t-43.5 -8q-2 0 -6.5 5t-6.5 8v6q0 34 22.5 53t53.5 28.5t64 11.5t53 2q61 0 118.5 -11t102.5 -38t72.5 -73.5t27.5 -118.5q0 -21 -3.5 -35.5t-8 -27t-8 -26.5t-3.5 -33q0 -7 13 -10t32.5 -5t42.5 -3.5t42.5 -5.5
t32.5 -12t13 -21q0 -1 -0.5 -3t-0.5 -3q-8 -5 -20 -11t-25 -12t-26 -10t-23 -4q-5 0 -8.5 2t-6.5 4l-6 4t-9 2q-50 0 -87 -25t-66 -62.5t-52 -81.5t-46 -81q0 -2 -1 -9.5t-1 -9.5q0 -21 8.5 -26.5t28.5 -5.5q47 0 93 10t91.5 22.5t90.5 22.5t90 10q17 0 21.5 -9.5t4.5 -24.5
t-3.5 -24.5t-22.5 -17.5q-82 -29 -166.5 -46.5t-171.5 -17.5h-17.5t-26.5 0.5t-26.5 0.5h-16.5q-32 10 -47.5 36t-15.5 58z" />
    <glyph glyph-name="zcaron" unicode="&#x17e;" horiz-adv-x="613" 
d="M255 840q25 9 44.5 21t37 23.5t34 19.5t34.5 8q19 0 22.5 -6.5t3.5 -16.5q0 -8 -1 -12t-3.5 -8t-7.5 -8.5t-14 -13.5q-8 -7 -21.5 -16.5t-28.5 -19t-28.5 -19t-21.5 -16.5q-12 -11 -21.5 -16.5t-27.5 -5.5q-7 0 -14.5 1t-10.5 6q-12 27 -24 42.5t-30 27.5t-43 23.5
t-62 31.5q11 21 32 23t46.5 -7.5t53 -26.5t51.5 -35zM111 88q0 22 14.5 49.5t34 54.5t40.5 50.5t35 39.5l-172 6q-6 0 -8.5 4t-4 9t-1.5 10.5v7.5q0 12 2 18t7 8.5t12 3t18 1.5q12 1 44 5t68 7.5t68 7t45 5.5q18 26 30 44.5t19.5 35t10.5 33.5t3 41q0 10 -2 24.5t-8 27.5
t-16 22.5t-25 9.5h-162q-15 0 -26.5 -10t-22 -22t-20 -22t-18.5 -10q-23 0 -37.5 11.5t-14.5 34.5q0 20 15.5 35t39.5 25.5t53.5 17t58 10t52.5 5t37 1.5q37 0 68 -10t54 -30t36 -49t13 -66q0 -23 -5.5 -43t-12 -39.5t-12 -39t-5.5 -41.5q1 0 16.5 2t33.5 2.5t33 -3
t15 -14.5q0 -2 -0.5 -2.5t-0.5 -2.5v-3q-4 -7 -13.5 -19t-11.5 -12l-138 -13q-10 -18 -30 -40t-40 -44.5t-35.5 -44.5t-18 -40.5t13.5 -32t60 -18.5q28 0 61.5 5t67 14t65 20.5t56.5 24.5q11 -7 18 -19t7 -25q0 -19 -18 -34.5t-46.5 -27t-64 -20t-69.5 -14t-63 -8t-46 -2.5
q-18 0 -45 4.5t-52 15t-42.5 27.5t-17.5 41z" />
    <glyph glyph-name="Scaron" unicode="&#x160;" horiz-adv-x="838" 
d="M422 938q25 9 44.5 21t37 23.5t34 19.5t34.5 8q19 0 22.5 -6.5t3.5 -16.5q0 -8 -1 -12t-3.5 -8t-7.5 -8.5t-14 -13.5q-8 -7 -21.5 -16.5t-28.5 -19t-28.5 -19t-21.5 -16.5q-12 -11 -21.5 -16.5t-27.5 -5.5q-7 0 -14.5 1t-10.5 6q-12 27 -24 42.5t-30 27.5t-43 23.5
t-62 31.5q11 21 32 23t46.5 -7.5t53 -26.5t51.5 -35zM25 231q0 13 5.5 28.5t15 29t22 22.5t27.5 9q0 -84 30.5 -133t82.5 -75t121 -35t146 -14q27 1 68.5 2t80.5 9.5t66.5 28.5t25.5 60q0 19 -1 33t-6 25t-15.5 21t-30.5 21l-388 212q-21 12 -39.5 29.5t-32 38.5t-21.5 44.5
t-8 47.5q0 49 27 81t66.5 51t85.5 26.5t85 7.5q19 0 48 -3t61 -9.5t64 -17.5t57.5 -27t41.5 -38t16 -50q-28 -14 -56.5 -1.5t-60 33t-66.5 38t-75 13.5q-24 0 -63.5 -2.5t-77 -12t-64.5 -30t-27 -56.5q0 -35 25.5 -64.5t67 -56t94.5 -51t107.5 -49.5t106 -52.5t90 -59.5
t59.5 -70.5t15 -84.5q-7 -47 -41 -80t-85.5 -52t-115.5 -25t-132 0.5t-134 25t-121 48.5t-94 71.5t-53 92.5z" />
    <glyph glyph-name="scaron" unicode="&#x161;" horiz-adv-x="687" 
d="M347 738q25 9 44.5 21t37 23.5t34 19.5t34.5 8q19 0 22.5 -6.5t3.5 -16.5q0 -8 -1 -12t-3.5 -8t-7.5 -8.5t-14 -13.5q-8 -7 -21.5 -16.5t-28.5 -19t-28.5 -19t-21.5 -16.5q-12 -11 -21.5 -16.5t-27.5 -5.5q-7 0 -14.5 1t-10.5 6q-12 27 -24 42.5t-30 27.5t-43 23.5
t-62 31.5q11 21 32 23t46.5 -7.5t53 -26.5t51.5 -35zM22 157q11 8 19 10.5t20 2.5t22.5 -6t21 -14.5l21 -17t21.5 -13.5q34 -15 54 -23.5t37.5 -13.5t39 -6.5t57.5 -1.5q27 0 66 -0.5t74 6.5t60 26t25 58q1 38 -21 59.5t-57.5 32.5t-81.5 16t-94 10.5t-94.5 15.5t-83 31
t-58.5 56.5t-23 93.5q7 41 40.5 69.5t80 43.5t98.5 15.5t96 -13.5t73 -43t30 -74q3 -27 -4 -44t-17.5 -25.5t-22.5 -7.5t-18.5 9.5t-6 25.5t14.5 41q-5 24 -29 38.5t-57.5 20t-70.5 2.5t-67.5 -13t-49.5 -27t-16 -40q0 -39 22.5 -60.5t59.5 -33t84.5 -16.5t97 -10t97 -14
t84.5 -28t59.5 -52t22.5 -87q0 -40 -21 -69t-52.5 -48.5t-69 -29t-71.5 -9.5q-33 0 -72 0.5t-79 4t-79.5 12.5t-74.5 26.5t-63 45t-44 68.5z" />
    <glyph glyph-name="Agrave" unicode="&#xc0;" horiz-adv-x="750" 
d="M611 30q0 22 4.5 45t9.5 45.5t9.5 45.5t4.5 47q0 36 -3 78t-14 80q-38 -7 -76 -5t-76.5 7t-77.5 10.5t-78 5.5q-11 0 -36.5 -0.5t-52 -2t-48.5 -4t-27 -7.5l-12 -12q0 -1 -0.5 -5.5t-0.5 -11t-0.5 -13t-0.5 -10.5q0 -38 6 -76t13.5 -75.5t13.5 -74t6 -72.5v-12
q-19 -18 -35 -12t-28.5 28.5t-21 58.5t-13.5 78t-5.5 86.5t3.5 85.5q-3 3 -10.5 11.5t-15.5 18.5t-15 19t-9 13q-1 2 -1 3v3q0 9 5 13t11.5 6.5t13 4.5t9.5 8v6.5v11.5v11.5v7.5q5 55 8.5 116t12.5 121t26 114.5t48 96.5t79.5 66.5t121.5 24.5q77 0 133.5 -47.5t96 -122.5
t64 -167t38 -181.5t18.5 -166t5 -120.5q0 -24 -0.5 -44t-2 -39.5t-4 -40t-7.5 -47.5q-11 -14 -27 -26.5t-35 -12.5q-17 0 -22 8.5t-5 22.5zM581 424q4 0 9.5 1t10 6.5t8 18t5.5 36.5q0 38 -7 87.5t-21.5 101t-37 101.5t-54 88.5t-72 62.5t-91.5 24q-54 0 -90.5 -28
t-59.5 -73t-35 -101.5t-17 -112t-5.5 -105t-0.5 -81.5zM368 1209q15 -13 23.5 -21t16 -14.5t16 -14.5t23.5 -20q3 -2 8 -11.5t5 -13.5q0 -26 -9.5 -32t-27.5 -6q-2 0 -7 1.5t-17.5 10.5t-34.5 28.5t-58 54.5q-11 15 -20 31.5t-6.5 25.5t22 6.5t66.5 -25.5z" />
    <glyph glyph-name="Aacute" unicode="&#xc1;" horiz-adv-x="750" 
d="M611 30q0 22 4.5 45t9.5 45.5t9.5 45.5t4.5 47q0 36 -3 78t-14 80q-38 -7 -76 -5t-76.5 7t-77.5 10.5t-78 5.5q-11 0 -36.5 -0.5t-52 -2t-48.5 -4t-27 -7.5l-12 -12q0 -1 -0.5 -5.5t-0.5 -11t-0.5 -13t-0.5 -10.5q0 -38 6 -76t13.5 -75.5t13.5 -74t6 -72.5v-12
q-19 -18 -35 -12t-28.5 28.5t-21 58.5t-13.5 78t-5.5 86.5t3.5 85.5q-3 3 -10.5 11.5t-15.5 18.5t-15 19t-9 13q-1 2 -1 3v3q0 9 5 13t11.5 6.5t13 4.5t9.5 8v6.5v11.5v11.5v7.5q5 55 8.5 116t12.5 121t26 114.5t48 96.5t79.5 66.5t121.5 24.5q77 0 133.5 -47.5t96 -122.5
t64 -167t38 -181.5t18.5 -166t5 -120.5q0 -24 -0.5 -44t-2 -39.5t-4 -40t-7.5 -47.5q-11 -14 -27 -26.5t-35 -12.5q-17 0 -22 8.5t-5 22.5zM581 424q4 0 9.5 1t10 6.5t8 18t5.5 36.5q0 38 -7 87.5t-21.5 101t-37 101.5t-54 88.5t-72 62.5t-91.5 24q-54 0 -90.5 -28
t-59.5 -73t-35 -101.5t-17 -112t-5.5 -105t-0.5 -81.5zM186 1069q0 27 21 52t50 47t59.5 41t50.5 36q28 -14 24.5 -32t-27.5 -43t-63.5 -57.5t-82.5 -75.5q-19 0 -25.5 6.5t-6.5 25.5z" />
    <glyph glyph-name="Acircumflex" unicode="&#xc2;" horiz-adv-x="750" 
d="M611 30q0 22 4.5 45t9.5 45.5t9.5 45.5t4.5 47q0 36 -3 78t-14 80q-38 -7 -76 -5t-76.5 7t-77.5 10.5t-78 5.5q-11 0 -36.5 -0.5t-52 -2t-48.5 -4t-27 -7.5l-12 -12q0 -1 -0.5 -5.5t-0.5 -11t-0.5 -13t-0.5 -10.5q0 -38 6 -76t13.5 -75.5t13.5 -74t6 -72.5v-12
q-19 -18 -35 -12t-28.5 28.5t-21 58.5t-13.5 78t-5.5 86.5t3.5 85.5q-3 3 -10.5 11.5t-15.5 18.5t-15 19t-9 13q-1 2 -1 3v3q0 9 5 13t11.5 6.5t13 4.5t9.5 8v6.5v11.5v11.5v7.5q5 55 8.5 116t12.5 121t26 114.5t48 96.5t79.5 66.5t121.5 24.5q77 0 133.5 -47.5t96 -122.5
t64 -167t38 -181.5t18.5 -166t5 -120.5q0 -24 -0.5 -44t-2 -39.5t-4 -40t-7.5 -47.5q-11 -14 -27 -26.5t-35 -12.5q-17 0 -22 8.5t-5 22.5zM581 424q4 0 9.5 1t10 6.5t8 18t5.5 36.5q0 38 -7 87.5t-21.5 101t-37 101.5t-54 88.5t-72 62.5t-91.5 24q-54 0 -90.5 -28
t-59.5 -73t-35 -101.5t-17 -112t-5.5 -105t-0.5 -81.5zM331 1144q-24 -32 -52 -61.5t-53.5 -46t-47 -12.5t-32.5 40q37 34 62.5 55t43.5 41.5t30 47.5t24 74q3 10 10.5 11.5t15.5 1.5q18 0 27.5 -9t21.5 -29q8 -13 22 -29t29 -33t28.5 -33.5t21.5 -28.5q9 -15 14 -23.5
t7.5 -15.5t3.5 -14.5t1 -20.5q0 -17 -3.5 -28.5t-22.5 -11.5t-35.5 14t-34 34t-37 41t-44.5 36z" />
    <glyph glyph-name="tilde" unicode="&#x2dc;" horiz-adv-x="537" 
d="M379 585q-34 -13 -60.5 -6.5t-50.5 22t-48 35t-51 31.5q-28 2 -44 -6.5t-24.5 -22.5t-11 -31t-3.5 -33t-1.5 -27.5t-4.5 -15t-14 4t-30 30.5q-11 31 -6 59t21 49t40 33.5t51 13.5q2 1 9 1t22.5 -5.5t41.5 -18.5t67 -38q24 -14 39 -15.5t36 5.5l12.5 5t7.5 5l80 63
q16 -1 24.5 -6.5t11.5 -12.5t2 -13.5t-5 -9.5q-35 -29 -54 -46.5t-28 -27.5t-11 -13t-3 -4t-3 -1.5t-12 -3.5z" />
    <glyph glyph-name="Atilde" unicode="&#xc3;" horiz-adv-x="750" 
d="M611 30q0 22 4.5 45t9.5 45.5t9.5 45.5t4.5 47q0 36 -3 78t-14 80q-38 -7 -76 -5t-76.5 7t-77.5 10.5t-78 5.5q-11 0 -36.5 -0.5t-52 -2t-48.5 -4t-27 -7.5l-12 -12q0 -1 -0.5 -5.5t-0.5 -11t-0.5 -13t-0.5 -10.5q0 -38 6 -76t13.5 -75.5t13.5 -74t6 -72.5v-12
q-19 -18 -35 -12t-28.5 28.5t-21 58.5t-13.5 78t-5.5 86.5t3.5 85.5q-3 3 -10.5 11.5t-15.5 18.5t-15 19t-9 13q-1 2 -1 3v3q0 9 5 13t11.5 6.5t13 4.5t9.5 8v6.5v11.5v11.5v7.5q5 55 8.5 116t12.5 121t26 114.5t48 96.5t79.5 66.5t121.5 24.5q77 0 133.5 -47.5t96 -122.5
t64 -167t38 -181.5t18.5 -166t5 -120.5q0 -24 -0.5 -44t-2 -39.5t-4 -40t-7.5 -47.5q-11 -14 -27 -26.5t-35 -12.5q-17 0 -22 8.5t-5 22.5zM581 424q4 0 9.5 1t10 6.5t8 18t5.5 36.5q0 38 -7 87.5t-21.5 101t-37 101.5t-54 88.5t-72 62.5t-91.5 24q-54 0 -90.5 -28
t-59.5 -73t-35 -101.5t-17 -112t-5.5 -105t-0.5 -81.5zM456 1067q-34 -13 -60.5 -6.5t-50.5 22t-48 35t-51 31.5q-28 2 -44 -6.5t-24.5 -22.5t-11 -31t-3.5 -33t-1.5 -27.5t-4.5 -15t-14 4t-30 30.5q-11 31 -6 59t21 49t40 33.5t51 13.5q2 1 9 1t22.5 -5.5t41.5 -18.5
t67 -38q24 -14 39 -15.5t36 5.5l12.5 5t7.5 5l80 63q16 -1 24.5 -6.5t11.5 -12.5t2 -13.5t-5 -9.5q-35 -29 -54 -46.5t-28 -27.5t-11 -13t-3 -4t-3 -1.5t-12 -3.5z" />
    <glyph glyph-name="Adieresis" unicode="&#xc4;" horiz-adv-x="750" 
d="M611 30q0 22 4.5 45t9.5 45.5t9.5 45.5t4.5 47q0 36 -3 78t-14 80q-38 -7 -76 -5t-76.5 7t-77.5 10.5t-78 5.5q-11 0 -36.5 -0.5t-52 -2t-48.5 -4t-27 -7.5l-12 -12q0 -1 -0.5 -5.5t-0.5 -11t-0.5 -13t-0.5 -10.5q0 -38 6 -76t13.5 -75.5t13.5 -74t6 -72.5v-12
q-19 -18 -35 -12t-28.5 28.5t-21 58.5t-13.5 78t-5.5 86.5t3.5 85.5q-3 3 -10.5 11.5t-15.5 18.5t-15 19t-9 13q-1 2 -1 3v3q0 9 5 13t11.5 6.5t13 4.5t9.5 8v6.5v11.5v11.5v7.5q5 55 8.5 116t12.5 121t26 114.5t48 96.5t79.5 66.5t121.5 24.5q77 0 133.5 -47.5t96 -122.5
t64 -167t38 -181.5t18.5 -166t5 -120.5q0 -24 -0.5 -44t-2 -39.5t-4 -40t-7.5 -47.5q-11 -14 -27 -26.5t-35 -12.5q-17 0 -22 8.5t-5 22.5zM581 424q4 0 9.5 1t10 6.5t8 18t5.5 36.5q0 38 -7 87.5t-21.5 101t-37 101.5t-54 88.5t-72 62.5t-91.5 24q-54 0 -90.5 -28
t-59.5 -73t-35 -101.5t-17 -112t-5.5 -105t-0.5 -81.5zM183 1141q0 6 6.5 16.5t15.5 21.5t18.5 19t15.5 8q20 0 35 -7t24.5 -17.5t14.5 -23.5t5 -24q0 -8 -6.5 -18t-17 -18.5t-23.5 -14.5t-26 -6q-15 0 -26.5 7t-19.5 17.5t-12 21t-4 18.5zM391 1141q0 6 6.5 16.5t15.5 21.5
t18.5 19t16.5 8q20 0 34.5 -7t24.5 -17.5t14.5 -23.5t4.5 -24q0 -8 -6.5 -18t-17 -18.5t-23.5 -14.5t-26 -6q-15 0 -26.5 7t-19.5 17.5t-12 21t-4 18.5z" />
    <glyph glyph-name="Aring" unicode="&#xc5;" horiz-adv-x="750" 
d="M214 1103q0 28 13 50t34 36t47.5 21.5t52.5 7.5q21 0 39 -11t30.5 -28t20 -36.5t7.5 -35.5q0 -27 -11 -48t-29 -35.5t-41.5 -22t-47.5 -7.5q-49 0 -82 29t-33 80zM255 1101q0 -32 19.5 -48.5t54.5 -16.5q8 -2 22.5 3.5t28.5 16t23.5 24.5t9.5 29.5t-14.5 31.5t-48.5 31
q-18 0 -35 -3.5t-30.5 -12t-21.5 -22t-8 -33.5zM611 30q0 22 4.5 45t9.5 45.5t9.5 45.5t4.5 47q0 36 -3 78t-14 80q-38 -7 -76 -5t-76.5 7t-77.5 10.5t-78 5.5q-11 0 -36.5 -0.5t-52 -2t-48.5 -4t-27 -7.5l-12 -12q0 -1 -0.5 -5.5t-0.5 -11t-0.5 -13t-0.5 -10.5q0 -38 6 -76
t13.5 -75.5t13.5 -74t6 -72.5v-12q-19 -18 -35 -12t-28.5 28.5t-21 58.5t-13.5 78t-5.5 86.5t3.5 85.5q-3 3 -10.5 11.5t-15.5 18.5t-15 19t-9 13q-1 2 -1 3v3q0 9 5 13t11.5 6.5t13 4.5t9.5 8v6.5v11.5v11.5v7.5q5 55 8.5 116t12.5 121t26 114.5t48 96.5t79.5 66.5
t121.5 24.5q77 0 133.5 -47.5t96 -122.5t64 -167t38 -181.5t18.5 -166t5 -120.5q0 -24 -0.5 -44t-2 -39.5t-4 -40t-7.5 -47.5q-11 -14 -27 -26.5t-35 -12.5q-17 0 -22 8.5t-5 22.5zM581 424q4 0 9.5 1t10 6.5t8 18t5.5 36.5q0 38 -7 87.5t-21.5 101t-37 101.5t-54 88.5
t-72 62.5t-91.5 24q-54 0 -90.5 -28t-59.5 -73t-35 -101.5t-17 -112t-5.5 -105t-0.5 -81.5z" />
    <glyph glyph-name="AE" unicode="&#xc6;" horiz-adv-x="1282" 
d="M611 30q0 22 4.5 45t9.5 45.5t9.5 45.5t4.5 47q0 36 -3 78t-14 80q-38 -7 -76 -5t-76.5 7t-77.5 10.5t-78 5.5q-11 0 -36.5 -0.5t-52 -2t-48.5 -4t-27 -7.5l-12 -12q0 -1 -0.5 -5.5t-0.5 -11t-0.5 -13t-0.5 -10.5q0 -38 6 -76t13.5 -75.5t13.5 -74t6 -72.5v-12
q-19 -18 -35 -12t-28.5 28.5t-21 58.5t-13.5 78t-5.5 86.5t3.5 85.5q-3 3 -10.5 11.5t-15.5 18.5t-15 19t-9 13q-1 2 -1 3v3q0 9 5 13t11.5 6.5t13 4.5t9.5 8v6.5v11.5v11.5v7.5q5 55 8.5 116t12.5 121t26 114.5t48 96.5t79.5 66.5t121.5 24.5q77 0 133.5 -47.5t96 -122.5
t64 -167t38 -181.5t18.5 -166t5 -120.5q0 -24 -0.5 -44t-2 -39.5t-4 -40t-7.5 -47.5q-11 -14 -27 -26.5t-35 -12.5q-17 0 -22 8.5t-5 22.5zM581 424q4 0 9.5 1t10 6.5t8 18t5.5 36.5q0 38 -7 87.5t-21.5 101t-37 101.5t-54 88.5t-72 62.5t-91.5 24q-54 0 -90.5 -28
t-59.5 -73t-35 -101.5t-17 -112t-5.5 -105t-0.5 -81.5zM736 745q-6 0 -9 1q6 -12 6 -17v-237q7 -10 38 -10t74 5t91.5 13t90 15t69.5 11.5t31 2.5q4 0 15 1t23.5 2t23.5 1.5t15 0.5q0 -24 -20 -40.5t-52.5 -27.5t-75 -18t-86.5 -11.5t-86.5 -7t-76.5 -5.5t-56 -7.5
t-24 -12.5q-7 -21 -10 -46.5t-4 -52.5t-0.5 -53t0.5 -48v-17.5t0.5 -26.5t0.5 -26.5v-16.5q5 -14 22.5 -20t38 -7.5t40 -0.5t28.5 1q44 0 88 4t88.5 9.5t88 9.5t87.5 4h7q3 -1 8.5 -2.5t11.5 -3.5t10.5 -4t6.5 -3q3 -1 8 -5.5t5 -6.5q0 -24 -27.5 -40.5t-69 -26.5
t-91.5 -14.5t-94.5 -6t-78 -1.5h-42.5q-52 0 -91.5 8.5t-66 30.5t-40 58.5t-13.5 92.5q0 51 7.5 100t7.5 101q0 21 -7 35t-7 31v7q2 2 9 12t10 13v287q0 21 5 31.5t22 14.5t49 3t87.5 -3.5t137 -4.5t196.5 0q13 -5 26.5 -11t24 -14.5t17.5 -20.5t7 -29q0 -4 -5 -9t-7 -4
l-63 25z" />
    <glyph glyph-name="Ccedilla" unicode="&#xc7;" horiz-adv-x="688" 
d="M24 360q0 51 17 108.5t47 113.5t71.5 107t90 89.5t103 61.5t110.5 23q32 0 47.5 -23.5t15.5 -51.5q0 -16 -7 -39t-19.5 -44t-29 -36t-35.5 -15q0 13 4.5 25t10 23.5t10 23.5t4.5 25q0 18 -15.5 21.5t-29.5 3.5q-2 0 -9.5 -0.5t-9.5 -0.5q-60 -23 -116.5 -61t-100.5 -88
t-70.5 -111t-26.5 -129q0 -45 8.5 -97.5t29.5 -97.5t56.5 -75t89.5 -30q45 0 88.5 8.5t86.5 18t86.5 18t88.5 8.5q11 0 21 -3t10 -17q0 -7 -8.5 -16t-19 -18t-21 -15t-14.5 -7l-300 -63q-2 0 -11 -0.5t-14 -0.5q-43 0 -78 17t-61.5 45.5t-45.5 66t-31 77.5t-17.5 80t-5.5 75
zM171 -281q8 7 15 8.5t16 1.5q22 0 41.5 -12t37.5 -27t35.5 -27t37.5 -12q22 0 39.5 -0.5t30 5t19.5 20t7 45.5q0 40 -18.5 57.5t-47 25.5t-62 12.5t-62.5 19t-48.5 45.5t-20.5 92q1 34 8 48t15.5 14t18 -10.5t15.5 -24t7 -26.5t-5 -19q0 -30 11.5 -47.5t30.5 -26.5
t43.5 -13.5t49.5 -8.5t49.5 -11.5t43.5 -22.5t30.5 -41.5t11.5 -68.5q0 -32 -16.5 -55t-42 -38t-55 -22.5t-56.5 -7.5q-38 0 -63 10.5t-44 28.5t-35 41t-37 47z" />
    <glyph glyph-name="Egrave" unicode="&#xc8;" horiz-adv-x="700" 
d="M122 741q-6 0 -9 1q6 -12 6 -17v-237q7 -10 38 -10t74 5t91.5 13t90 15t69.5 11.5t31 2.5q4 0 15 1t23.5 2t23.5 1.5t15 0.5q0 -24 -20 -40.5t-52.5 -27.5t-75 -18t-86.5 -11.5t-86.5 -7t-76.5 -5.5t-56 -7.5t-24 -12.5q-7 -21 -10 -46.5t-4 -52.5t-0.5 -53t0.5 -48
v-17.5t0.5 -26.5t0.5 -26.5v-16.5q5 -14 22.5 -20t38 -7.5t40 -0.5t28.5 1q44 0 88 4t88.5 9.5t88 9.5t87.5 4h7q3 -1 8.5 -2.5t11.5 -3.5t10.5 -4t6.5 -3q3 -1 8 -5.5t5 -6.5q0 -24 -27.5 -40.5t-69 -26.5t-91.5 -14.5t-94.5 -6t-78 -1.5h-42.5q-52 0 -91.5 8.5t-66 30.5
t-40 58.5t-13.5 92.5q0 51 7.5 100t7.5 101q0 21 -7 35t-7 31v7q2 2 9 12t10 13v287q0 21 5 31.5t22 14.5t49 3t87.5 -3.5t137 -4.5t196.5 0q13 -5 26.5 -11t24 -14.5t17.5 -20.5t7 -29q0 -4 -5 -9t-7 -4l-63 25zM336 1030q15 -13 23.5 -21t16 -14.5t16 -14.5t23.5 -20
q3 -2 8 -11.5t5 -13.5q0 -26 -9.5 -32t-27.5 -6q-2 0 -7 1.5t-17.5 10.5t-34.5 28.5t-58 54.5q-11 15 -20 31.5t-6.5 25.5t22 6.5t66.5 -25.5z" />
    <glyph glyph-name="Eacute" unicode="&#xc9;" horiz-adv-x="700" 
d="M122 741q-6 0 -9 1q6 -12 6 -17v-237q7 -10 38 -10t74 5t91.5 13t90 15t69.5 11.5t31 2.5q4 0 15 1t23.5 2t23.5 1.5t15 0.5q0 -24 -20 -40.5t-52.5 -27.5t-75 -18t-86.5 -11.5t-86.5 -7t-76.5 -5.5t-56 -7.5t-24 -12.5q-7 -21 -10 -46.5t-4 -52.5t-0.5 -53t0.5 -48
v-17.5t0.5 -26.5t0.5 -26.5v-16.5q5 -14 22.5 -20t38 -7.5t40 -0.5t28.5 1q44 0 88 4t88.5 9.5t88 9.5t87.5 4h7q3 -1 8.5 -2.5t11.5 -3.5t10.5 -4t6.5 -3q3 -1 8 -5.5t5 -6.5q0 -24 -27.5 -40.5t-69 -26.5t-91.5 -14.5t-94.5 -6t-78 -1.5h-42.5q-52 0 -91.5 8.5t-66 30.5
t-40 58.5t-13.5 92.5q0 51 7.5 100t7.5 101q0 21 -7 35t-7 31v7q2 2 9 12t10 13v287q0 21 5 31.5t22 14.5t49 3t87.5 -3.5t137 -4.5t196.5 0q13 -5 26.5 -11t24 -14.5t17.5 -20.5t7 -29q0 -4 -5 -9t-7 -4l-63 25zM215 875q0 27 21 52t50 47t59.5 41t50.5 36q28 -14 24.5 -32
t-27.5 -43t-63.5 -57.5t-82.5 -75.5q-19 0 -25.5 6.5t-6.5 25.5z" />
    <glyph glyph-name="Ecircumflex" unicode="&#xca;" horiz-adv-x="700" 
d="M122 741q-6 0 -9 1q6 -12 6 -17v-237q7 -10 38 -10t74 5t91.5 13t90 15t69.5 11.5t31 2.5q4 0 15 1t23.5 2t23.5 1.5t15 0.5q0 -24 -20 -40.5t-52.5 -27.5t-75 -18t-86.5 -11.5t-86.5 -7t-76.5 -5.5t-56 -7.5t-24 -12.5q-7 -21 -10 -46.5t-4 -52.5t-0.5 -53t0.5 -48
v-17.5t0.5 -26.5t0.5 -26.5v-16.5q5 -14 22.5 -20t38 -7.5t40 -0.5t28.5 1q44 0 88 4t88.5 9.5t88 9.5t87.5 4h7q3 -1 8.5 -2.5t11.5 -3.5t10.5 -4t6.5 -3q3 -1 8 -5.5t5 -6.5q0 -24 -27.5 -40.5t-69 -26.5t-91.5 -14.5t-94.5 -6t-78 -1.5h-42.5q-52 0 -91.5 8.5t-66 30.5
t-40 58.5t-13.5 92.5q0 51 7.5 100t7.5 101q0 21 -7 35t-7 31v7q2 2 9 12t10 13v287q0 21 5 31.5t22 14.5t49 3t87.5 -3.5t137 -4.5t196.5 0q13 -5 26.5 -11t24 -14.5t17.5 -20.5t7 -29q0 -4 -5 -9t-7 -4l-63 25zM354 1025q-24 -32 -52 -61.5t-53.5 -46t-47 -12.5t-32.5 40
q37 34 62.5 55t43.5 41.5t30 47.5t24 74q3 10 10.5 11.5t15.5 1.5q18 0 27.5 -9t21.5 -29q8 -13 22 -29t29 -33t28.5 -33.5t21.5 -28.5q9 -15 14 -23.5t7.5 -15.5t3.5 -14.5t1 -20.5q0 -17 -3.5 -28.5t-22.5 -11.5t-35.5 14t-34 34t-37 41t-44.5 36z" />
    <glyph glyph-name="Edieresis" unicode="&#xcb;" horiz-adv-x="700" 
d="M122 741q-6 0 -9 1q6 -12 6 -17v-237q7 -10 38 -10t74 5t91.5 13t90 15t69.5 11.5t31 2.5q4 0 15 1t23.5 2t23.5 1.5t15 0.5q0 -24 -20 -40.5t-52.5 -27.5t-75 -18t-86.5 -11.5t-86.5 -7t-76.5 -5.5t-56 -7.5t-24 -12.5q-7 -21 -10 -46.5t-4 -52.5t-0.5 -53t0.5 -48
v-17.5t0.5 -26.5t0.5 -26.5v-16.5q5 -14 22.5 -20t38 -7.5t40 -0.5t28.5 1q44 0 88 4t88.5 9.5t88 9.5t87.5 4h7q3 -1 8.5 -2.5t11.5 -3.5t10.5 -4t6.5 -3q3 -1 8 -5.5t5 -6.5q0 -24 -27.5 -40.5t-69 -26.5t-91.5 -14.5t-94.5 -6t-78 -1.5h-42.5q-52 0 -91.5 8.5t-66 30.5
t-40 58.5t-13.5 92.5q0 51 7.5 100t7.5 101q0 21 -7 35t-7 31v7q2 2 9 12t10 13v287q0 21 5 31.5t22 14.5t49 3t87.5 -3.5t137 -4.5t196.5 0q13 -5 26.5 -11t24 -14.5t17.5 -20.5t7 -29q0 -4 -5 -9t-7 -4l-63 25zM174 958q0 6 6.5 16.5t15.5 21.5t18.5 19t15.5 8q20 0 35 -7
t24.5 -17.5t14.5 -23.5t5 -24q0 -8 -6.5 -18t-17 -18.5t-23.5 -14.5t-26 -6q-15 0 -26.5 7t-19.5 17.5t-12 21t-4 18.5zM382 958q0 6 6.5 16.5t15.5 21.5t18.5 19t16.5 8q20 0 34.5 -7t24.5 -17.5t14.5 -23.5t4.5 -24q0 -8 -6.5 -18t-17 -18.5t-23.5 -14.5t-26 -6
q-15 0 -26.5 7t-19.5 17.5t-12 21t-4 18.5z" />
    <glyph glyph-name="Igrave" unicode="&#xcc;" horiz-adv-x="225" 
d="M125 50q-7 48 -12.5 100.5t-11 106t-11.5 106t-15 100.5q-4 20 -13 52.5t-18.5 69.5t-16.5 75t-7 69q16 21 31.5 8.5t31 -49t30 -91.5t27.5 -118t23.5 -128.5t18.5 -124t13 -104.5t6 -69v-16t-2 -15t-7.5 -13t-16.5 -9q-8 -2 -16.5 5t-15.5 16t-12 18t-6 11zM62 992
q15 -13 23.5 -21t16 -14.5t16 -14.5t23.5 -20q3 -2 8 -11.5t5 -13.5q0 -26 -9.5 -32t-27.5 -6q-2 0 -7 1.5t-17.5 10.5t-34.5 28.5t-58 54.5q-11 15 -20 31.5t-6.5 25.5t22 6.5t66.5 -25.5z" />
    <glyph glyph-name="Iacute" unicode="&#xcd;" horiz-adv-x="225" 
d="M125 50q-7 48 -12.5 100.5t-11 106t-11.5 106t-15 100.5q-4 20 -13 52.5t-18.5 69.5t-16.5 75t-7 69q16 21 31.5 8.5t31 -49t30 -91.5t27.5 -118t23.5 -128.5t18.5 -124t13 -104.5t6 -69v-16t-2 -15t-7.5 -13t-16.5 -9q-8 -2 -16.5 5t-15.5 16t-12 18t-6 11zM-34 810
q0 27 21 52t50 47t59.5 41t50.5 36q28 -14 24.5 -32t-27.5 -43t-63.5 -57.5t-82.5 -75.5q-19 0 -25.5 6.5t-6.5 25.5z" />
    <glyph glyph-name="Icircumflex" unicode="&#xce;" horiz-adv-x="225" 
d="M125 50q-7 48 -12.5 100.5t-11 106t-11.5 106t-15 100.5q-4 20 -13 52.5t-18.5 69.5t-16.5 75t-7 69q16 21 31.5 8.5t31 -49t30 -91.5t27.5 -118t23.5 -128.5t18.5 -124t13 -104.5t6 -69v-16t-2 -15t-7.5 -13t-16.5 -9q-8 -2 -16.5 5t-15.5 16t-12 18t-6 11zM118 1025
q-24 -32 -52 -61.5t-53.5 -46t-47 -12.5t-32.5 40q37 34 62.5 55t43.5 41.5t30 47.5t24 74q3 10 10.5 11.5t15.5 1.5q18 0 27.5 -9t21.5 -29q8 -13 22 -29t29 -33t28.5 -33.5t21.5 -28.5q9 -15 14 -23.5t7.5 -15.5t3.5 -14.5t1 -20.5q0 -17 -3.5 -28.5t-22.5 -11.5t-35.5 14
t-34 34t-37 41t-44.5 36z" />
    <glyph glyph-name="Idieresis" unicode="&#xcf;" horiz-adv-x="225" 
d="M125 50q-7 48 -12.5 100.5t-11 106t-11.5 106t-15 100.5q-4 20 -13 52.5t-18.5 69.5t-16.5 75t-7 69q16 21 31.5 8.5t31 -49t30 -91.5t27.5 -118t23.5 -128.5t18.5 -124t13 -104.5t6 -69v-16t-2 -15t-7.5 -13t-16.5 -9q-8 -2 -16.5 5t-15.5 16t-12 18t-6 11zM-140 845
q0 6 6.5 16.5t15.5 21.5t18.5 19t15.5 8q20 0 35 -7t24.5 -17.5t14.5 -23.5t5 -24q0 -8 -6.5 -18t-17 -18.5t-23.5 -14.5t-26 -6q-15 0 -26.5 7t-19.5 17.5t-12 21t-4 18.5zM68 845q0 6 6.5 16.5t15.5 21.5t18.5 19t16.5 8q20 0 34.5 -7t24.5 -17.5t14.5 -23.5t4.5 -24
q0 -8 -6.5 -18t-17 -18.5t-23.5 -14.5t-26 -6q-15 0 -26.5 7t-19.5 17.5t-12 21t-4 18.5z" />
    <glyph glyph-name="Ntilde" unicode="&#xd1;" horiz-adv-x="813" 
d="M38 79q0 61 4 122t9 121.5t9 121t4 120.5q0 34 -6.5 65.5t-6.5 64.5v6q3 1 10 3t15 4t15 3.5t10 2.5h12q11 -47 28 -111.5t42.5 -133t59 -135.5t77.5 -119.5t99 -84t123 -30.5q40 0 70 13.5t50 37.5t30 56.5t10 71.5q0 51 -20 94.5t-44 84t-44 81t-20 87.5q0 17 4 28
t23 11q21 0 42 -23t40.5 -60t36.5 -82t29.5 -89t20 -81.5t7.5 -59.5q0 -56 -18 -102.5t-51 -81t-79.5 -53.5t-102.5 -19q-61 0 -110 24t-87.5 60.5t-68 78.5t-50.5 78.5t-35.5 60.5t-23.5 24q-17 0 -25 -12t-11 -28t-3 -33v-27q0 -40 7.5 -76.5t7.5 -76.5q0 -9 -1.5 -23.5
t-6.5 -28.5t-13.5 -24.5t-23.5 -10.5q-13 0 -21.5 9t-13.5 22t-7 26.5t-2 22.5zM531 785q-34 -13 -60.5 -6.5t-50.5 22t-48 35t-51 31.5q-28 2 -44 -6.5t-24.5 -22.5t-11 -31t-3.5 -33t-1.5 -27.5t-4.5 -15t-14 4t-30 30.5q-11 31 -6 59t21 49t40 33.5t51 13.5q2 1 9 1
t22.5 -5.5t41.5 -18.5t67 -38q24 -14 39 -15.5t36 5.5l12.5 5t7.5 5l80 63q16 -1 24.5 -6.5t11.5 -12.5t2 -13.5t-5 -9.5q-35 -29 -54 -46.5t-28 -27.5t-11 -13t-3 -4t-3 -1.5t-12 -3.5z" />
    <glyph glyph-name="Eth" unicode="&#xd0;" horiz-adv-x="988" 
d="M603 488q18 0 39.5 -1t39.5 -7t30 -18.5t12 -36.5q0 -27 -25 -27q-28 0 -52.5 7.5t-54.5 7.5q-23 0 -44.5 -2t-44.5 -5q5 -33 10 -54.5t9 -36.5t6.5 -27.5t3 -26.5t-0.5 -33.5t-5 -49.5q0 -8 -0.5 -17t-3.5 -17t-9.5 -13.5t-18.5 -5.5q-27 -14 -34.5 1.5t-8.5 53.5t-1 94
t-11 123q-36 -5 -72.5 -9.5t-73.5 -4.5q0 26 10.5 43.5t28.5 28.5t42 16.5t50 8.5q-2 12 -6 36.5t-8.5 54t-10.5 61t-12 59t-12.5 47t-11.5 25.5q-93 0 -149.5 -5.5t-89 -13.5t-48 -16.5t-26.5 -14.5q-2 -1 -3 -1q-2 -1 -4 -1t-3 1q-1 0 -2 1q-2 2 -6.5 16t-6.5 21v6
q0 17 19 30t47.5 22t62 15t63 9t49.5 4.5t22 1.5q67 0 142 -15t149 -43.5t141 -70.5t118.5 -97t82 -122.5t30.5 -145.5q0 -72 -22.5 -129.5t-61.5 -100.5t-91 -72t-110.5 -43t-120 -14t-120.5 15q-11 4 -28.5 10.5t-33.5 16.5t-27.5 23t-11.5 30q0 11 3 22t17 11
q6 0 32.5 -7t58.5 -16t61.5 -17t41.5 -10h6q57 0 116 22t107 60.5t78.5 90.5t30.5 112q0 47 -18 92t-49 86t-71.5 76.5t-86 64t-92.5 47.5t-90 27q0 -11 1.5 -31.5t3.5 -46t5 -53t5.5 -53t4.5 -45.5t3 -29q23 0 43.5 1t37.5 3q1 0 13 0.5t17 0.5z" />
    <glyph glyph-name="Ograve" unicode="&#xd2;" horiz-adv-x="813" 
d="M24 363q-3 57 14.5 107t51 87.5t80 61t102.5 27.5q97 -15 186.5 -50t158.5 -89.5t111.5 -128t47.5 -163.5q-13 -68 -54 -107t-95.5 -60.5t-116 -31t-114.5 -17.5q-81 0 -149 26t-117.5 74t-77.5 115t-28 149zM86 369q-1 -60 25.5 -111.5t69.5 -91t96.5 -65t106.5 -33.5
q17 0 47.5 3t65.5 10.5t71 19.5t65.5 30t48 42t18.5 55q-8 64 -39 115t-75 90.5t-96 66.5t-103 43t-95.5 21t-72.5 0q-40 -15 -66 -37.5t-41 -49t-20.5 -54.5t-5.5 -54zM423 914q15 -13 23.5 -21t16 -14.5t16 -14.5t23.5 -20q3 -2 8 -11.5t5 -13.5q0 -26 -9.5 -32t-27.5 -6
q-2 0 -7 1.5t-17.5 10.5t-34.5 28.5t-58 54.5q-11 15 -20 31.5t-6.5 25.5t22 6.5t66.5 -25.5z" />
    <glyph glyph-name="Oacute" unicode="&#xd3;" horiz-adv-x="813" 
d="M24 363q-3 57 14.5 107t51 87.5t80 61t102.5 27.5q97 -15 186.5 -50t158.5 -89.5t111.5 -128t47.5 -163.5q-13 -68 -54 -107t-95.5 -60.5t-116 -31t-114.5 -17.5q-81 0 -149 26t-117.5 74t-77.5 115t-28 149zM86 369q-1 -60 25.5 -111.5t69.5 -91t96.5 -65t106.5 -33.5
q17 0 47.5 3t65.5 10.5t71 19.5t65.5 30t48 42t18.5 55q-8 64 -39 115t-75 90.5t-96 66.5t-103 43t-95.5 21t-72.5 0q-40 -15 -66 -37.5t-41 -49t-20.5 -54.5t-5.5 -54zM278 756q0 27 21 52t50 47t59.5 41t50.5 36q28 -14 24.5 -32t-27.5 -43t-63.5 -57.5t-82.5 -75.5
q-19 0 -25.5 6.5t-6.5 25.5z" />
    <glyph glyph-name="Ocircumflex" unicode="&#xd4;" horiz-adv-x="813" 
d="M24 363q-3 57 14.5 107t51 87.5t80 61t102.5 27.5q97 -15 186.5 -50t158.5 -89.5t111.5 -128t47.5 -163.5q-13 -68 -54 -107t-95.5 -60.5t-116 -31t-114.5 -17.5q-81 0 -149 26t-117.5 74t-77.5 115t-28 149zM86 369q-1 -60 25.5 -111.5t69.5 -91t96.5 -65t106.5 -33.5
q17 0 47.5 3t65.5 10.5t71 19.5t65.5 30t48 42t18.5 55q-8 64 -39 115t-75 90.5t-96 66.5t-103 43t-95.5 21t-72.5 0q-40 -15 -66 -37.5t-41 -49t-20.5 -54.5t-5.5 -54zM295 869q-24 -32 -52 -61.5t-53.5 -46t-47 -12.5t-32.5 40q37 34 62.5 55t43.5 41.5t30 47.5t24 74
q3 10 10.5 11.5t15.5 1.5q18 0 27.5 -9t21.5 -29q8 -13 22 -29t29 -33t28.5 -33.5t21.5 -28.5q9 -15 14 -23.5t7.5 -15.5t3.5 -14.5t1 -20.5q0 -17 -3.5 -28.5t-22.5 -11.5t-35.5 14t-34 34t-37 41t-44.5 36z" />
    <glyph glyph-name="Otilde" unicode="&#xd5;" horiz-adv-x="813" 
d="M24 363q-3 57 14.5 107t51 87.5t80 61t102.5 27.5q97 -15 186.5 -50t158.5 -89.5t111.5 -128t47.5 -163.5q-13 -68 -54 -107t-95.5 -60.5t-116 -31t-114.5 -17.5q-81 0 -149 26t-117.5 74t-77.5 115t-28 149zM86 369q-1 -60 25.5 -111.5t69.5 -91t96.5 -65t106.5 -33.5
q17 0 47.5 3t65.5 10.5t71 19.5t65.5 30t48 42t18.5 55q-8 64 -39 115t-75 90.5t-96 66.5t-103 43t-95.5 21t-72.5 0q-40 -15 -66 -37.5t-41 -49t-20.5 -54.5t-5.5 -54zM460 734q-34 -13 -60.5 -6.5t-50.5 22t-48 35t-51 31.5q-28 2 -44 -6.5t-24.5 -22.5t-11 -31t-3.5 -33
t-1.5 -27.5t-4.5 -15t-14 4t-30 30.5q-11 31 -6 59t21 49t40 33.5t51 13.5q2 1 9 1t22.5 -5.5t41.5 -18.5t67 -38q24 -14 39 -15.5t36 5.5l12.5 5t7.5 5l80 63q16 -1 24.5 -6.5t11.5 -12.5t2 -13.5t-5 -9.5q-35 -29 -54 -46.5t-28 -27.5t-11 -13t-3 -4t-3 -1.5t-12 -3.5z
" />
    <glyph glyph-name="Odieresis" unicode="&#xd6;" horiz-adv-x="813" 
d="M24 363q-3 57 14.5 107t51 87.5t80 61t102.5 27.5q97 -15 186.5 -50t158.5 -89.5t111.5 -128t47.5 -163.5q-13 -68 -54 -107t-95.5 -60.5t-116 -31t-114.5 -17.5q-81 0 -149 26t-117.5 74t-77.5 115t-28 149zM86 369q-1 -60 25.5 -111.5t69.5 -91t96.5 -65t106.5 -33.5
q17 0 47.5 3t65.5 10.5t71 19.5t65.5 30t48 42t18.5 55q-8 64 -39 115t-75 90.5t-96 66.5t-103 43t-95.5 21t-72.5 0q-40 -15 -66 -37.5t-41 -49t-20.5 -54.5t-5.5 -54zM235 835q0 6 6.5 16.5t15.5 21.5t18.5 19t15.5 8q20 0 35 -7t24.5 -17.5t14.5 -23.5t5 -24
q0 -8 -6.5 -18t-17 -18.5t-23.5 -14.5t-26 -6q-15 0 -26.5 7t-19.5 17.5t-12 21t-4 18.5zM443 835q0 6 6.5 16.5t15.5 21.5t18.5 19t16.5 8q20 0 34.5 -7t24.5 -17.5t14.5 -23.5t4.5 -24q0 -8 -6.5 -18t-17 -18.5t-23.5 -14.5t-26 -6q-15 0 -26.5 7t-19.5 17.5t-12 21
t-4 18.5z" />
    <glyph glyph-name="Oslash" unicode="&#xd8;" horiz-adv-x="813" 
d="M24 363q-3 57 14.5 107t51 87.5t80 61t102.5 27.5q97 -15 186.5 -50t158.5 -89.5t111.5 -128t47.5 -163.5q-13 -68 -54 -107t-95.5 -60.5t-116 -31t-114.5 -17.5q-81 0 -149 26t-117.5 74t-77.5 115t-28 149zM86 369q-1 -60 25.5 -111.5t69.5 -91t96.5 -65t106.5 -33.5
q17 0 47.5 3t65.5 10.5t71 19.5t65.5 30t48 42t18.5 55q-8 64 -39 115t-75 90.5t-96 66.5t-103 43t-95.5 21t-72.5 0q-40 -15 -66 -37.5t-41 -49t-20.5 -54.5t-5.5 -54zM165 -91q0 17 8.5 44.5t20.5 56t25 54t21 39.5l213 587q4 18 7.5 45.5t10 54t17 48t27.5 27.5
q12 -3 17.5 -9.5t7.5 -15t1.5 -18t-0.5 -17.5q0 -20 -12 -71t-32.5 -120.5t-47 -152.5t-55.5 -166t-58.5 -160.5t-55.5 -137.5t-46 -96t-31 -36q-17 0 -27.5 15t-10.5 29z" />
    <glyph glyph-name="Ugrave" unicode="&#xd9;" horiz-adv-x="763" 
d="M37 508q0 12 0.5 32.5t2.5 44.5t7.5 49t15 45.5t25 33.5t38.5 13q14 0 22 -8t9 -19.5t-6.5 -24.5t-24.5 -24q-11 0 -17 -17t-8 -38t-2 -40.5v-23.5q0 -33 2.5 -77.5t11 -92.5t23 -95t38 -85t58 -63.5t81.5 -29.5q25 -2 55 5t60.5 20.5t59.5 33.5t51 43.5t35.5 50
t13.5 53.5v6q-9 55 -18.5 91t-16.5 66.5t-11.5 61t-4.5 73.5q4 60 13.5 89t20.5 32.5t22.5 -15.5t20 -53.5t13 -81.5t2.5 -101q1 -40 14.5 -86.5t31 -93.5t35 -90.5t26.5 -77.5t5.5 -55t-28.5 -21t-38.5 16t-23 34.5t-18.5 34.5t-26 16q-19 0 -50.5 -22t-71 -48t-84 -48
t-90.5 -22q-56 0 -98 26.5t-72.5 70t-50.5 98.5t-31.5 111.5t-16.5 109.5t-5 93zM398 914q15 -13 23.5 -21t16 -14.5t16 -14.5t23.5 -20q3 -2 8 -11.5t5 -13.5q0 -26 -9.5 -32t-27.5 -6q-2 0 -7 1.5t-17.5 10.5t-34.5 28.5t-58 54.5q-11 15 -20 31.5t-6.5 25.5t22 6.5
t66.5 -25.5z" />
    <glyph glyph-name="Uacute" unicode="&#xda;" horiz-adv-x="763" 
d="M37 508q0 12 0.5 32.5t2.5 44.5t7.5 49t15 45.5t25 33.5t38.5 13q14 0 22 -8t9 -19.5t-6.5 -24.5t-24.5 -24q-11 0 -17 -17t-8 -38t-2 -40.5v-23.5q0 -33 2.5 -77.5t11 -92.5t23 -95t38 -85t58 -63.5t81.5 -29.5q25 -2 55 5t60.5 20.5t59.5 33.5t51 43.5t35.5 50
t13.5 53.5v6q-9 55 -18.5 91t-16.5 66.5t-11.5 61t-4.5 73.5q4 60 13.5 89t20.5 32.5t22.5 -15.5t20 -53.5t13 -81.5t2.5 -101q1 -40 14.5 -86.5t31 -93.5t35 -90.5t26.5 -77.5t5.5 -55t-28.5 -21t-38.5 16t-23 34.5t-18.5 34.5t-26 16q-19 0 -50.5 -22t-71 -48t-84 -48
t-90.5 -22q-56 0 -98 26.5t-72.5 70t-50.5 98.5t-31.5 111.5t-16.5 109.5t-5 93zM253 756q0 27 21 52t50 47t59.5 41t50.5 36q28 -14 24.5 -32t-27.5 -43t-63.5 -57.5t-82.5 -75.5q-19 0 -25.5 6.5t-6.5 25.5z" />
    <glyph glyph-name="Ucircumflex" unicode="&#xdb;" horiz-adv-x="763" 
d="M37 508q0 12 0.5 32.5t2.5 44.5t7.5 49t15 45.5t25 33.5t38.5 13q14 0 22 -8t9 -19.5t-6.5 -24.5t-24.5 -24q-11 0 -17 -17t-8 -38t-2 -40.5v-23.5q0 -33 2.5 -77.5t11 -92.5t23 -95t38 -85t58 -63.5t81.5 -29.5q25 -2 55 5t60.5 20.5t59.5 33.5t51 43.5t35.5 50
t13.5 53.5v6q-9 55 -18.5 91t-16.5 66.5t-11.5 61t-4.5 73.5q4 60 13.5 89t20.5 32.5t22.5 -15.5t20 -53.5t13 -81.5t2.5 -101q1 -40 14.5 -86.5t31 -93.5t35 -90.5t26.5 -77.5t5.5 -55t-28.5 -21t-38.5 16t-23 34.5t-18.5 34.5t-26 16q-19 0 -50.5 -22t-71 -48t-84 -48
t-90.5 -22q-56 0 -98 26.5t-72.5 70t-50.5 98.5t-31.5 111.5t-16.5 109.5t-5 93zM385 1025q-24 -32 -52 -61.5t-53.5 -46t-47 -12.5t-32.5 40q37 34 62.5 55t43.5 41.5t30 47.5t24 74q3 10 10.5 11.5t15.5 1.5q18 0 27.5 -9t21.5 -29q8 -13 22 -29t29 -33t28.5 -33.5
t21.5 -28.5q9 -15 14 -23.5t7.5 -15.5t3.5 -14.5t1 -20.5q0 -17 -3.5 -28.5t-22.5 -11.5t-35.5 14t-34 34t-37 41t-44.5 36z" />
    <glyph glyph-name="Udieresis" unicode="&#xdc;" horiz-adv-x="763" 
d="M37 508q0 12 0.5 32.5t2.5 44.5t7.5 49t15 45.5t25 33.5t38.5 13q14 0 22 -8t9 -19.5t-6.5 -24.5t-24.5 -24q-11 0 -17 -17t-8 -38t-2 -40.5v-23.5q0 -33 2.5 -77.5t11 -92.5t23 -95t38 -85t58 -63.5t81.5 -29.5q25 -2 55 5t60.5 20.5t59.5 33.5t51 43.5t35.5 50
t13.5 53.5v6q-9 55 -18.5 91t-16.5 66.5t-11.5 61t-4.5 73.5q4 60 13.5 89t20.5 32.5t22.5 -15.5t20 -53.5t13 -81.5t2.5 -101q1 -40 14.5 -86.5t31 -93.5t35 -90.5t26.5 -77.5t5.5 -55t-28.5 -21t-38.5 16t-23 34.5t-18.5 34.5t-26 16q-19 0 -50.5 -22t-71 -48t-84 -48
t-90.5 -22q-56 0 -98 26.5t-72.5 70t-50.5 98.5t-31.5 111.5t-16.5 109.5t-5 93zM210 835q0 6 6.5 16.5t15.5 21.5t18.5 19t15.5 8q20 0 35 -7t24.5 -17.5t14.5 -23.5t5 -24q0 -8 -6.5 -18t-17 -18.5t-23.5 -14.5t-26 -6q-15 0 -26.5 7t-19.5 17.5t-12 21t-4 18.5zM418 835
q0 6 6.5 16.5t15.5 21.5t18.5 19t16.5 8q20 0 34.5 -7t24.5 -17.5t14.5 -23.5t4.5 -24q0 -8 -6.5 -18t-17 -18.5t-23.5 -14.5t-26 -6q-15 0 -26.5 7t-19.5 17.5t-12 21t-4 18.5z" />
    <glyph glyph-name="Yacute" unicode="&#xdd;" horiz-adv-x="538" 
d="M264 5v13.5t-0.5 21t-0.5 21v13.5q0 56 6 100t16.5 85.5t24 85t29.5 98.5q0 2 0.5 9.5t0.5 9.5q1 1 -23 13t-61 34t-80.5 54t-79 75t-57.5 96.5t-16 118.5q1 0 7 0.5t13.5 1t13.5 1t7 0.5q9 -26 25 -58.5t38.5 -66t50 -65.5t58 -57t64 -40t68.5 -15q24 52 38 82t21.5 47
t10 26t4 18.5t3 23.5t6.5 42q0 6 10 11t21.5 6.5t21 -2t10.5 -15.5q0 -72 -16 -136.5t-39.5 -126t-49.5 -122t-45.5 -124t-28 -132.5t3.5 -147q-8 -15 -16 -20.5t-21 -5.5q-14 0 -22 5.5t-16 20.5zM236 929q0 27 21 52t50 47t59.5 41t50.5 36q28 -14 24.5 -32t-27.5 -43
t-63.5 -57.5t-82.5 -75.5q-19 0 -25.5 6.5t-6.5 25.5z" />
    <glyph glyph-name="agrave" unicode="&#xe0;" horiz-adv-x="675" 
d="M24 220q1 23 13 51.5t37 55.5t62.5 48.5t89 30.5t117.5 1.5t147 -39.5q0 1 -1 13t-1 13q0 34 -19.5 68.5t-49.5 62.5t-66 46t-68 18q-14 0 -23.5 -4.5t-18 -9.5t-17.5 -9.5t-20 -4.5q-2 0 -3 1q-1 0 -3 1q-3 2 -7.5 6.5t-4.5 5.5q0 47 32 68.5t75 21.5q52 -5 99.5 -31.5
t86.5 -67.5t69.5 -93t50.5 -108.5t27.5 -114.5t0.5 -111q-1 0 -7.5 0.5t-14 1t-14 1.5l-6.5 1q-27 62 -61 99.5t-67 59t-61.5 30t-46.5 12.5q-19 0 -46 -2.5t-56.5 -9.5t-58 -17.5t-51.5 -26.5t-37 -38t-14 -50q0 -21 12 -37.5t31 -29t42.5 -21t47.5 -14t46 -8t37 -2.5
q36 0 70.5 4t69 9t69 9t68.5 4h9t13 -0.5t13.5 -0.5h8.5q11 -4 12.5 -11.5t1.5 -15.5t-16.5 -17t-42.5 -18.5t-57.5 -18.5t-61.5 -16t-55 -11.5t-37 -4.5q-54 0 -115 9t-112 33.5t-84.5 67t-33.5 110.5zM313 836q15 -13 23.5 -21t16 -14.5t16 -14.5t23.5 -20q3 -2 8 -11.5
t5 -13.5q0 -26 -9.5 -32t-27.5 -6q-2 0 -7 1.5t-17.5 10.5t-34.5 28.5t-58 54.5q-11 15 -20 31.5t-6.5 25.5t22 6.5t66.5 -25.5z" />
    <glyph glyph-name="aacute" unicode="&#xe1;" horiz-adv-x="675" 
d="M24 220q1 23 13 51.5t37 55.5t62.5 48.5t89 30.5t117.5 1.5t147 -39.5q0 1 -1 13t-1 13q0 34 -19.5 68.5t-49.5 62.5t-66 46t-68 18q-14 0 -23.5 -4.5t-18 -9.5t-17.5 -9.5t-20 -4.5q-2 0 -3 1q-1 0 -3 1q-3 2 -7.5 6.5t-4.5 5.5q0 47 32 68.5t75 21.5q52 -5 99.5 -31.5
t86.5 -67.5t69.5 -93t50.5 -108.5t27.5 -114.5t0.5 -111q-1 0 -7.5 0.5t-14 1t-14 1.5l-6.5 1q-27 62 -61 99.5t-67 59t-61.5 30t-46.5 12.5q-19 0 -46 -2.5t-56.5 -9.5t-58 -17.5t-51.5 -26.5t-37 -38t-14 -50q0 -21 12 -37.5t31 -29t42.5 -21t47.5 -14t46 -8t37 -2.5
q36 0 70.5 4t69 9t69 9t68.5 4h9t13 -0.5t13.5 -0.5h8.5q11 -4 12.5 -11.5t1.5 -15.5t-16.5 -17t-42.5 -18.5t-57.5 -18.5t-61.5 -16t-55 -11.5t-37 -4.5q-54 0 -115 9t-112 33.5t-84.5 67t-33.5 110.5zM209 746q0 27 21 52t50 47t59.5 41t50.5 36q28 -14 24.5 -32
t-27.5 -43t-63.5 -57.5t-82.5 -75.5q-19 0 -25.5 6.5t-6.5 25.5z" />
    <glyph glyph-name="acircumflex" unicode="&#xe2;" horiz-adv-x="675" 
d="M24 220q1 23 13 51.5t37 55.5t62.5 48.5t89 30.5t117.5 1.5t147 -39.5q0 1 -1 13t-1 13q0 34 -19.5 68.5t-49.5 62.5t-66 46t-68 18q-14 0 -23.5 -4.5t-18 -9.5t-17.5 -9.5t-20 -4.5q-2 0 -3 1q-1 0 -3 1q-3 2 -7.5 6.5t-4.5 5.5q0 47 32 68.5t75 21.5q52 -5 99.5 -31.5
t86.5 -67.5t69.5 -93t50.5 -108.5t27.5 -114.5t0.5 -111q-1 0 -7.5 0.5t-14 1t-14 1.5l-6.5 1q-27 62 -61 99.5t-67 59t-61.5 30t-46.5 12.5q-19 0 -46 -2.5t-56.5 -9.5t-58 -17.5t-51.5 -26.5t-37 -38t-14 -50q0 -21 12 -37.5t31 -29t42.5 -21t47.5 -14t46 -8t37 -2.5
q36 0 70.5 4t69 9t69 9t68.5 4h9t13 -0.5t13.5 -0.5h8.5q11 -4 12.5 -11.5t1.5 -15.5t-16.5 -17t-42.5 -18.5t-57.5 -18.5t-61.5 -16t-55 -11.5t-37 -4.5q-54 0 -115 9t-112 33.5t-84.5 67t-33.5 110.5zM341 825q-24 -32 -52 -61.5t-53.5 -46t-47 -12.5t-32.5 40
q37 34 62.5 55t43.5 41.5t30 47.5t24 74q3 10 10.5 11.5t15.5 1.5q18 0 27.5 -9t21.5 -29q8 -13 22 -29t29 -33t28.5 -33.5t21.5 -28.5q9 -15 14 -23.5t7.5 -15.5t3.5 -14.5t1 -20.5q0 -17 -3.5 -28.5t-22.5 -11.5t-35.5 14t-34 34t-37 41t-44.5 36z" />
    <glyph glyph-name="atilde" unicode="&#xe3;" horiz-adv-x="675" 
d="M24 220q1 23 13 51.5t37 55.5t62.5 48.5t89 30.5t117.5 1.5t147 -39.5q0 1 -1 13t-1 13q0 34 -19.5 68.5t-49.5 62.5t-66 46t-68 18q-14 0 -23.5 -4.5t-18 -9.5t-17.5 -9.5t-20 -4.5q-2 0 -3 1q-1 0 -3 1q-3 2 -7.5 6.5t-4.5 5.5q0 47 32 68.5t75 21.5q52 -5 99.5 -31.5
t86.5 -67.5t69.5 -93t50.5 -108.5t27.5 -114.5t0.5 -111q-1 0 -7.5 0.5t-14 1t-14 1.5l-6.5 1q-27 62 -61 99.5t-67 59t-61.5 30t-46.5 12.5q-19 0 -46 -2.5t-56.5 -9.5t-58 -17.5t-51.5 -26.5t-37 -38t-14 -50q0 -21 12 -37.5t31 -29t42.5 -21t47.5 -14t46 -8t37 -2.5
q36 0 70.5 4t69 9t69 9t68.5 4h9t13 -0.5t13.5 -0.5h8.5q11 -4 12.5 -11.5t1.5 -15.5t-16.5 -17t-42.5 -18.5t-57.5 -18.5t-61.5 -16t-55 -11.5t-37 -4.5q-54 0 -115 9t-112 33.5t-84.5 67t-33.5 110.5zM442 785q-34 -13 -60.5 -6.5t-50.5 22t-48 35t-51 31.5
q-28 2 -44 -6.5t-24.5 -22.5t-11 -31t-3.5 -33t-1.5 -27.5t-4.5 -15t-14 4t-30 30.5q-11 31 -6 59t21 49t40 33.5t51 13.5q2 1 9 1t22.5 -5.5t41.5 -18.5t67 -38q24 -14 39 -15.5t36 5.5l12.5 5t7.5 5l80 63q16 -1 24.5 -6.5t11.5 -12.5t2 -13.5t-5 -9.5q-35 -29 -54 -46.5
t-28 -27.5t-11 -13t-3 -4t-3 -1.5t-12 -3.5z" />
    <glyph glyph-name="adieresis" unicode="&#xe4;" horiz-adv-x="675" 
d="M24 220q1 23 13 51.5t37 55.5t62.5 48.5t89 30.5t117.5 1.5t147 -39.5q0 1 -1 13t-1 13q0 34 -19.5 68.5t-49.5 62.5t-66 46t-68 18q-14 0 -23.5 -4.5t-18 -9.5t-17.5 -9.5t-20 -4.5q-2 0 -3 1q-1 0 -3 1q-3 2 -7.5 6.5t-4.5 5.5q0 47 32 68.5t75 21.5q52 -5 99.5 -31.5
t86.5 -67.5t69.5 -93t50.5 -108.5t27.5 -114.5t0.5 -111q-1 0 -7.5 0.5t-14 1t-14 1.5l-6.5 1q-27 62 -61 99.5t-67 59t-61.5 30t-46.5 12.5q-19 0 -46 -2.5t-56.5 -9.5t-58 -17.5t-51.5 -26.5t-37 -38t-14 -50q0 -21 12 -37.5t31 -29t42.5 -21t47.5 -14t46 -8t37 -2.5
q36 0 70.5 4t69 9t69 9t68.5 4h9t13 -0.5t13.5 -0.5h8.5q11 -4 12.5 -11.5t1.5 -15.5t-16.5 -17t-42.5 -18.5t-57.5 -18.5t-61.5 -16t-55 -11.5t-37 -4.5q-54 0 -115 9t-112 33.5t-84.5 67t-33.5 110.5zM170 791q0 6 6.5 16.5t15.5 21.5t18.5 19t15.5 8q20 0 35 -7
t24.5 -17.5t14.5 -23.5t5 -24q0 -8 -6.5 -18t-17 -18.5t-23.5 -14.5t-26 -6q-15 0 -26.5 7t-19.5 17.5t-12 21t-4 18.5zM378 791q0 6 6.5 16.5t15.5 21.5t18.5 19t16.5 8q20 0 34.5 -7t24.5 -17.5t14.5 -23.5t4.5 -24q0 -8 -6.5 -18t-17 -18.5t-23.5 -14.5t-26 -6
q-15 0 -26.5 7t-19.5 17.5t-12 21t-4 18.5z" />
    <glyph glyph-name="aring" unicode="&#xe5;" horiz-adv-x="675" 
d="M211 754q0 28 13 50t34 36t47.5 21.5t52.5 7.5q21 0 39 -11t30.5 -28t20 -36.5t7.5 -35.5q0 -27 -11 -48t-29 -35.5t-41.5 -22t-47.5 -7.5q-49 0 -82 29t-33 80zM252 752q0 -32 19.5 -48.5t54.5 -16.5q8 -2 22.5 3.5t28.5 16t23.5 24.5t9.5 29.5t-14.5 31.5t-48.5 31
q-18 0 -35 -3.5t-30.5 -12t-21.5 -22t-8 -33.5zM24 220q1 23 13 51.5t37 55.5t62.5 48.5t89 30.5t117.5 1.5t147 -39.5q0 1 -1 13t-1 13q0 34 -19.5 68.5t-49.5 62.5t-66 46t-68 18q-14 0 -23.5 -4.5t-18 -9.5t-17.5 -9.5t-20 -4.5q-2 0 -3 1q-1 0 -3 1q-3 2 -7.5 6.5
t-4.5 5.5q0 47 32 68.5t75 21.5q52 -5 99.5 -31.5t86.5 -67.5t69.5 -93t50.5 -108.5t27.5 -114.5t0.5 -111q-1 0 -7.5 0.5t-14 1t-14 1.5l-6.5 1q-27 62 -61 99.5t-67 59t-61.5 30t-46.5 12.5q-19 0 -46 -2.5t-56.5 -9.5t-58 -17.5t-51.5 -26.5t-37 -38t-14 -50
q0 -21 12 -37.5t31 -29t42.5 -21t47.5 -14t46 -8t37 -2.5q36 0 70.5 4t69 9t69 9t68.5 4h9t13 -0.5t13.5 -0.5h8.5q11 -4 12.5 -11.5t1.5 -15.5t-16.5 -17t-42.5 -18.5t-57.5 -18.5t-61.5 -16t-55 -11.5t-37 -4.5q-54 0 -115 9t-112 33.5t-84.5 67t-33.5 110.5z" />
    <glyph glyph-name="ae" unicode="&#xe6;" horiz-adv-x="1176" 
d="M24 220q1 23 13 51.5t37 55.5t62.5 48.5t89 30.5t117.5 1.5t147 -39.5q0 1 -1 13t-1 13q0 34 -19.5 68.5t-49.5 62.5t-66 46t-68 18q-14 0 -23.5 -4.5t-18 -9.5t-17.5 -9.5t-20 -4.5q-2 0 -3 1q-1 0 -3 1q-3 2 -7.5 6.5t-4.5 5.5q0 47 32 68.5t75 21.5q52 -5 99.5 -31.5
t86.5 -67.5t69.5 -93t50.5 -108.5t27.5 -114.5t0.5 -111q-1 0 -7.5 0.5t-14 1t-14 1.5l-6.5 1q-27 62 -61 99.5t-67 59t-61.5 30t-46.5 12.5q-19 0 -46 -2.5t-56.5 -9.5t-58 -17.5t-51.5 -26.5t-37 -38t-14 -50q0 -21 12 -37.5t31 -29t42.5 -21t47.5 -14t46 -8t37 -2.5
q36 0 70.5 4t69 9t69 9t68.5 4h9t13 -0.5t13.5 -0.5h8.5q11 -4 12.5 -11.5t1.5 -15.5t-16.5 -17t-42.5 -18.5t-57.5 -18.5t-61.5 -16t-55 -11.5t-37 -4.5q-54 0 -115 9t-112 33.5t-84.5 67t-33.5 110.5zM536 319q0 67 20 129t58.5 108.5t94.5 74.5t128 28q86 -11 127 -67
t38 -136q0 -47 -27.5 -84.5t-69 -63t-90 -39t-90.5 -13.5q-16 0 -32 0.5t-28.5 5.5t-20.5 16t-8 31q0 6 2 10.5t10.5 6.5t26.5 0.5t50 -6.5q18 0 53 12t70.5 31.5t62 44.5t26.5 50t-9 50.5t-25.5 45.5t-39.5 31.5t-51 9.5q-45 -4 -82.5 -25t-63.5 -54t-40.5 -73.5
t-14.5 -83.5q0 -34 1.5 -68.5t10 -67.5t27.5 -62t54.5 -52t90 -38t135.5 -19l232 16q-21 -28 -52.5 -47t-66.5 -30t-71 -16t-66 -5q-75 0 -142 24.5t-118 70t-80.5 110t-29.5 144.5z" />
    <glyph glyph-name="ccedilla" unicode="&#xe7;" horiz-adv-x="600" 
d="M24 290q0 58 22.5 112t61 95.5t89.5 66.5t108 25q25 0 55 -5.5t56 -19t43 -35t17 -53.5q0 -6 -3.5 -21.5t-9 -31.5t-12.5 -28t-13 -12q0 31 -8.5 57t-25 45t-41 30t-57.5 11q-50 0 -88.5 -20.5t-64.5 -54.5t-40 -76.5t-14 -86.5q0 -59 20 -98.5t53.5 -64t78 -36t93 -15.5
t98.5 -2.5t96 3.5q4 0 13.5 -5t11.5 -7v-3q0 -2 0.5 -2.5t0.5 -1.5q0 -23 -28.5 -34.5t-65.5 -16.5t-71 -5.5t-46 -0.5q-75 0 -136 17t-103.5 52t-66 90t-23.5 132zM168 -271q8 7 15 8.5t16 1.5q22 0 41.5 -12t37.5 -27t35.5 -27t37.5 -12q22 0 39.5 -0.5t30 5t19.5 20
t7 45.5q0 40 -18.5 57.5t-47 25.5t-62 12.5t-62.5 19t-48.5 45.5t-20.5 92q1 34 8 48t15.5 14t18 -10.5t15.5 -24t7 -26.5t-5 -19q0 -30 11.5 -47.5t30.5 -26.5t43.5 -13.5t49.5 -8.5t49.5 -11.5t43.5 -22.5t30.5 -41.5t11.5 -68.5q0 -32 -16.5 -55t-42 -38t-55 -22.5
t-56.5 -7.5q-38 0 -63 10.5t-44 28.5t-35 41t-37 47z" />
    <glyph glyph-name="egrave" unicode="&#xe8;" horiz-adv-x="688" 
d="M24 349q0 67 20 129t58.5 108.5t94.5 74.5t128 28q86 -11 127 -67t38 -136q0 -47 -27.5 -84.5t-69 -63t-90 -39t-90.5 -13.5q-16 0 -32 0.5t-28.5 5.5t-20.5 16t-8 31q0 6 2 10.5t10.5 6.5t26.5 0.5t50 -6.5q18 0 53 12t70.5 31.5t62 44.5t26.5 50t-9 50.5t-25.5 45.5
t-39.5 31.5t-51 9.5q-45 -4 -82.5 -25t-63.5 -54t-40.5 -73.5t-14.5 -83.5q0 -34 1.5 -68.5t10 -67.5t27.5 -62t54.5 -52t90 -38t135.5 -19l232 16q-21 -28 -52.5 -47t-66.5 -30t-71 -16t-66 -5q-75 0 -142 24.5t-118 70t-80.5 110t-29.5 144.5zM286 860q15 -13 23.5 -21
t16 -14.5t16 -14.5t23.5 -20q3 -2 8 -11.5t5 -13.5q0 -26 -9.5 -32t-27.5 -6q-2 0 -7 1.5t-17.5 10.5t-34.5 28.5t-58 54.5q-11 15 -20 31.5t-6.5 25.5t22 6.5t66.5 -25.5z" />
    <glyph glyph-name="eacute" unicode="&#xe9;" horiz-adv-x="688" 
d="M24 349q0 67 20 129t58.5 108.5t94.5 74.5t128 28q86 -11 127 -67t38 -136q0 -47 -27.5 -84.5t-69 -63t-90 -39t-90.5 -13.5q-16 0 -32 0.5t-28.5 5.5t-20.5 16t-8 31q0 6 2 10.5t10.5 6.5t26.5 0.5t50 -6.5q18 0 53 12t70.5 31.5t62 44.5t26.5 50t-9 50.5t-25.5 45.5
t-39.5 31.5t-51 9.5q-45 -4 -82.5 -25t-63.5 -54t-40.5 -73.5t-14.5 -83.5q0 -34 1.5 -68.5t10 -67.5t27.5 -62t54.5 -52t90 -38t135.5 -19l232 16q-21 -28 -52.5 -47t-66.5 -30t-71 -16t-66 -5q-75 0 -142 24.5t-118 70t-80.5 110t-29.5 144.5zM193 760q0 27 21 52t50 47
t59.5 41t50.5 36q28 -14 24.5 -32t-27.5 -43t-63.5 -57.5t-82.5 -75.5q-19 0 -25.5 6.5t-6.5 25.5z" />
    <glyph glyph-name="ecircumflex" unicode="&#xea;" horiz-adv-x="688" 
d="M24 349q0 67 20 129t58.5 108.5t94.5 74.5t128 28q86 -11 127 -67t38 -136q0 -47 -27.5 -84.5t-69 -63t-90 -39t-90.5 -13.5q-16 0 -32 0.5t-28.5 5.5t-20.5 16t-8 31q0 6 2 10.5t10.5 6.5t26.5 0.5t50 -6.5q18 0 53 12t70.5 31.5t62 44.5t26.5 50t-9 50.5t-25.5 45.5
t-39.5 31.5t-51 9.5q-45 -4 -82.5 -25t-63.5 -54t-40.5 -73.5t-14.5 -83.5q0 -34 1.5 -68.5t10 -67.5t27.5 -62t54.5 -52t90 -38t135.5 -19l232 16q-21 -28 -52.5 -47t-66.5 -30t-71 -16t-66 -5q-75 0 -142 24.5t-118 70t-80.5 110t-29.5 144.5zM348 825q-24 -32 -52 -61.5
t-53.5 -46t-47 -12.5t-32.5 40q37 34 62.5 55t43.5 41.5t30 47.5t24 74q3 10 10.5 11.5t15.5 1.5q18 0 27.5 -9t21.5 -29q8 -13 22 -29t29 -33t28.5 -33.5t21.5 -28.5q9 -15 14 -23.5t7.5 -15.5t3.5 -14.5t1 -20.5q0 -17 -3.5 -28.5t-22.5 -11.5t-35.5 14t-34 34t-37 41
t-44.5 36z" />
    <glyph glyph-name="edieresis" unicode="&#xeb;" horiz-adv-x="688" 
d="M24 349q0 67 20 129t58.5 108.5t94.5 74.5t128 28q86 -11 127 -67t38 -136q0 -47 -27.5 -84.5t-69 -63t-90 -39t-90.5 -13.5q-16 0 -32 0.5t-28.5 5.5t-20.5 16t-8 31q0 6 2 10.5t10.5 6.5t26.5 0.5t50 -6.5q18 0 53 12t70.5 31.5t62 44.5t26.5 50t-9 50.5t-25.5 45.5
t-39.5 31.5t-51 9.5q-45 -4 -82.5 -25t-63.5 -54t-40.5 -73.5t-14.5 -83.5q0 -34 1.5 -68.5t10 -67.5t27.5 -62t54.5 -52t90 -38t135.5 -19l232 16q-21 -28 -52.5 -47t-66.5 -30t-71 -16t-66 -5q-75 0 -142 24.5t-118 70t-80.5 110t-29.5 144.5zM145 775q0 6 6.5 16.5
t15.5 21.5t18.5 19t15.5 8q20 0 35 -7t24.5 -17.5t14.5 -23.5t5 -24q0 -8 -6.5 -18t-17 -18.5t-23.5 -14.5t-26 -6q-15 0 -26.5 7t-19.5 17.5t-12 21t-4 18.5zM353 775q0 6 6.5 16.5t15.5 21.5t18.5 19t16.5 8q20 0 34.5 -7t24.5 -17.5t14.5 -23.5t4.5 -24q0 -8 -6.5 -18
t-17 -18.5t-23.5 -14.5t-26 -6q-15 0 -26.5 7t-19.5 17.5t-12 21t-4 18.5z" />
    <glyph glyph-name="igrave" unicode="&#xec;" horiz-adv-x="233" 
d="M82 450v20t0.5 30t0.5 30v20q-6 40 24 40q14 0 22.5 -6.5t16.5 -20.5q-4 -68 5.5 -131t22 -124.5t24 -124t11.5 -129.5q0 -18 -11.5 -36.5t-33.5 -18.5q-16 0 -28.5 29.5t-22 74.5t-15.5 99.5t-9.5 104.5t-5 89t-1.5 54zM109 768q15 -13 23.5 -21t16 -14.5t16 -14.5
t23.5 -20q3 -2 8 -11.5t5 -13.5q0 -26 -9.5 -32t-27.5 -6q-2 0 -7 1.5t-17.5 10.5t-34.5 28.5t-58 54.5q-11 15 -20 31.5t-6.5 25.5t22 6.5t66.5 -25.5z" />
    <glyph glyph-name="iacute" unicode="&#xed;" horiz-adv-x="233" 
d="M82 450v20t0.5 30t0.5 30v20q-6 40 24 40q14 0 22.5 -6.5t16.5 -20.5q-4 -68 5.5 -131t22 -124.5t24 -124t11.5 -129.5q0 -18 -11.5 -36.5t-33.5 -18.5q-16 0 -28.5 29.5t-22 74.5t-15.5 99.5t-9.5 104.5t-5 89t-1.5 54zM-14 658q0 27 21 52t50 47t59.5 41t50.5 36
q28 -14 24.5 -32t-27.5 -43t-63.5 -57.5t-82.5 -75.5q-19 0 -25.5 6.5t-6.5 25.5z" />
    <glyph glyph-name="icircumflex" unicode="&#xee;" horiz-adv-x="233" 
d="M82 450v20t0.5 30t0.5 30v20q-6 40 24 40q14 0 22.5 -6.5t16.5 -20.5q-4 -68 5.5 -131t22 -124.5t24 -124t11.5 -129.5q0 -18 -11.5 -36.5t-33.5 -18.5q-16 0 -28.5 29.5t-22 74.5t-15.5 99.5t-9.5 104.5t-5 89t-1.5 54zM121 825q-24 -32 -52 -61.5t-53.5 -46t-47 -12.5
t-32.5 40q37 34 62.5 55t43.5 41.5t30 47.5t24 74q3 10 10.5 11.5t15.5 1.5q18 0 27.5 -9t21.5 -29q8 -13 22 -29t29 -33t28.5 -33.5t21.5 -28.5q9 -15 14 -23.5t7.5 -15.5t3.5 -14.5t1 -20.5q0 -17 -3.5 -28.5t-22.5 -11.5t-35.5 14t-34 34t-37 41t-44.5 36z" />
    <glyph glyph-name="idieresis" unicode="&#xef;" horiz-adv-x="233" 
d="M82 450v20t0.5 30t0.5 30v20q-6 40 24 40q14 0 22.5 -6.5t16.5 -20.5q-4 -68 5.5 -131t22 -124.5t24 -124t11.5 -129.5q0 -18 -11.5 -36.5t-33.5 -18.5q-16 0 -28.5 29.5t-22 74.5t-15.5 99.5t-9.5 104.5t-5 89t-1.5 54zM-65 713q0 6 6.5 16.5t15.5 21.5t18.5 19t15.5 8
q20 0 35 -7t24.5 -17.5t14.5 -23.5t5 -24q0 -8 -6.5 -18t-17 -18.5t-23.5 -14.5t-26 -6q-15 0 -26.5 7t-19.5 17.5t-12 21t-4 18.5zM143 713q0 6 6.5 16.5t15.5 21.5t18.5 19t16.5 8q20 0 34.5 -7t24.5 -17.5t14.5 -23.5t4.5 -24q0 -8 -6.5 -18t-17 -18.5t-23.5 -14.5
t-26 -6q-15 0 -26.5 7t-19.5 17.5t-12 21t-4 18.5z" />
    <glyph glyph-name="ntilde" unicode="&#xf1;" horiz-adv-x="613" 
d="M38 508q0 11 8.5 14.5t17.5 3.5q8 0 11.5 -4t5 -9.5t4 -9.5t9.5 -4q18 0 44 14t57 31.5t65 31.5t68 14q45 0 82 -23t66 -60.5t50 -85t35 -96t21 -94.5t7 -80q0 -11 -2 -34.5t-7 -47t-15 -41t-26 -17.5q-3 0 -9.5 0.5t-12.5 2t-11 4.5t-5 7q11 101 0 189.5t-37 154.5
t-64 105t-81 40q-40 0 -75 -13.5t-61.5 -38.5t-41.5 -60t-15 -77q0 -41 8 -82t17.5 -82t17.5 -82.5t8 -83.5q-36 0 -60.5 30t-40 77t-23.5 105.5t-11.5 115.5t-3.5 106v79zM390 698q-34 -13 -60.5 -6.5t-50.5 22t-48 35t-51 31.5q-28 2 -44 -6.5t-24.5 -22.5t-11 -31
t-3.5 -33t-1.5 -27.5t-4.5 -15t-14 4t-30 30.5q-11 31 -6 59t21 49t40 33.5t51 13.5q2 1 9 1t22.5 -5.5t41.5 -18.5t67 -38q24 -14 39 -15.5t36 5.5l12.5 5t7.5 5l80 63q16 -1 24.5 -6.5t11.5 -12.5t2 -13.5t-5 -9.5q-35 -29 -54 -46.5t-28 -27.5t-11 -13t-3 -4t-3 -1.5
t-12 -3.5z" />
    <glyph glyph-name="ograve" unicode="&#xf2;" 
d="M24 266q0 71 31.5 125t82 90t114 54t127.5 18q49 0 92 -27.5t74 -68.5t49 -89t18 -89q0 -66 -26.5 -118t-70 -88t-99.5 -55t-115 -19t-110 18.5t-88 53t-58 84t-21 111.5zM88 275q0 -40 15.5 -76.5t42 -64t62.5 -44t78 -16.5q23 -3 54.5 6.5t63.5 29t61.5 46.5t48.5 58.5
t24 66t-11.5 69t-59 67t-117.5 59.5q-43 0 -89.5 -12.5t-84.5 -37.5t-63 -63t-25 -88zM341 714q15 -13 23.5 -21t16 -14.5t16 -14.5t23.5 -20q3 -2 8 -11.5t5 -13.5q0 -26 -9.5 -32t-27.5 -6q-2 0 -7 1.5t-17.5 10.5t-34.5 28.5t-58 54.5q-11 15 -20 31.5t-6.5 25.5t22 6.5
t66.5 -25.5z" />
    <glyph glyph-name="oacute" unicode="&#xf3;" 
d="M24 266q0 71 31.5 125t82 90t114 54t127.5 18q49 0 92 -27.5t74 -68.5t49 -89t18 -89q0 -66 -26.5 -118t-70 -88t-99.5 -55t-115 -19t-110 18.5t-88 53t-58 84t-21 111.5zM88 275q0 -40 15.5 -76.5t42 -64t62.5 -44t78 -16.5q23 -3 54.5 6.5t63.5 29t61.5 46.5t48.5 58.5
t24 66t-11.5 69t-59 67t-117.5 59.5q-43 0 -89.5 -12.5t-84.5 -37.5t-63 -63t-25 -88zM204 631q0 27 21 52t50 47t59.5 41t50.5 36q28 -14 24.5 -32t-27.5 -43t-63.5 -57.5t-82.5 -75.5q-19 0 -25.5 6.5t-6.5 25.5z" />
    <glyph glyph-name="ocircumflex" unicode="&#xf4;" 
d="M24 266q0 71 31.5 125t82 90t114 54t127.5 18q49 0 92 -27.5t74 -68.5t49 -89t18 -89q0 -66 -26.5 -118t-70 -88t-99.5 -55t-115 -19t-110 18.5t-88 53t-58 84t-21 111.5zM88 275q0 -40 15.5 -76.5t42 -64t62.5 -44t78 -16.5q23 -3 54.5 6.5t63.5 29t61.5 46.5t48.5 58.5
t24 66t-11.5 69t-59 67t-117.5 59.5q-43 0 -89.5 -12.5t-84.5 -37.5t-63 -63t-25 -88zM318 728q-24 -32 -52 -61.5t-53.5 -46t-47 -12.5t-32.5 40q37 34 62.5 55t43.5 41.5t30 47.5t24 74q3 10 10.5 11.5t15.5 1.5q18 0 27.5 -9t21.5 -29q8 -13 22 -29t29 -33t28.5 -33.5
t21.5 -28.5q9 -15 14 -23.5t7.5 -15.5t3.5 -14.5t1 -20.5q0 -17 -3.5 -28.5t-22.5 -11.5t-35.5 14t-34 34t-37 41t-44.5 36z" />
    <glyph glyph-name="otilde" unicode="&#xf5;" 
d="M24 266q0 71 31.5 125t82 90t114 54t127.5 18q49 0 92 -27.5t74 -68.5t49 -89t18 -89q0 -66 -26.5 -118t-70 -88t-99.5 -55t-115 -19t-110 18.5t-88 53t-58 84t-21 111.5zM88 275q0 -40 15.5 -76.5t42 -64t62.5 -44t78 -16.5q23 -3 54.5 6.5t63.5 29t61.5 46.5t48.5 58.5
t24 66t-11.5 69t-59 67t-117.5 59.5q-43 0 -89.5 -12.5t-84.5 -37.5t-63 -63t-25 -88zM450 585q-34 -13 -60.5 -6.5t-50.5 22t-48 35t-51 31.5q-28 2 -44 -6.5t-24.5 -22.5t-11 -31t-3.5 -33t-1.5 -27.5t-4.5 -15t-14 4t-30 30.5q-11 31 -6 59t21 49t40 33.5t51 13.5
q2 1 9 1t22.5 -5.5t41.5 -18.5t67 -38q24 -14 39 -15.5t36 5.5l12.5 5t7.5 5l80 63q16 -1 24.5 -6.5t11.5 -12.5t2 -13.5t-5 -9.5q-35 -29 -54 -46.5t-28 -27.5t-11 -13t-3 -4t-3 -1.5t-12 -3.5z" />
    <glyph glyph-name="odieresis" unicode="&#xf6;" 
d="M24 266q0 71 31.5 125t82 90t114 54t127.5 18q49 0 92 -27.5t74 -68.5t49 -89t18 -89q0 -66 -26.5 -118t-70 -88t-99.5 -55t-115 -19t-110 18.5t-88 53t-58 84t-21 111.5zM88 275q0 -40 15.5 -76.5t42 -64t62.5 -44t78 -16.5q23 -3 54.5 6.5t63.5 29t61.5 46.5t48.5 58.5
t24 66t-11.5 69t-59 67t-117.5 59.5q-43 0 -89.5 -12.5t-84.5 -37.5t-63 -63t-25 -88zM153 635q0 6 6.5 16.5t15.5 21.5t18.5 19t15.5 8q20 0 35 -7t24.5 -17.5t14.5 -23.5t5 -24q0 -8 -6.5 -18t-17 -18.5t-23.5 -14.5t-26 -6q-15 0 -26.5 7t-19.5 17.5t-12 21t-4 18.5z
M361 635q0 6 6.5 16.5t15.5 21.5t18.5 19t16.5 8q20 0 34.5 -7t24.5 -17.5t14.5 -23.5t4.5 -24q0 -8 -6.5 -18t-17 -18.5t-23.5 -14.5t-26 -6q-15 0 -26.5 7t-19.5 17.5t-12 21t-4 18.5z" />
    <glyph glyph-name="oslash" unicode="&#xf8;" 
d="M24 266q0 71 31.5 125t82 90t114 54t127.5 18q49 0 92 -27.5t74 -68.5t49 -89t18 -89q0 -66 -26.5 -118t-70 -88t-99.5 -55t-115 -19t-110 18.5t-88 53t-58 84t-21 111.5zM88 275q0 -40 15.5 -76.5t42 -64t62.5 -44t78 -16.5q23 -3 54.5 6.5t63.5 29t61.5 46.5t48.5 58.5
t24 66t-11.5 69t-59 67t-117.5 59.5q-43 0 -89.5 -12.5t-84.5 -37.5t-63 -63t-25 -88zM75.0127 27.0596q0 10.4551 9.81641 27.3672t23.6748 34.4395q13.8574 17.5273 28.8711 33.209q15.0127 15.6826 24.252 24.292l245.981 361q4.62012 11.0693 8.66211 27.9814
q4.04199 16.9131 11.5479 33.21q7.50684 16.2969 19.6328 29.5195t31.7578 16.9121q13.8584 -1.84473 20.21 -5.84277q6.35156 -3.99707 8.66113 -9.22461t1.73242 -11.0693q-0.577148 -5.84277 -0.577148 -10.7627q0 -12.2998 -13.8584 -43.6641t-37.5322 -74.1064
q-23.6748 -42.7422 -54.2783 -93.7861t-64.0938 -102.089q-33.4902 -51.0439 -67.5586 -98.7051q-34.0674 -47.6621 -64.0938 -84.5615t-53.123 -59.0391t-35.7998 -22.1396q-19.6328 0 -31.7588 9.22461t-12.126 17.835z" />
    <glyph glyph-name="ugrave" unicode="&#xf9;" horiz-adv-x="670" 
d="M500 188q-30 -17 -51.5 -40.5t-44 -45.5t-49.5 -37.5t-67 -15.5q-47 0 -85 20.5t-67.5 54.5t-51 78t-35.5 90t-20.5 91t-6.5 82q-7 47 -2.5 80t15.5 53t25 27.5t25 2.5t16 -21.5t-1 -43.5q-2 -5 -4 -16t-3.5 -23t-3 -22t-1.5 -14q0 -27 5.5 -64.5t16.5 -77.5t28 -80
t40.5 -71t54 -50.5t67.5 -19.5q23 0 53 23t57 55t45.5 66t19.5 56q0 12 0.5 42.5t0.5 64.5t-0.5 64t-0.5 42q8 14 16.5 20.5t22.5 6.5q16 0 26 -21t16 -53t9 -70.5t4 -73.5t2 -61.5t4 -35.5q7 -26 19.5 -58.5t24.5 -63t20.5 -56t8.5 -38.5q0 -20 -11 -23.5t-28 -3.5
q-20 0 -30 10t-15 26.5t-7.5 36.5t-8 40t-16.5 38t-32 30zM262 874q15 -13 23.5 -21t16 -14.5t16 -14.5t23.5 -20q3 -2 8 -11.5t5 -13.5q0 -26 -9.5 -32t-27.5 -6q-2 0 -7 1.5t-17.5 10.5t-34.5 28.5t-58 54.5q-11 15 -20 31.5t-6.5 25.5t22 6.5t66.5 -25.5z" />
    <glyph glyph-name="uacute" unicode="&#xfa;" horiz-adv-x="670" 
d="M500 188q-30 -17 -51.5 -40.5t-44 -45.5t-49.5 -37.5t-67 -15.5q-47 0 -85 20.5t-67.5 54.5t-51 78t-35.5 90t-20.5 91t-6.5 82q-7 47 -2.5 80t15.5 53t25 27.5t25 2.5t16 -21.5t-1 -43.5q-2 -5 -4 -16t-3.5 -23t-3 -22t-1.5 -14q0 -27 5.5 -64.5t16.5 -77.5t28 -80
t40.5 -71t54 -50.5t67.5 -19.5q23 0 53 23t57 55t45.5 66t19.5 56q0 12 0.5 42.5t0.5 64.5t-0.5 64t-0.5 42q8 14 16.5 20.5t22.5 6.5q16 0 26 -21t16 -53t9 -70.5t4 -73.5t2 -61.5t4 -35.5q7 -26 19.5 -58.5t24.5 -63t20.5 -56t8.5 -38.5q0 -20 -11 -23.5t-28 -3.5
q-20 0 -30 10t-15 26.5t-7.5 36.5t-8 40t-16.5 38t-32 30zM211 729q0 27 21 52t50 47t59.5 41t50.5 36q28 -14 24.5 -32t-27.5 -43t-63.5 -57.5t-82.5 -75.5q-19 0 -25.5 6.5t-6.5 25.5z" />
    <glyph glyph-name="ucircumflex" unicode="&#xfb;" horiz-adv-x="670" 
d="M500 188q-30 -17 -51.5 -40.5t-44 -45.5t-49.5 -37.5t-67 -15.5q-47 0 -85 20.5t-67.5 54.5t-51 78t-35.5 90t-20.5 91t-6.5 82q-7 47 -2.5 80t15.5 53t25 27.5t25 2.5t16 -21.5t-1 -43.5q-2 -5 -4 -16t-3.5 -23t-3 -22t-1.5 -14q0 -27 5.5 -64.5t16.5 -77.5t28 -80
t40.5 -71t54 -50.5t67.5 -19.5q23 0 53 23t57 55t45.5 66t19.5 56q0 12 0.5 42.5t0.5 64.5t-0.5 64t-0.5 42q8 14 16.5 20.5t22.5 6.5q16 0 26 -21t16 -53t9 -70.5t4 -73.5t2 -61.5t4 -35.5q7 -26 19.5 -58.5t24.5 -63t20.5 -56t8.5 -38.5q0 -20 -11 -23.5t-28 -3.5
q-20 0 -30 10t-15 26.5t-7.5 36.5t-8 40t-16.5 38t-32 30zM339 825q-24 -32 -52 -61.5t-53.5 -46t-47 -12.5t-32.5 40q37 34 62.5 55t43.5 41.5t30 47.5t24 74q3 10 10.5 11.5t15.5 1.5q18 0 27.5 -9t21.5 -29q8 -13 22 -29t29 -33t28.5 -33.5t21.5 -28.5q9 -15 14 -23.5
t7.5 -15.5t3.5 -14.5t1 -20.5q0 -17 -3.5 -28.5t-22.5 -11.5t-35.5 14t-34 34t-37 41t-44.5 36z" />
    <glyph glyph-name="udieresis" unicode="&#xfc;" horiz-adv-x="670" 
d="M500 188q-30 -17 -51.5 -40.5t-44 -45.5t-49.5 -37.5t-67 -15.5q-47 0 -85 20.5t-67.5 54.5t-51 78t-35.5 90t-20.5 91t-6.5 82q-7 47 -2.5 80t15.5 53t25 27.5t25 2.5t16 -21.5t-1 -43.5q-2 -5 -4 -16t-3.5 -23t-3 -22t-1.5 -14q0 -27 5.5 -64.5t16.5 -77.5t28 -80
t40.5 -71t54 -50.5t67.5 -19.5q23 0 53 23t57 55t45.5 66t19.5 56q0 12 0.5 42.5t0.5 64.5t-0.5 64t-0.5 42q8 14 16.5 20.5t22.5 6.5q16 0 26 -21t16 -53t9 -70.5t4 -73.5t2 -61.5t4 -35.5q7 -26 19.5 -58.5t24.5 -63t20.5 -56t8.5 -38.5q0 -20 -11 -23.5t-28 -3.5
q-20 0 -30 10t-15 26.5t-7.5 36.5t-8 40t-16.5 38t-32 30zM132 747q0 6 6.5 16.5t15.5 21.5t18.5 19t15.5 8q20 0 35 -7t24.5 -17.5t14.5 -23.5t5 -24q0 -8 -6.5 -18t-17 -18.5t-23.5 -14.5t-26 -6q-15 0 -26.5 7t-19.5 17.5t-12 21t-4 18.5zM340 747q0 6 6.5 16.5
t15.5 21.5t18.5 19t16.5 8q20 0 34.5 -7t24.5 -17.5t14.5 -23.5t4.5 -24q0 -8 -6.5 -18t-17 -18.5t-23.5 -14.5t-26 -6q-15 0 -26.5 7t-19.5 17.5t-12 21t-4 18.5z" />
    <glyph glyph-name="yacute" unicode="&#xfd;" 
d="M61 -406q0 18 2.5 31.5t24.5 13.5q20 -23 51.5 -57.5t69.5 -67.5t81 -57t87 -25q37 1 63.5 19t44.5 46.5t29.5 65t18.5 73.5t10.5 72.5t7.5 62.5q2 13 5.5 43t7 67.5t5 78t-1 73.5t-10 54.5t-23.5 21.5q-22 0 -47 -13.5t-51.5 -29t-53.5 -29t-54 -13.5q-48 0 -89.5 20
t-75.5 53t-60 76.5t-43.5 90.5t-26.5 94t-9 88q0 9 -1 30.5t1 43.5t10.5 38.5t28.5 16.5q7 0 11.5 -35t13 -88t23 -114.5t41 -114.5t67 -88t100.5 -35q30 0 60.5 12t58 31.5t50.5 44t37 50.5q0 5 -1 24.5t-2 45.5t-2.5 56t-2.5 56t-1.5 45.5t-0.5 25.5q1 79 10.5 97
t22.5 -11t27.5 -96.5t26.5 -158t19.5 -197.5t6 -214.5t-13.5 -207.5t-39.5 -178t-71.5 -125.5t-110 -50.5q-27 0 -62 10t-72 27t-72.5 40.5t-63.5 50.5t-45 57t-17 60zM201 719q0 27 21 52t50 47t59.5 41t50.5 36q28 -14 24.5 -32t-27.5 -43t-63.5 -57.5t-82.5 -75.5
q-19 0 -25.5 6.5t-6.5 25.5z" />
    <glyph glyph-name="ydieresis" unicode="&#xff;" 
d="M61 -406q0 18 2.5 31.5t24.5 13.5q20 -23 51.5 -57.5t69.5 -67.5t81 -57t87 -25q37 1 63.5 19t44.5 46.5t29.5 65t18.5 73.5t10.5 72.5t7.5 62.5q2 13 5.5 43t7 67.5t5 78t-1 73.5t-10 54.5t-23.5 21.5q-22 0 -47 -13.5t-51.5 -29t-53.5 -29t-54 -13.5q-48 0 -89.5 20
t-75.5 53t-60 76.5t-43.5 90.5t-26.5 94t-9 88q0 9 -1 30.5t1 43.5t10.5 38.5t28.5 16.5q7 0 11.5 -35t13 -88t23 -114.5t41 -114.5t67 -88t100.5 -35q30 0 60.5 12t58 31.5t50.5 44t37 50.5q0 5 -1 24.5t-2 45.5t-2.5 56t-2.5 56t-1.5 45.5t-0.5 25.5q1 79 10.5 97
t22.5 -11t27.5 -96.5t26.5 -158t19.5 -197.5t6 -214.5t-13.5 -207.5t-39.5 -178t-71.5 -125.5t-110 -50.5q-27 0 -62 10t-72 27t-72.5 40.5t-63.5 50.5t-45 57t-17 60zM136 716q0 6 6.5 16.5t15.5 21.5t18.5 19t15.5 8q20 0 35 -7t24.5 -17.5t14.5 -23.5t5 -24
q0 -8 -6.5 -18t-17 -18.5t-23.5 -14.5t-26 -6q-15 0 -26.5 7t-19.5 17.5t-12 21t-4 18.5zM344 716q0 6 6.5 16.5t15.5 21.5t18.5 19t16.5 8q20 0 34.5 -7t24.5 -17.5t14.5 -23.5t4.5 -24q0 -8 -6.5 -18t-17 -18.5t-23.5 -14.5t-26 -6q-15 0 -26.5 7t-19.5 17.5t-12 21
t-4 18.5z" />
  </font>
</defs>
</svg>
